<?xml version="1.0" standalone="no"?>
<!DOCTYPE svg PUBLIC "-//W3C//DTD SVG 1.1//EN" "http://www.w3.org/Graphics/SVG/1.1/DTD/svg11.dtd" >
<svg xmlns="http://www.w3.org/2000/svg" xmlns:xlink="http://www.w3.org/1999/xlink" version="1.1">
<metadata>
Created by FontForge 20170731 at Wed Sep 20 00:59:24 2017
 By Aleksey,,,
Copyright 2015 Google Inc. All Rights Reserved.
</metadata>
<defs>
<font id="NotoSans-Medium" horiz-adv-x="0" >
  <font-face 
    font-family="Noto Sans Med"
    font-weight="500"
    font-stretch="normal"
    units-per-em="1000"
    panose-1="2 11 6 2 4 5 4 2 2 4"
    ascent="800"
    descent="-200"
    x-height="539"
    cap-height="714"
    bbox="-622 -389 2800 1067"
    underline-thickness="50"
    underline-position="-175"
    unicode-range="U+000D-FFFD"
  />
<missing-glyph horiz-adv-x="600" 
d="M94 0v714h411v-714h-411zM145 51h309v612h-309v-612z" />
    <glyph glyph-name=".notdef" horiz-adv-x="600" 
d="M94 0v714h411v-714h-411zM145 51h309v612h-309v-612z" />
    <glyph glyph-name=".null" 
 />
    <glyph glyph-name="nonmarkingreturn" horiz-adv-x="333" 
 />
    <glyph glyph-name="NULL" 
 />
    <glyph glyph-name="NULL" 
 />
    <glyph glyph-name="CR" unicode="&#xd;" horiz-adv-x="260" 
 />
    <glyph glyph-name="space" unicode=" " horiz-adv-x="260" 
 />
    <glyph glyph-name="exclam" unicode="!" horiz-adv-x="274" 
d="M175 212h-75l-25 502h125zM68 59q0 39 20 55t49 16q27 0 47.5 -16t20.5 -55t-20.5 -56t-47.5 -17q-29 0 -49 17t-20 56z" />
    <glyph glyph-name="quotedbl" unicode="&#x22;" horiz-adv-x="427" 
d="M172 714l-20 -258h-67l-20 258h107zM362 714l-20 -258h-67l-20 258h107z" />
    <glyph glyph-name="numbersign" unicode="#" horiz-adv-x="646" 
d="M482 429l-28 -146h133v-77h-148l-40 -206h-82l40 206h-129l-38 -206h-80l37 206h-123v77h138l29 146h-130v77h144l39 208h83l-40 -208h131l39 208h80l-40 -208h124v-77h-139zM243 283h129l29 146h-129z" />
    <glyph glyph-name="dollar" unicode="$" horiz-adv-x="572" 
d="M253 -58v104q-59 2 -110 11t-86 25v98q36 -17 90 -30.5t106 -14.5v187q-104 32 -150.5 73.5t-46.5 113.5q0 74 54 117t143 49v84h65v-83q54 -2 99 -12t85 -27l-33 -86q-35 13 -74 23t-77 13v-184q62 -19 108 -41.5t70.5 -55t24.5 -85.5q0 -71 -52 -116t-151 -55v-108h-65
zM253 426v159q-47 -4 -70 -23t-23 -48q0 -34 20.5 -53.5t72.5 -34.5zM318 139q51 6 75 25.5t24 50.5q0 32 -21.5 50t-77.5 34v-160z" />
    <glyph glyph-name="percent" unicode="%" horiz-adv-x="852" 
d="M196 724q76 0 116 -58.5t40 -164.5t-37.5 -165.5t-118.5 -59.5q-74 0 -113 59.5t-39 165.5t36 164.5t116 58.5zM668 714l-396 -714h-89l396 714h89zM196 650q-65 0 -65 -149q0 -151 65 -151q69 0 69 151q0 149 -69 149zM652 438q76 0 116 -58.5t40 -164.5t-38 -165.5
t-118 -59.5q-75 0 -114 59.5t-39 165.5t36.5 164.5t116.5 58.5zM652 364q-65 0 -65 -149q0 -150 65 -150q68 0 68 150q0 149 -68 149z" />
    <glyph glyph-name="ampersand" unicode="&#x26;" horiz-adv-x="737" 
d="M306 725q82 0 131.5 -40.5t49.5 -114.5q0 -64 -41 -109t-102 -81l177 -171q24 31 40 71t27 85h108q-15 -62 -40.5 -119.5t-65.5 -103.5l146 -142h-138l-78 75q-46 -38 -102.5 -61.5t-133.5 -23.5q-109 0 -172 52.5t-63 145.5q0 76 39.5 122.5t107.5 85.5q-34 38 -58 78
t-24 92q0 74 52 116.5t140 42.5zM303 640q-37 0 -62 -19t-25 -57q0 -33 17 -61.5t48 -61.5q55 31 79.5 59t24.5 66q0 34 -23.5 54t-58.5 20zM259 331q-47 -29 -73 -59.5t-26 -77.5q0 -51 35.5 -81.5t93.5 -30.5q55 0 95.5 17t69.5 42z" />
    <glyph glyph-name="quotesingle" unicode="'" horiz-adv-x="237" 
d="M172 714l-20 -258h-67l-20 258h107z" />
    <glyph glyph-name="parenleft" unicode="(" horiz-adv-x="312" 
d="M40 274q0 122 35.5 235.5t111.5 204.5h95q-70 -94 -105.5 -207t-35.5 -232q0 -116 35.5 -228t104.5 -205h-94q-76 88 -111.5 199.5t-35.5 232.5z" />
    <glyph glyph-name="parenright" unicode=")" horiz-adv-x="312" 
d="M272 274q0 -121 -35.5 -232.5t-111.5 -199.5h-94q68 93 103.5 205t35.5 228q0 119 -35.5 232t-104.5 207h95q76 -91 111.5 -204.5t35.5 -235.5z" />
    <glyph glyph-name="asterisk" unicode="*" horiz-adv-x="549" 
d="M326 760l-20 -188l189 53l15 -101l-179 -15l116 -154l-93 -50l-83 168l-74 -168l-96 50l114 154l-177 15l16 101l186 -53l-21 188h107z" />
    <glyph glyph-name="plus" unicode="+" horiz-adv-x="572" 
d="M326 393h196v-81h-196v-201h-82v201h-196v81h196v202h82v-202z" />
    <glyph glyph-name="comma" unicode="," horiz-adv-x="273" 
d="M194 116l7 -11q-13 -53 -37 -116.5t-49 -117.5h-77q14 58 28 125.5t22 119.5h106z" />
    <glyph glyph-name="hyphen" unicode="-" horiz-adv-x="322" 
d="M37 223v90h248v-90h-248z" />
    <glyph glyph-name="period" unicode="." horiz-adv-x="273" 
d="M68 59q0 39 20 55t48 16t48.5 -16t20.5 -55t-20.5 -56t-48.5 -17t-48 17t-20 56z" />
    <glyph glyph-name="slash" unicode="/" horiz-adv-x="384" 
d="M376 714l-266 -714h-101l266 714h101z" />
    <glyph glyph-name="zero" unicode="0" horiz-adv-x="572" 
d="M527 358q0 -116 -24 -198t-77.5 -126t-140.5 -44q-123 0 -181.5 97.5t-58.5 270.5q0 116 23.5 198t76.5 125.5t140 43.5q122 0 182 -96.5t60 -270.5zM151 358q0 -140 30 -209.5t104 -69.5q73 0 104 69t31 210q0 139 -31 208.5t-104 69.5q-74 0 -104 -69.5t-30 -208.5z
" />
    <glyph glyph-name="one" unicode="1" horiz-adv-x="572" 
d="M372 0h-105v474q0 38 1 68.5t3 59.5q-13 -14 -27 -26t-32 -27l-78 -63l-54 68l204 160h88v-714z" />
    <glyph glyph-name="two" unicode="2" horiz-adv-x="572" 
d="M526 0h-480v82l184 187q54 55 90 95.5t54 78t18 81.5q0 54 -31.5 82t-83.5 28q-49 0 -88 -18t-81 -52l-57 71q43 36 98 62.5t131 26.5q101 0 160 -52t59 -139q0 -57 -23 -106t-65 -97t-99 -102l-133 -129v-5h347v-94z" />
    <glyph glyph-name="three" unicode="3" horiz-adv-x="572" 
d="M498 549q0 -73 -41 -116t-108 -57v-4q85 -10 128 -54t43 -114q0 -62 -29.5 -110.5t-91 -76t-157.5 -27.5q-57 0 -106 9t-93 30v96q45 -23 97 -35t98 -12q92 0 131.5 34.5t39.5 96.5q0 60 -48 88t-144 28h-65v87h66q91 0 132 34t41 89q0 48 -31.5 74.5t-90.5 26.5
q-55 0 -95.5 -17.5t-75.5 -40.5l-52 73q40 30 96 51.5t130 21.5q111 0 168.5 -48.5t57.5 -126.5z" />
    <glyph glyph-name="four" unicode="4" horiz-adv-x="572" 
d="M553 158h-99v-158h-103v158h-331v84l329 475h105v-469h99v-90zM351 248v194q0 47 1.5 88.5t3.5 69.5h-4q-8 -20 -20 -41t-23 -37l-189 -274h231z" />
    <glyph glyph-name="five" unicode="5" horiz-adv-x="572" 
d="M282 443q106 0 171 -55t65 -157q0 -113 -71 -177t-201 -64q-56 0 -104.5 10t-82.5 29v97q36 -21 87.5 -34t98.5 -13q75 0 120 34.5t45 107.5q0 65 -40.5 99.5t-127.5 34.5q-28 0 -62.5 -5t-55.5 -10l-49 29l27 345h367v-94h-275l-16 -187q17 3 43 6.5t61 3.5z" />
    <glyph glyph-name="six" unicode="6" horiz-adv-x="572" 
d="M49 304q0 62 8.5 122t30 113.5t59.5 95t96.5 65t141.5 23.5q21 0 47.5 -1.5t43.5 -6.5v-89q-19 6 -41.5 9t-44.5 3q-69 0 -114 -21t-71 -58t-38 -86t-15 -105h6q22 35 62 59.5t103 24.5q93 0 149.5 -57.5t56.5 -162.5q0 -112 -62.5 -177t-169.5 -65q-69 0 -125.5 34
t-89.5 103.5t-33 176.5zM296 78q57 0 93 37.5t36 116.5q0 63 -31.5 100t-94.5 37q-43 0 -75 -18t-50 -46t-18 -57q0 -40 16 -79.5t47 -65t77 -25.5z" />
    <glyph glyph-name="seven" unicode="7" horiz-adv-x="572" 
d="M129 0l285 620h-375v94h489v-76l-284 -638h-115z" />
    <glyph glyph-name="eight" unicode="8" horiz-adv-x="572" 
d="M285 724q63 0 112 -19.5t77.5 -58t28.5 -94.5q0 -64 -39 -105t-94 -69q42 -21 77.5 -47.5t57 -62t21.5 -83.5q0 -60 -30 -103.5t-83.5 -67.5t-125.5 -24q-116 0 -179 50.5t-63 141.5q0 48 20 84.5t53 62.5t72 44q-52 30 -87 72.5t-35 107.5q0 55 29 93.5t78 58t110 19.5z
M284 641q-50 0 -82 -24.5t-32 -69.5q0 -50 34.5 -77.5t83.5 -49.5q46 20 79 49t33 78q0 45 -32 69.5t-84 24.5zM147 184q0 -48 34 -80t104 -32q68 0 103.5 31.5t35.5 81.5q0 49 -39 81t-97 57l-15 6q-61 -26 -93.5 -60.5t-32.5 -84.5z" />
    <glyph glyph-name="nine" unicode="9" horiz-adv-x="572" 
d="M525 409q0 -61 -8.5 -121.5t-30 -114t-59.5 -95t-97 -65t-142 -23.5q-20 0 -47.5 2t-44.5 7v89q19 -6 42.5 -9t45.5 -3q69 0 114 20.5t71 57.5t38 85.5t14 104.5h-6q-22 -34 -61 -58.5t-105 -24.5q-92 0 -148 57.5t-56 161.5q0 113 63 178t169 65q69 0 125.5 -34
t89.5 -103.5t33 -176.5zM278 636q-57 0 -93 -38t-36 -116q0 -64 31 -101t94 -37q44 0 76.5 18t50 46t17.5 58q0 40 -15.5 79t-47 65t-77.5 26z" />
    <glyph glyph-name="colon" unicode=":" horiz-adv-x="273" 
d="M68 479q0 41 20 57t48 16t48.5 -16t20.5 -57q0 -38 -20.5 -55t-48.5 -17t-48 17t-20 55zM68 59q0 39 20 55t48 16t48.5 -16t20.5 -55t-20.5 -56t-48.5 -17t-48 17t-20 56z" />
    <glyph glyph-name="semicolon" unicode=";" horiz-adv-x="273" 
d="M66 479q0 41 20 57t49 16t49 -16t20 -57q0 -38 -20 -55t-49 -17t-49 17t-20 55zM188 116l7 -11q-13 -53 -37.5 -116.5t-48.5 -117.5h-78q14 57 28.5 125t21.5 120h107z" />
    <glyph glyph-name="less" unicode="&#x3c;" horiz-adv-x="572" 
d="M523 111l-475 209v56l475 237v-89l-364 -172l364 -152v-89z" />
    <glyph glyph-name="equal" unicode="=" horiz-adv-x="572" 
d="M52 410v81h466v-81h-466zM52 213v82h466v-82h-466z" />
    <glyph glyph-name="greater" unicode="&#x3e;" horiz-adv-x="572" 
d="M48 200l364 152l-364 172v89l475 -237v-56l-475 -209v89z" />
    <glyph glyph-name="question" unicode="?" horiz-adv-x="447" 
d="M139 212v29q0 55 18.5 90.5t67.5 75.5q36 29 56.5 49.5t29.5 41t9 47.5q0 43 -29 66t-82 23q-47 0 -86 -12.5t-76 -30.5l-38 80q43 23 94 38t113 15q98 0 151.5 -48t53.5 -128q0 -44 -14 -75t-40.5 -57t-62.5 -56q-32 -26 -49 -45t-23 -38t-6 -45v-20h-87zM118 59
q0 39 19.5 55t49.5 16q28 0 48 -16t20 -55t-20 -56t-48 -17q-30 0 -49.5 17t-19.5 56z" />
    <glyph glyph-name="at" unicode="@" horiz-adv-x="898" 
d="M843 357q0 -46 -11 -90t-33 -80t-55 -57.5t-77 -21.5q-43 0 -70 23.5t-34 56.5h-6q-19 -34 -53 -57t-86 -23q-80 0 -123.5 51.5t-43.5 136.5q0 66 27 117t76 80t116 29q45 0 89.5 -7.5t70.5 -17.5l-10 -203q-1 -16 -1 -24.5v-11.5q0 -49 16.5 -64.5t37.5 -15.5
q29 0 48.5 24.5t30 65t10.5 90.5q0 90 -36.5 153t-100 96t-144.5 33q-111 0 -187.5 -46t-116 -126t-39.5 -184q0 -144 76.5 -221t220.5 -77q60 0 117.5 13.5t103.5 30.5v-76q-44 -19 -99.5 -30.5t-120.5 -11.5q-120 0 -205 44t-130 126.5t-45 198.5q0 93 29.5 171.5
t84.5 137.5t133.5 91.5t177.5 32.5q105 0 187 -43t128.5 -123t46.5 -191zM339 294q0 -62 24.5 -89t66.5 -27q54 0 77.5 40t27.5 105l6 120q-13 4 -31 6.5t-38 2.5q-48 0 -77.5 -23t-42.5 -59t-13 -76z" />
    <glyph glyph-name="A" unicode="A" horiz-adv-x="654" 
d="M540 0l-76 206h-276l-76 -206h-112l271 717h112l270 -717h-113zM434 300l-72 201q-4 11 -11 33t-14 46t-11 39q-8 -31 -18 -66t-16 -52l-72 -201h214z" />
    <glyph glyph-name="B" unicode="B" horiz-adv-x="656" 
d="M95 714h209q136 0 206.5 -40t70.5 -138q0 -62 -33.5 -104t-95.5 -53v-5q42 -8 76.5 -26.5t54.5 -53t20 -90.5q0 -98 -68 -151t-184 -53h-256v714zM203 416h119q84 0 115.5 27t31.5 80t-38.5 76.5t-120.5 23.5h-107v-207zM203 328v-238h131q86 0 120.5 34t34.5 90
q0 51 -35.5 82.5t-126.5 31.5h-124z" />
    <glyph glyph-name="C" unicode="C" horiz-adv-x="633" 
d="M400 631q-106 0 -166.5 -73.5t-60.5 -201.5q0 -127 56 -200t170 -73q46 0 88.5 8.5t86.5 22.5v-93q-42 -16 -86 -23.5t-102 -7.5q-110 0 -182.5 45.5t-108 128t-35.5 193.5q0 108 39.5 190.5t115.5 129.5t186 47q54 0 105.5 -11.5t94.5 -32.5l-40 -90q-35 16 -75 28.5
t-86 12.5z" />
    <glyph glyph-name="D" unicode="D" horiz-adv-x="733" 
d="M673 364q0 -181 -99.5 -272.5t-278.5 -91.5h-200v714h221q109 0 189 -40t124 -118t44 -192zM560 361q0 135 -65 198.5t-186 63.5h-106v-532h87q270 0 270 270z" />
    <glyph glyph-name="E" unicode="E" horiz-adv-x="557" 
d="M497 0h-402v714h402v-92h-294v-204h276v-91h-276v-234h294v-93z" />
    <glyph glyph-name="F" unicode="F" horiz-adv-x="528" 
d="M202 0h-107v714h402v-92h-295v-233h276v-92h-276v-297z" />
    <glyph glyph-name="G" unicode="G" horiz-adv-x="727" 
d="M393 384h258v-356q-57 -19 -116.5 -28.5t-135.5 -9.5q-164 0 -251.5 97t-87.5 270q0 112 43.5 194.5t126.5 127.5t201 45q59 0 113 -12t100 -31l-39 -90q-37 17 -83 28.5t-95 11.5q-79 0 -136.5 -33.5t-88 -95.5t-30.5 -146q0 -80 25 -142t79 -97t141 -35q43 0 72.5 4.5
t54.5 10.5v194h-151v93z" />
    <glyph glyph-name="H" unicode="H" horiz-adv-x="748" 
d="M652 0h-108v326h-341v-326h-108v714h108v-296h341v296h108v-714z" />
    <glyph glyph-name="I" unicode="I" horiz-adv-x="354" 
d="M315 0h-277v62l85 25v539l-85 26v62h277v-62l-84 -26v-539l84 -25v-62z" />
    <glyph glyph-name="J" unicode="J" horiz-adv-x="290" 
d="M2 -196q-26 0 -45.5 3.5t-33.5 9.5v90q16 -4 34 -7t38 -3q25 0 47 10t35.5 35.5t13.5 73.5v698h108v-693q0 -113 -54.5 -165t-142.5 -52z" />
    <glyph glyph-name="K" unicode="K" horiz-adv-x="632" 
d="M632 0h-125l-234 329l-70 -58v-271h-108v714h108v-345q25 30 52 60t52 61l193 224h124l-273 -312z" />
    <glyph glyph-name="L" unicode="L" horiz-adv-x="536" 
d="M95 0v714h108v-621h305v-93h-413z" />
    <glyph glyph-name="M" unicode="M" horiz-adv-x="918" 
d="M406 0l-216 607h-4q2 -21 3.5 -54.5t2.5 -73t1 -76.5v-403h-98v714h154l205 -573h4l211 573h154v-714h-105v409q0 35 1.5 72t3 70l2.5 55h-4l-222 -606h-93z" />
    <glyph glyph-name="N" unicode="N" horiz-adv-x="776" 
d="M681 0h-131l-361 577h-4q2 -40 4.5 -91.5t3.5 -105.5v-380h-98v714h130l360 -574h3q-1 21 -2.5 53t-2.5 68.5t-2 68.5v384h100v-714z" />
    <glyph glyph-name="O" unicode="O" horiz-adv-x="785" 
d="M725 358q0 -111 -37 -193.5t-111 -128.5t-184 -46q-113 0 -187 46t-110 129t-36 194q0 110 36 192.5t110 128t188 45.5q110 0 183.5 -45.5t110.5 -128t37 -193.5zM174 358q0 -128 53 -202t166 -74q114 0 166 74t52 202t-52 201t-165 73q-114 0 -167 -73t-53 -201z" />
    <glyph glyph-name="P" unicode="P" horiz-adv-x="612" 
d="M295 714q140 0 204 -56.5t64 -157.5q0 -60 -26.5 -112t-88.5 -84.5t-168 -32.5h-77v-271h-108v714h200zM287 623h-84v-261h65q91 0 137.5 30.5t46.5 103.5q0 64 -40 95.5t-125 31.5z" />
    <glyph glyph-name="Q" unicode="Q" horiz-adv-x="785" 
d="M725 358q0 -128 -49.5 -219t-148.5 -127l171 -182h-148l-136 161q-5 0 -10.5 -0.5t-10.5 -0.5q-113 0 -187 46t-110 129t-36 194q0 110 36 192.5t110 128t188 45.5q110 0 183.5 -45.5t110.5 -128t37 -193.5zM174 358q0 -128 53 -202t166 -74q114 0 166 74t52 202t-52 201
t-165 73q-114 0 -167 -73t-53 -201z" />
    <glyph glyph-name="R" unicode="R" horiz-adv-x="633" 
d="M295 714q137 0 202.5 -51t65.5 -155q0 -55 -20 -92.5t-52.5 -61.5t-67.5 -37l200 -317h-124l-172 289h-124v-289h-108v714h200zM288 622h-85v-243h90q83 0 121 31.5t38 93.5q0 64 -40 91t-124 27z" />
    <glyph glyph-name="S" unicode="S" horiz-adv-x="550" 
d="M505 193q0 -95 -69 -149t-189 -54q-59 0 -110 9.5t-87 27.5v102q40 -18 94 -32.5t110 -14.5q72 0 108 28t36 75q0 33 -16 55.5t-51.5 42t-92.5 41.5q-52 20 -93 47t-64 67t-23 98q0 88 64 138t168 50q58 0 107.5 -12t94.5 -31l-34 -89q-41 17 -83.5 28t-87.5 11
q-59 0 -90 -26t-31 -68q0 -33 15 -55.5t48 -41t87 -39.5q60 -24 102.5 -50.5t64.5 -64t22 -93.5z" />
    <glyph glyph-name="T" unicode="T" horiz-adv-x="563" 
d="M335 0h-108v621h-214v93h536v-93h-214v-621z" />
    <glyph glyph-name="U" unicode="U" horiz-adv-x="738" 
d="M649 714v-462q0 -74 -30.5 -133.5t-93.5 -94t-159 -34.5q-136 0 -206.5 72.5t-70.5 191.5v460h108v-455q0 -177 174 -177q90 0 130.5 48t40.5 130v454h107z" />
    <glyph glyph-name="V" unicode="V" horiz-adv-x="615" 
d="M615 714l-252 -714h-112l-251 714h111l153 -448q13 -36 25 -79t18 -78q6 35 18 78t25 80l153 447h112z" />
    <glyph glyph-name="W" unicode="W" horiz-adv-x="941" 
d="M932 714l-188 -714h-115l-126 441q-7 24 -14.5 54t-13.5 56.5t-8 37.5q-1 -11 -6 -37t-12 -57t-15 -57l-124 -438h-115l-187 714h111l105 -422q10 -44 19.5 -91t14.5 -84q5 38 15.5 87t21.5 88l119 422h108l123 -424q12 -40 22 -89t15 -84q4 37 14 84t21 91l105 422h110z
" />
    <glyph glyph-name="X" unicode="X" horiz-adv-x="610" 
d="M607 0h-123l-182 298l-184 -298h-115l237 371l-222 343h120l168 -273l169 273h115l-222 -344z" />
    <glyph glyph-name="Y" unicode="Y" horiz-adv-x="583" 
d="M292 380l175 334h116l-238 -437v-277h-107v273l-238 441h117z" />
    <glyph glyph-name="Z" unicode="Z" horiz-adv-x="574" 
d="M539 0h-505v77l366 544h-355v93h485v-77l-366 -544h375v-93z" />
    <glyph glyph-name="bracketleft" unicode="[" horiz-adv-x="330" 
d="M305 -158h-228v872h228v-81h-130v-710h130v-81z" />
    <glyph glyph-name="backslash" unicode="\" horiz-adv-x="384" 
d="M109 714l267 -714h-101l-266 714h100z" />
    <glyph glyph-name="bracketright" unicode="]" horiz-adv-x="330" 
d="M25 -77h129v710h-129v81h228v-872h-228v81z" />
    <glyph glyph-name="asciicircum" unicode="^" horiz-adv-x="572" 
d="M34 263l212 456h56l236 -456h-89l-173 346l-154 -346h-88z" />
    <glyph glyph-name="underscore" unicode="_" horiz-adv-x="434" 
d="M436 -155h-438v65h438v-65z" />
    <glyph glyph-name="grave" unicode="`" horiz-adv-x="305" 
d="M163 766q12 -22 30 -49.5t37.5 -54t34.5 -44.5v-12h-71q-24 18 -54.5 46.5t-58 57t-41.5 46.5v10h123z" />
    <glyph glyph-name="a" unicode="a" horiz-adv-x="574" 
d="M292 549q101 0 151.5 -44.5t50.5 -139.5v-365h-75l-21 75h-4q-35 -44 -73.5 -64.5t-106.5 -20.5q-73 0 -121 39.5t-48 123.5q0 83 62.5 125.5t190.5 46.5l92 3v30q0 59 -27 83.5t-76 24.5q-41 0 -79 -12t-73 -29l-34 77q38 20 87.5 33.5t103.5 13.5zM389 259l-72 -2
q-92 -4 -127.5 -31t-35.5 -74q0 -42 25 -61t65 -19q62 0 103.5 35t41.5 105v47z" />
    <glyph glyph-name="b" unicode="b" horiz-adv-x="620" 
d="M189 760v-183q0 -32 -1.5 -62.5t-3.5 -46.5h5q23 34 62 57t101 23q97 0 156.5 -70t59.5 -208q0 -139 -60 -209.5t-157 -70.5q-62 0 -100.5 22.5t-61.5 53.5h-8l-20 -66h-78v760h106zM327 462q-77 0 -107 -45.5t-31 -139.5v-8q0 -93 29.5 -142.5t110.5 -49.5q65 0 97.5 50
t32.5 144q0 191 -132 191z" />
    <glyph glyph-name="c" unicode="c" horiz-adv-x="490" 
d="M300 -10q-112 0 -180 66.5t-68 209.5q0 100 33 162t91 91.5t132 29.5q45 0 84.5 -9t65.5 -22l-32 -86q-28 10 -59 18.5t-60 8.5q-146 0 -146 -192q0 -92 36 -140t106 -48q44 0 79 10t64 26v-92q-29 -17 -63 -25t-83 -8z" />
    <glyph glyph-name="d" unicode="d" horiz-adv-x="620" 
d="M268 -10q-98 0 -157 70t-59 208q0 139 60 210t158 71q61 0 100 -23t63 -56h6q-2 14 -5 41t-3 47v202h106v-760h-83l-18 72h-5q-23 -34 -62 -58t-101 -24zM293 77q78 0 109.5 43t32.5 131v16q0 95 -30.5 145t-112.5 50q-65 0 -98 -52t-33 -144q0 -91 33 -140t99 -49z" />
    <glyph glyph-name="e" unicode="e" horiz-adv-x="572" 
d="M295 549q106 0 167 -65.5t61 -178.5v-58h-362q2 -83 43.5 -127t116.5 -44q52 0 92.5 9.5t83.5 28.5v-88q-41 -19 -82 -27.5t-98 -8.5q-78 0 -138 31t-93.5 92t-33.5 152t30.5 154t85 96.5t127.5 33.5zM295 467q-57 0 -91.5 -37t-40.5 -105h254q-1 63 -30.5 102.5
t-91.5 39.5z" />
    <glyph glyph-name="f" unicode="f" horiz-adv-x="357" 
d="M346 458h-133v-458h-106v458h-91v50l91 33v34q0 103 47.5 146.5t132.5 43.5q35 0 64 -6t49 -13l-27 -81q-17 5 -38 9.5t-43 4.5q-79 0 -79 -105v-35h133v-81z" />
    <glyph glyph-name="g" unicode="g" horiz-adv-x="620" 
d="M269 549q52 0 94 -20t71 -61h5l12 71h86v-546q0 -233 -249 -233q-58 0 -107 8t-90 25v93q42 -21 93.5 -31.5t109.5 -10.5q65 0 101.5 37.5t36.5 105.5v18q0 13 1 34t2 32h-4q-28 -42 -68.5 -61.5t-93.5 -19.5q-102 0 -159.5 73.5t-57.5 204.5q0 130 57.5 205.5
t159.5 75.5zM291 461q-63 0 -96.5 -49.5t-33.5 -144.5q0 -94 33.5 -143t98.5 -49q74 0 108.5 40.5t34.5 132.5v20q0 104 -35 148.5t-110 44.5z" />
    <glyph glyph-name="h" unicode="h" horiz-adv-x="630" 
d="M189 760v-203q0 -25 -2 -50t-4 -41h7q26 41 69.5 61.5t94.5 20.5q95 0 145.5 -47t50.5 -150v-351h-105v336q0 126 -111 126q-83 0 -114 -50t-31 -141v-271h-106v760h106z" />
    <glyph glyph-name="i" unicode="i" horiz-adv-x="272" 
d="M137 744q24 0 42 -14t18 -47q0 -32 -18 -46.5t-42 -14.5q-25 0 -43 14.5t-18 46.5q0 33 18 47t43 14zM189 539v-539h-106v539h106z" />
    <glyph glyph-name="j" unicode="j" horiz-adv-x="272" 
d="M76 683q0 33 18 47t43 14q24 0 42 -14t18 -47q0 -32 -18 -46.5t-42 -14.5q-25 0 -43 14.5t-18 46.5zM26 -240q-26 0 -47.5 3.5t-36.5 8.5v85q16 -5 32 -7.5t36 -2.5q32 0 52.5 17.5t20.5 66.5v608h106v-613q0 -75 -38.5 -120.5t-124.5 -45.5z" />
    <glyph glyph-name="k" unicode="k" horiz-adv-x="559" 
d="M188 760v-380q0 -20 -2 -48t-3 -50h3q11 15 30.5 39.5t34.5 40.5l165 177h123l-217 -231l231 -308h-125l-178 241l-62 -52v-189h-105v760h105z" />
    <glyph glyph-name="l" unicode="l" horiz-adv-x="272" 
d="M189 0h-106v760h106v-760z" />
    <glyph glyph-name="m" unicode="m" horiz-adv-x="949" 
d="M687 549q91 0 137 -47t46 -151v-351h-106v337q0 125 -101 125q-72 0 -103 -44.5t-31 -127.5v-290h-105v337q0 125 -102 125q-76 0 -104.5 -49t-28.5 -141v-272h-106v539h84l15 -72h6q25 42 67.5 62t90.5 20q124 0 164 -87h8q26 44 72 65.5t97 21.5z" />
    <glyph glyph-name="n" unicode="n" horiz-adv-x="630" 
d="M356 549q94 0 144 -47t50 -151v-351h-105v336q0 126 -111 126q-82 0 -113.5 -49t-31.5 -141v-272h-106v539h84l15 -72h6q26 42 71.5 62t96.5 20z" />
    <glyph glyph-name="o" unicode="o" horiz-adv-x="609" 
d="M558 270q0 -134 -69 -207t-186 -73q-73 0 -129.5 32.5t-89 95t-32.5 152.5q0 134 68 206.5t186 72.5q74 0 130.5 -32.5t89 -94.5t32.5 -152zM161 270q0 -91 34.5 -142t109.5 -51t109.5 51t34.5 142q0 92 -34.5 141.5t-110.5 49.5q-75 0 -109 -49.5t-34 -141.5z" />
    <glyph glyph-name="p" unicode="p" horiz-adv-x="620" 
d="M352 549q98 0 157 -70t59 -209q0 -137 -60 -208.5t-157 -71.5q-61 0 -100 22.5t-62 53.5h-7q2 -18 4.5 -42.5t2.5 -43.5v-220h-106v779h86l15 -72h5q23 34 61.5 58t101.5 24zM327 462q-75 0 -106 -43t-32 -132v-16q0 -94 30 -144t110 -50q66 0 98 54t32 141
q0 88 -32.5 139t-99.5 51z" />
    <glyph glyph-name="q" unicode="q" horiz-adv-x="620" 
d="M431 -240v229q0 19 1.5 42t4.5 41h-6q-23 -34 -62.5 -58t-101.5 -24q-96 0 -155.5 70t-59.5 208q0 139 60.5 210t157.5 71q62 0 101 -23.5t63 -58.5h4l13 72h86v-779h-106zM294 76q76 0 108 42.5t33 130.5v18q0 96 -31 145.5t-112 49.5q-66 0 -98.5 -52t-32.5 -144
q0 -91 32.5 -140.5t100.5 -49.5z" />
    <glyph glyph-name="r" unicode="r" horiz-adv-x="425" 
d="M349 549q32 0 59 -5l-11 -99q-26 7 -54 7q-41 0 -76 -20t-56.5 -57.5t-21.5 -90.5v-284h-106v539h84l14 -96h4q25 43 67 74.5t97 31.5z" />
    <glyph glyph-name="s" unicode="s" horiz-adv-x="484" 
d="M441 152q0 -80 -57.5 -121t-161.5 -41q-57 0 -97.5 8t-74.5 25v93q35 -17 82.5 -30.5t92.5 -13.5q60 0 86.5 19t26.5 51q0 18 -10 32.5t-37.5 30t-80.5 35.5q-52 20 -87.5 41t-54.5 50t-19 73q0 70 56.5 107.5t149.5 37.5q49 0 92.5 -10t84.5 -28l-35 -81
q-35 15 -72 25.5t-75 10.5q-98 0 -98 -57q0 -19 11.5 -33t40 -28t79.5 -34q49 -19 84.5 -39.5t54.5 -49.5t19 -73z" />
    <glyph glyph-name="t" unicode="t" horiz-adv-x="383" 
d="M277 76q45 0 81 13v-80q-17 -8 -46 -13.5t-58 -5.5q-44 0 -80.5 15t-58.5 52t-22 103v298h-75v48l79 40l37 114h65v-121h154v-81h-154v-296q0 -44 21.5 -65t56.5 -21z" />
    <glyph glyph-name="u" unicode="u" horiz-adv-x="630" 
d="M547 539v-539h-85l-15 71h-5q-26 -42 -72 -61.5t-97 -19.5q-95 0 -145 46.5t-50 149.5v353h107v-337q0 -63 26.5 -94t82.5 -31q83 0 115 48.5t32 140.5v273h106z" />
    <glyph glyph-name="v" unicode="v" horiz-adv-x="526" 
d="M204 0l-204 539h112l112 -315q10 -32 21 -70t15 -63h4q4 25 16 63.5t22 69.5l112 315h112l-205 -539h-117z" />
    <glyph glyph-name="w" unicode="w" horiz-adv-x="807" 
d="M524 1l-77 269q-7 26 -16 59.5t-16 64t-11 47.5h-4q-3 -17 -10 -47.5t-15.5 -64t-16.5 -60.5l-80 -268h-118l-149 539h108l70 -273q11 -42 20.5 -89.5t13.5 -76.5h4q3 17 8.5 45.5t12 56.5t12.5 46l86 291h116l84 -291q6 -20 13 -47.5t12.5 -54.5t7.5 -45h4q2 16 7 44
t12.5 60t14.5 61l72 273h107l-151 -539h-121z" />
    <glyph glyph-name="x" unicode="x" horiz-adv-x="543" 
d="M206 275l-183 264h121l128 -194l128 194h120l-183 -264l192 -275h-120l-137 206l-138 -206h-120z" />
    <glyph glyph-name="y" unicode="y" horiz-adv-x="527" 
d="M1 539h114l112 -306q13 -35 23 -67t14 -64h4q5 26 15.5 61t23.5 71l106 305h114l-231 -612q-29 -78 -77.5 -122.5t-126.5 -44.5q-25 0 -43 2.5t-31 5.5v84q10 -2 26 -4t33 -2q46 0 74 26.5t44 69.5l22 58z" />
    <glyph glyph-name="z" unicode="z" horiz-adv-x="475" 
d="M439 0h-404v67l278 390h-261v82h379v-75l-272 -382h280v-82z" />
    <glyph glyph-name="braceleft" unicode="{" horiz-adv-x="384" 
d="M350 -158q-103 1 -153 37.5t-50 114.5v149q0 50 -31.5 71t-91.5 21v86q60 1 91.5 21.5t31.5 69.5v150q0 78 51.5 115t151.5 37v-83q-48 -1 -76 -20.5t-28 -66.5v-144q0 -100 -110 -118v-6q110 -19 110 -118v-147q0 -47 27 -66t77 -20v-83z" />
    <glyph glyph-name="bar" unicode="|" horiz-adv-x="551" 
d="M234 759h83v-996h-83v996z" />
    <glyph glyph-name="braceright" unicode="}" horiz-adv-x="384" 
d="M34 -158v83q48 1 76 20.5t28 66.5v145q0 100 110 118v6q-110 18 -110 118v146q0 47 -27 66t-77 20v83q104 -1 153.5 -37.5t49.5 -114.5v-149q0 -49 31.5 -70.5t91.5 -21.5v-86q-60 0 -91.5 -20.5t-31.5 -70.5v-150q0 -78 -51.5 -115t-151.5 -37z" />
    <glyph glyph-name="asciitilde" unicode="~" horiz-adv-x="572" 
d="M269 314q-37 16 -61 21.5t-46 5.5q-28 0 -59 -17t-55 -42v88q48 53 121 53q29 0 58 -6.5t75 -25.5q37 -16 61 -21.5t45 -5.5q29 0 60 17t55 42v-87q-49 -54 -121 -54q-29 0 -58 6t-75 26z" />
    <glyph glyph-name="uni00A0" unicode="&#xa0;" horiz-adv-x="260" 
 />
    <glyph glyph-name="exclamdown" unicode="&#xa1;" horiz-adv-x="274" 
d="M205 474q0 -40 -20.5 -56t-48.5 -16t-48 16t-20 56q0 38 20 55t48 17t48.5 -17t20.5 -55zM98 320h76l25 -501h-126z" />
    <glyph glyph-name="cent" unicode="&#xa2;" horiz-adv-x="572" 
d="M356 724v-79q40 -1 75 -10t61 -21l-32 -86q-28 11 -60 19.5t-61 8.5q-146 0 -146 -193q0 -97 36.5 -142t107.5 -45q44 0 77 9t66 23v-91q-28 -14 -58 -21.5t-67 -9.5v-96h-73v99q-91 13 -144 76.5t-53 196.5q0 92 24.5 150t68.5 89t104 40v83h74z" />
    <glyph glyph-name="sterling" unicode="&#xa3;" horiz-adv-x="572" 
d="M336 723q55 0 100 -11.5t81 -28.5l-35 -83q-32 14 -68 25t-73 11q-49 0 -77 -26t-28 -87v-125h197v-79h-197v-94q0 -59 -22 -87.5t-48 -43.5h374v-94h-506v88q43 13 69.5 43t26.5 93v95h-93v79h93v132q0 95 57.5 144t148.5 49z" />
    <glyph glyph-name="currency" unicode="&#xa4;" horiz-adv-x="572" 
d="M91 353q0 29 8.5 56t23.5 50l-65 66l56 54l64 -63q23 15 50.5 23.5t57.5 8.5q57 0 106 -32l65 63l55 -53l-63 -66q14 -22 23 -50t9 -57q0 -30 -8.5 -57.5t-23.5 -50.5l62 -64l-54 -54l-65 63q-23 -14 -50 -22.5t-56 -8.5q-62 0 -108 32l-64 -63l-55 54l64 64
q-15 23 -23.5 50.5t-8.5 56.5zM168 353q0 -49 34 -83.5t84 -34.5t84.5 34.5t34.5 83.5q0 50 -34.5 85t-84.5 35q-33 0 -60 -16t-42.5 -43.5t-15.5 -60.5z" />
    <glyph glyph-name="yen" unicode="&#xa5;" horiz-adv-x="572" 
d="M285 381l164 333h110l-197 -372h116v-71h-142v-77h142v-71h-142v-123h-102v123h-142v71h142v77h-142v71h113l-194 372h111z" />
    <glyph glyph-name="brokenbar" unicode="&#xa6;" horiz-adv-x="551" 
d="M234 759h83v-386h-83v386zM234 149h83v-386h-83v386z" />
    <glyph glyph-name="section" unicode="&#xa7;" horiz-adv-x="505" 
d="M65 394q0 47 22.5 77.5t52.5 46.5q-34 20 -53.5 47.5t-19.5 67.5q0 61 51.5 96.5t145.5 35.5q54 0 94 -10t79 -26l-31 -75q-34 14 -68 25t-79 11q-54 0 -76.5 -14.5t-22.5 -40.5q0 -27 26.5 -46t96.5 -45q75 -28 118 -65t43 -97q0 -50 -21 -81.5t-50 -49.5q34 -19 52 -45
t18 -64q0 -70 -57.5 -109t-159.5 -39q-55 0 -96 9t-73 25v83q34 -17 81 -30t91 -13q68 0 94 20t26 47q0 18 -9 31.5t-35 28t-77 34.5q-78 29 -120.5 64t-42.5 101zM150 404q0 -34 30 -59t104 -54l17 -6q21 12 39 32.5t18 51.5q0 23 -12.5 42.5t-44 37t-88.5 36.5
q-24 -7 -43.5 -28.5t-19.5 -52.5z" />
    <glyph glyph-name="dieresis" unicode="&#xa8;" horiz-adv-x="588" 
d="M145 682q0 29 15.5 41.5t37.5 12.5t38 -12.5t16 -41.5q0 -27 -16 -40.5t-38 -13.5t-37.5 13.5t-15.5 40.5zM336 682q0 29 15 41.5t38 12.5q21 0 37 -12.5t16 -41.5q0 -27 -16 -40.5t-37 -13.5q-23 0 -38 13.5t-15 40.5z" />
    <glyph glyph-name="copyright" unicode="&#xa9;" horiz-adv-x="832" 
d="M416 -10q-80 0 -147 27t-116.5 76.5t-76.5 116.5t-27 147q0 79 27.5 146t76.5 116.5t116 77t147 27.5q76 0 142.5 -27t117 -76.5t79 -116.5t28.5 -147t-27 -147t-76.5 -116.5t-116.5 -76.5t-147 -27zM416 46q63 0 118.5 23t97.5 64.5t66 98.5t24 125q0 64 -22.5 120.5
t-64 99t-97.5 67t-122 24.5q-89 0 -158.5 -40t-109 -110t-39.5 -161q0 -87 39.5 -157.5t108.5 -112t159 -41.5zM431 132q-100 0 -149.5 61.5t-49.5 163.5q0 65 23.5 116t69 80t110.5 29t123 -30l-29 -63q-50 26 -93 26q-59 0 -91.5 -42.5t-32.5 -115.5q0 -77 28.5 -118
t94.5 -41q23 0 51.5 6.5t53.5 16.5v-65q-24 -10 -49 -17t-60 -7z" />
    <glyph glyph-name="ordfeminine" unicode="&#xaa;" horiz-adv-x="365" 
d="M184 722q133 0 133 -119v-219h-52l-13 46q-20 -23 -49 -37.5t-66 -14.5q-49 0 -78.5 25t-29.5 77t41 78t121 29l54 2v18q0 30 -19.5 43t-49.5 13q-26 0 -51.5 -7.5t-50.5 -19.5l-25 54q28 14 62 23t73 9zM245 540l-48 -2q-55 -2 -74 -17.5t-19 -39.5t13.5 -34.5
t35.5 -10.5q47 0 69.5 23t22.5 60v21z" />
    <glyph glyph-name="guillemotleft" unicode="&#xab;" horiz-adv-x="540" 
d="M40 273l172 207l76 -42l-139 -171l139 -171l-76 -43l-172 207v13zM252 273l174 207l75 -42l-139 -171l139 -171l-75 -43l-174 207v13z" />
    <glyph glyph-name="logicalnot" unicode="&#xac;" horiz-adv-x="572" 
d="M522 393v-267h-81v186h-393v81h474z" />
    <glyph glyph-name="uni00AD" unicode="&#xad;" horiz-adv-x="322" 
d="M37 223v90h248v-90h-248z" />
    <glyph glyph-name="registered" unicode="&#xae;" horiz-adv-x="832" 
d="M416 -10q-80 0 -147 27t-116.5 76.5t-76.5 116.5t-27 147q0 79 27.5 146t76.5 116.5t116 77t147 27.5q76 0 142.5 -27t117 -76.5t79 -116.5t28.5 -147t-27 -147t-76.5 -116.5t-116.5 -76.5t-147 -27zM416 46q63 0 118.5 23t97.5 64.5t66 98.5t24 125q0 64 -22.5 120.5
t-64 99t-97.5 67t-122 24.5q-89 0 -158.5 -40t-109 -110t-39.5 -161q0 -87 39.5 -157.5t108.5 -112t159 -41.5zM278 138v438h129q82 0 120 -33t38 -97q0 -47 -24 -74.5t-54 -39.5l116 -194h-87l-99 172h-62v-172h-77zM355 373h50q39 0 60.5 19.5t21.5 51.5q0 35 -19.5 51
t-63.5 16h-49v-138z" />
    <glyph glyph-name="overscore" unicode="&#xaf;" horiz-adv-x="500" 
d="M503 760h-506v75h506v-75z" />
    <glyph glyph-name="degree" unicode="&#xb0;" horiz-adv-x="428" 
d="M214 408q-74 0 -119 44t-45 114t45 114t119 44q73 0 118 -44t45 -114t-45 -114t-118 -44zM215 477q43 0 65.5 24.5t22.5 64.5q0 41 -23.5 65.5t-64.5 24.5q-44 0 -67 -24.5t-23 -65.5q0 -40 23 -64.5t67 -24.5z" />
    <glyph glyph-name="plusminus" unicode="&#xb1;" horiz-adv-x="572" 
d="M326 404h196v-81h-196v-201h-82v201h-196v81h196v202h82v-202zM48 0v82h475v-82h-475z" />
    <glyph glyph-name="uni00B2" unicode="&#xb2;" horiz-adv-x="359" 
d="M317 416h-292v62l113 111q38 36 57.5 59t27 41t7.5 39q0 28 -17 42.5t-43 14.5q-27 0 -50.5 -11.5t-49.5 -31.5l-43 54q30 26 66 41.5t82 15.5q64 0 101.5 -31.5t37.5 -87.5q0 -48 -28.5 -86.5t-84.5 -91.5l-72 -67h188v-73z" />
    <glyph glyph-name="uni00B3" unicode="&#xb3;" horiz-adv-x="359" 
d="M171 853q67 0 104.5 -30.5t37.5 -80.5q0 -38 -21 -64t-55 -36v-4q42 -8 65.5 -35t23.5 -65q0 -58 -42.5 -94t-131.5 -36q-37 0 -69 7t-62 23v72q68 -37 132 -37q91 0 91 69q0 64 -102 64h-56v61h53q51 0 71.5 18.5t20.5 46.5t-17.5 42t-46.5 14t-53.5 -10t-51.5 -28
l-40 53q31 23 66 36.5t83 13.5z" />
    <glyph glyph-name="acute" unicode="&#xb4;" horiz-adv-x="305" 
d="M265 766v-10q-15 -18 -42.5 -46.5t-58 -57t-54.5 -46.5h-70v12q15 18 34 44.5t36.5 54t30.5 49.5h124z" />
    <glyph glyph-name="uni00B5" unicode="&#xb5;" horiz-adv-x="634" 
d="M551 539v-539h-83l-16 72h-6q-24 -40 -61 -61t-89 -21q-36 0 -63 12t-45 33h-4q2 -17 3.5 -49.5t1.5 -69.5v-156h-106v779h106v-338q0 -124 111 -124q82 0 113.5 48.5t31.5 140.5v273h106z" />
    <glyph glyph-name="paragraph" unicode="&#xb6;" horiz-adv-x="655" 
d="M555 -127h-64v819h-96v-819h-64v400q-15 -5 -34 -7t-37 -2q-62 0 -108 23t-71.5 77t-25.5 145q0 95 27.5 150t77.5 78t115 23h280v-887z" />
    <glyph glyph-name="periodcentered" unicode="&#xb7;" horiz-adv-x="273" 
d="M68 353q0 39 20 55t48 16t48.5 -16t20.5 -55t-20.5 -56t-48.5 -17t-48 17t-20 56z" />
    <glyph glyph-name="cedilla" unicode="&#xb8;" horiz-adv-x="219" 
d="M210 -134q0 -50 -36 -78t-113 -28q-17 0 -31.5 2t-24.5 4v63q11 -2 27 -4t31 -2q29 0 45.5 8.5t16.5 31.5q0 24 -23.5 36.5t-64.5 17.5l42 83h68l-22 -46q35 -9 60 -29.5t25 -58.5z" />
    <glyph glyph-name="uni00B9" unicode="&#xb9;" horiz-adv-x="359" 
d="M253 844v-428h-84v259q0 24 1.5 49t2.5 43q-9 -8 -21 -19t-23 -19l-49 -37l-41 53l135 99h79z" />
    <glyph glyph-name="ordmasculine" unicode="&#xba;" horiz-adv-x="380" 
d="M349 551q0 -83 -43.5 -128t-116.5 -45q-69 0 -113.5 44.5t-44.5 128.5q0 83 43 127t117 44q71 0 114.5 -44t43.5 -127zM104 551q0 -56 20 -84t66 -28q44 0 64.5 28t20.5 84t-20.5 83t-64.5 27q-45 0 -65.5 -27t-20.5 -83z" />
    <glyph glyph-name="guillemotright" unicode="&#xbb;" horiz-adv-x="540" 
d="M500 260l-173 -207l-75 43l139 171l-139 171l75 42l173 -207v-13zM287 260l-172 -207l-76 43l139 171l-139 171l76 42l172 -207v-13z" />
    <glyph glyph-name="onequarter" unicode="&#xbc;" horiz-adv-x="770" 
d="M135 0l424 714h87l-424 -714h-87zM160 286v259q0 24 1 49t3 43q-8 -8 -20.5 -19t-23.5 -19l-49 -37l-41 53l135 99h79v-428h-84zM613 0v90h-193v58l195 283h85v-275h61v-66h-61v-90h-87zM496 156h117v89q0 21 0.5 47.5t2.5 50.5q-5 -12 -19.5 -36.5t-25.5 -40.5z" />
    <glyph glyph-name="onehalf" unicode="&#xbd;" horiz-adv-x="801" 
d="M114 0l424 714h87l-424 -714h-87zM152 286v259q0 24 1 49t3 43q-9 -8 -21 -19t-23 -19l-50 -37l-40 53l135 99h79v-428h-84zM468 0v62l113 111q37 36 57 59t27 41t7 39q0 28 -16.5 42.5t-43.5 14.5q-26 0 -50 -11.5t-50 -31.5l-42 54q30 26 66 41.5t82 15.5
q64 0 101.5 -31.5t37.5 -87.5q0 -48 -28.5 -86.5t-84.5 -91.5l-72 -67h188v-73h-292z" />
    <glyph glyph-name="threequarters" unicode="&#xbe;" horiz-adv-x="800" 
d="M155 278q-37 0 -69 7t-62 23v72q68 -37 132 -37q91 0 91 69q0 64 -102 64h-56v61h53q51 0 71.5 18.5t20.5 46.5t-18 42t-46 14t-53 -10t-52 -28l-40 53q31 23 66 36.5t83 13.5q68 0 105 -30.5t37 -80.5q0 -38 -21 -64t-55 -36v-4q42 -8 65.5 -35t23.5 -65
q0 -58 -42.5 -94t-131.5 -36zM176 0l424 714h88l-424 -714h-88zM643 0v90h-193v58l194 283h86v-275h61v-66h-61v-90h-87zM526 156h117v89q0 21 0.5 47.5t2.5 50.5q-5 -12 -19.5 -36.5t-25.5 -40.5z" />
    <glyph glyph-name="questiondown" unicode="&#xbf;" horiz-adv-x="447" 
d="M307 320v-29q0 -55 -18.5 -90.5t-67.5 -75.5q-36 -29 -56.5 -49.5t-29.5 -41t-9 -47.5q0 -43 29 -66t82 -23q47 0 86 12.5t76 30.5l38 -80q-43 -23 -94 -38t-113 -15q-98 0 -151.5 48t-53.5 128q0 44 14 75t40.5 57t62.5 56q32 26 49 45t23 38t6 45v20h87zM328 473
q0 -39 -19.5 -55t-49.5 -16q-28 0 -48 16t-20 55t20 56t48 17q30 0 49.5 -17t19.5 -56z" />
    <glyph glyph-name="Agrave" unicode="&#xc0;" horiz-adv-x="654" 
d="M540 0l-76 206h-276l-76 -206h-112l271 717h112l270 -717h-113zM434 300l-72 201q-4 11 -11 33t-14 46t-11 39q-8 -31 -18 -66t-16 -52l-72 -201h214zM300 941q12 -22 30 -49.5t37.5 -54t34.5 -44.5v-12h-71q-24 18 -54.5 46.5t-58 57t-41.5 46.5v10h123z" />
    <glyph glyph-name="Aacute" unicode="&#xc1;" horiz-adv-x="654" 
d="M540 0l-76 206h-276l-76 -206h-112l271 717h112l270 -717h-113zM434 300l-72 201q-4 11 -11 33t-14 46t-11 39q-8 -31 -18 -66t-16 -52l-72 -201h214zM482 941v-10q-15 -18 -42.5 -46.5t-58 -57t-54.5 -46.5h-70v12q15 18 34 44.5t36.5 54t30.5 49.5h124z" />
    <glyph glyph-name="Acircumflex" unicode="&#xc2;" horiz-adv-x="654" 
d="M540 0l-76 206h-276l-76 -206h-112l271 717h112l270 -717h-113zM434 300l-72 201q-4 11 -11 33t-14 46t-11 39q-8 -31 -18 -66t-16 -52l-72 -201h214zM384 941q13 -22 35.5 -49.5t46.5 -54t43 -44.5v-12h-73q-26 16 -55 39t-55 50q-27 -27 -54.5 -50t-53.5 -39h-72v12
q18 19 42 45t46 53.5t36 49.5h114z" />
    <glyph glyph-name="Atilde" unicode="&#xc3;" horiz-adv-x="654" 
d="M540 0l-76 206h-276l-76 -206h-112l271 717h112l270 -717h-113zM434 300l-72 201q-4 11 -11 33t-14 46t-11 39q-8 -31 -18 -66t-16 -52l-72 -201h214zM136 781q6 64 37 99t80 35q29 0 55 -14t50 -27.5t46 -13.5q39 0 53 56h57q-6 -64 -36.5 -99t-79.5 -35q-28 0 -54 13.5
t-50 27.5t-47 14q-41 0 -54 -56h-57z" />
    <glyph glyph-name="Adieresis" unicode="&#xc4;" horiz-adv-x="654" 
d="M540 0l-76 206h-276l-76 -206h-112l271 717h112l270 -717h-113zM434 300l-72 201q-4 11 -11 33t-14 46t-11 39q-8 -31 -18 -66t-16 -52l-72 -201h214zM177 857q0 29 15.5 41.5t37.5 12.5t38 -12.5t16 -41.5q0 -27 -16 -40.5t-38 -13.5t-37.5 13.5t-15.5 40.5zM368 857
q0 29 15 41.5t38 12.5q21 0 37 -12.5t16 -41.5q0 -27 -16 -40.5t-37 -13.5q-23 0 -38 13.5t-15 40.5z" />
    <glyph glyph-name="Aring" unicode="&#xc5;" horiz-adv-x="654" 
d="M540 0l-76 206h-276l-76 -206h-112l271 717h112l270 -717h-113zM434 300l-72 201q-4 11 -11 33t-14 46t-11 39q-8 -31 -18 -66t-16 -52l-72 -201h214zM325 662q-51 0 -82 28.5t-31 80.5q0 50 31 79t82 29q48 0 81 -28.5t33 -78.5q0 -52 -32.5 -81t-81.5 -29zM325 717
q23 0 38 14.5t15 39.5t-15 39t-38 14t-38.5 -14t-15.5 -39q0 -54 54 -54z" />
    <glyph glyph-name="AE" unicode="&#xc6;" horiz-adv-x="902" 
d="M842 0h-388v206h-247l-97 -206h-111l334 714h509v-92h-280v-204h262v-91h-262v-234h280v-93zM248 300h206v320h-59z" />
    <glyph glyph-name="Ccedilla" unicode="&#xc7;" horiz-adv-x="633" 
d="M400 631q-106 0 -166.5 -73.5t-60.5 -201.5q0 -127 56 -200t170 -73q46 0 88.5 8.5t86.5 22.5v-93q-42 -16 -86 -23.5t-102 -7.5q-110 0 -182.5 45.5t-108 128t-35.5 193.5q0 108 39.5 190.5t115.5 129.5t186 47q54 0 105.5 -11.5t94.5 -32.5l-40 -90q-35 16 -75 28.5
t-86 12.5zM477 -134q0 -50 -36 -78t-113 -28q-17 0 -31.5 2t-24.5 4v63q11 -2 27 -4t31 -2q29 0 45.5 8.5t16.5 31.5q0 24 -23.5 36.5t-64.5 17.5l42 83h68l-22 -46q35 -9 60 -29.5t25 -58.5z" />
    <glyph glyph-name="Egrave" unicode="&#xc8;" horiz-adv-x="557" 
d="M497 0h-402v714h402v-92h-294v-204h276v-91h-276v-234h294v-93zM278 941q12 -22 30 -49.5t37.5 -54t34.5 -44.5v-12h-71q-24 18 -54.5 46.5t-58 57t-41.5 46.5v10h123z" />
    <glyph glyph-name="Eacute" unicode="&#xc9;" horiz-adv-x="557" 
d="M497 0h-402v714h402v-92h-294v-204h276v-91h-276v-234h294v-93zM460 941v-10q-15 -18 -42.5 -46.5t-58 -57t-54.5 -46.5h-70v12q15 18 34 44.5t36.5 54t30.5 49.5h124z" />
    <glyph glyph-name="Ecircumflex" unicode="&#xca;" horiz-adv-x="557" 
d="M497 0h-402v714h402v-92h-294v-204h276v-91h-276v-234h294v-93zM362 941q13 -22 35.5 -49.5t46.5 -54t43 -44.5v-12h-73q-26 16 -55 39t-55 50q-27 -27 -54.5 -50t-53.5 -39h-72v12q18 19 42 45t46 53.5t36 49.5h114z" />
    <glyph glyph-name="Edieresis" unicode="&#xcb;" horiz-adv-x="557" 
d="M497 0h-402v714h402v-92h-294v-204h276v-91h-276v-234h294v-93zM155 857q0 29 15.5 41.5t37.5 12.5t38 -12.5t16 -41.5q0 -27 -16 -40.5t-38 -13.5t-37.5 13.5t-15.5 40.5zM346 857q0 29 15 41.5t38 12.5q21 0 37 -12.5t16 -41.5q0 -27 -16 -40.5t-37 -13.5
q-23 0 -38 13.5t-15 40.5z" />
    <glyph glyph-name="Igrave" unicode="&#xcc;" horiz-adv-x="354" 
d="M315 0h-277v62l85 25v539l-85 26v62h277v-62l-84 -26v-539l84 -25v-62zM152 941q12 -22 30 -49.5t37.5 -54t34.5 -44.5v-12h-71q-24 18 -54.5 46.5t-58 57t-41.5 46.5v10h123z" />
    <glyph glyph-name="Iacute" unicode="&#xcd;" horiz-adv-x="354" 
d="M315 0h-277v62l85 25v539l-85 26v62h277v-62l-84 -26v-539l84 -25v-62zM334 941v-10q-15 -18 -42.5 -46.5t-58 -57t-54.5 -46.5h-70v12q15 18 34 44.5t36.5 54t30.5 49.5h124z" />
    <glyph glyph-name="Icircumflex" unicode="&#xce;" horiz-adv-x="354" 
d="M315 0h-277v62l85 25v539l-85 26v62h277v-62l-84 -26v-539l84 -25v-62zM235 941q13 -22 35.5 -49.5t46.5 -54t43 -44.5v-12h-73q-26 16 -55 39t-55 50q-27 -27 -54.5 -50t-53.5 -39h-72v12q18 19 42 45t46 53.5t36 49.5h114z" />
    <glyph glyph-name="Idieresis" unicode="&#xcf;" horiz-adv-x="354" 
d="M315 0h-277v62l85 25v539l-85 26v62h277v-62l-84 -26v-539l84 -25v-62zM28 857q0 29 15.5 41.5t37.5 12.5t38 -12.5t16 -41.5q0 -27 -16 -40.5t-38 -13.5t-37.5 13.5t-15.5 40.5zM219 857q0 29 15 41.5t38 12.5q21 0 37 -12.5t16 -41.5q0 -27 -16 -40.5t-37 -13.5
q-23 0 -38 13.5t-15 40.5z" />
    <glyph glyph-name="Eth" unicode="&#xd0;" horiz-adv-x="733" 
d="M316 714q108 0 188.5 -40t124.5 -118t44 -192q0 -181 -100 -272.5t-279 -91.5h-194v307h-72v92h72v315h216zM309 623h-101v-224h160v-92h-160v-216h82q270 0 270 270q0 135 -66 198.5t-185 63.5z" />
    <glyph glyph-name="Ntilde" unicode="&#xd1;" horiz-adv-x="776" 
d="M681 0h-131l-361 577h-4q2 -40 4.5 -91.5t3.5 -105.5v-380h-98v714h130l360 -574h3q-1 21 -2.5 53t-2.5 68.5t-2 68.5v384h100v-714zM198 781q6 64 37 99t80 35q29 0 55 -14t50 -27.5t46 -13.5q39 0 53 56h57q-6 -64 -36.5 -99t-79.5 -35q-28 0 -54 13.5t-50 27.5t-47 14
q-41 0 -54 -56h-57z" />
    <glyph glyph-name="Ograve" unicode="&#xd2;" horiz-adv-x="785" 
d="M725 358q0 -111 -37 -193.5t-111 -128.5t-184 -46q-113 0 -187 46t-110 129t-36 194q0 110 36 192.5t110 128t188 45.5q110 0 183.5 -45.5t110.5 -128t37 -193.5zM174 358q0 -128 53 -202t166 -74q114 0 166 74t52 202t-52 201t-165 73q-114 0 -167 -73t-53 -201z
M367 941q12 -22 30 -49.5t37.5 -54t34.5 -44.5v-12h-71q-24 18 -54.5 46.5t-58 57t-41.5 46.5v10h123z" />
    <glyph glyph-name="Oacute" unicode="&#xd3;" horiz-adv-x="785" 
d="M725 358q0 -111 -37 -193.5t-111 -128.5t-184 -46q-113 0 -187 46t-110 129t-36 194q0 110 36 192.5t110 128t188 45.5q110 0 183.5 -45.5t110.5 -128t37 -193.5zM174 358q0 -128 53 -202t166 -74q114 0 166 74t52 202t-52 201t-165 73q-114 0 -167 -73t-53 -201z
M549 941v-10q-15 -18 -42.5 -46.5t-58 -57t-54.5 -46.5h-70v12q15 18 34 44.5t36.5 54t30.5 49.5h124z" />
    <glyph glyph-name="Ocircumflex" unicode="&#xd4;" horiz-adv-x="785" 
d="M725 358q0 -111 -37 -193.5t-111 -128.5t-184 -46q-113 0 -187 46t-110 129t-36 194q0 110 36 192.5t110 128t188 45.5q110 0 183.5 -45.5t110.5 -128t37 -193.5zM174 358q0 -128 53 -202t166 -74q114 0 166 74t52 202t-52 201t-165 73q-114 0 -167 -73t-53 -201z
M451 941q13 -22 35.5 -49.5t46.5 -54t43 -44.5v-12h-73q-26 16 -55 39t-55 50q-27 -27 -54.5 -50t-53.5 -39h-72v12q18 19 42 45t46 53.5t36 49.5h114z" />
    <glyph glyph-name="Otilde" unicode="&#xd5;" horiz-adv-x="785" 
d="M725 358q0 -111 -37 -193.5t-111 -128.5t-184 -46q-113 0 -187 46t-110 129t-36 194q0 110 36 192.5t110 128t188 45.5q110 0 183.5 -45.5t110.5 -128t37 -193.5zM174 358q0 -128 53 -202t166 -74q114 0 166 74t52 202t-52 201t-165 73q-114 0 -167 -73t-53 -201z
M203 781q6 64 37 99t80 35q29 0 55 -14t50 -27.5t46 -13.5q39 0 53 56h57q-6 -64 -36.5 -99t-79.5 -35q-28 0 -54 13.5t-50 27.5t-47 14q-41 0 -54 -56h-57z" />
    <glyph glyph-name="Odieresis" unicode="&#xd6;" horiz-adv-x="785" 
d="M725 358q0 -111 -37 -193.5t-111 -128.5t-184 -46q-113 0 -187 46t-110 129t-36 194q0 110 36 192.5t110 128t188 45.5q110 0 183.5 -45.5t110.5 -128t37 -193.5zM174 358q0 -128 53 -202t166 -74q114 0 166 74t52 202t-52 201t-165 73q-114 0 -167 -73t-53 -201z
M244 857q0 29 15.5 41.5t37.5 12.5t38 -12.5t16 -41.5q0 -27 -16 -40.5t-38 -13.5t-37.5 13.5t-15.5 40.5zM435 857q0 29 15 41.5t38 12.5q21 0 37 -12.5t16 -41.5q0 -27 -16 -40.5t-37 -13.5q-23 0 -38 13.5t-15 40.5z" />
    <glyph glyph-name="multiply" unicode="&#xd7;" horiz-adv-x="572" 
d="M449 574l58 -57l-164 -164l162 -164l-56 -57l-165 162l-161 -162l-58 58l162 163l-163 163l58 58l163 -163z" />
    <glyph glyph-name="Oslash" unicode="&#xd8;" horiz-adv-x="785" 
d="M725 358q0 -111 -37 -193.5t-111 -128.5t-184 -46q-107 0 -179 43l-47 -68l-66 44l50 72q-46 49 -68.5 119.5t-22.5 158.5q0 110 36 192.5t110 128t188 45.5q51 0 95 -11.5t80 -30.5l45 65l66 -44l-49 -69q47 -48 70.5 -118.5t23.5 -158.5zM174 358q0 -57 10 -103.5
t31 -80.5l298 427q-48 31 -119 31q-114 0 -167 -73t-53 -201zM611 358q0 117 -43 185l-297 -428q23 -16 54 -24.5t68 -8.5q114 0 166 74t52 202z" />
    <glyph glyph-name="Ugrave" unicode="&#xd9;" horiz-adv-x="738" 
d="M649 714v-462q0 -74 -30.5 -133.5t-93.5 -94t-159 -34.5q-136 0 -206.5 72.5t-70.5 191.5v460h108v-455q0 -177 174 -177q90 0 130.5 48t40.5 130v454h107zM344 941q12 -22 30 -49.5t37.5 -54t34.5 -44.5v-12h-71q-24 18 -54.5 46.5t-58 57t-41.5 46.5v10h123z" />
    <glyph glyph-name="Uacute" unicode="&#xda;" horiz-adv-x="738" 
d="M649 714v-462q0 -74 -30.5 -133.5t-93.5 -94t-159 -34.5q-136 0 -206.5 72.5t-70.5 191.5v460h108v-455q0 -177 174 -177q90 0 130.5 48t40.5 130v454h107zM526 941v-10q-15 -18 -42.5 -46.5t-58 -57t-54.5 -46.5h-70v12q15 18 34 44.5t36.5 54t30.5 49.5h124z" />
    <glyph glyph-name="Ucircumflex" unicode="&#xdb;" horiz-adv-x="738" 
d="M649 714v-462q0 -74 -30.5 -133.5t-93.5 -94t-159 -34.5q-136 0 -206.5 72.5t-70.5 191.5v460h108v-455q0 -177 174 -177q90 0 130.5 48t40.5 130v454h107zM428 941q13 -22 35.5 -49.5t46.5 -54t43 -44.5v-12h-73q-26 16 -55 39t-55 50q-27 -27 -54.5 -50t-53.5 -39h-72
v12q18 19 42 45t46 53.5t36 49.5h114z" />
    <glyph glyph-name="Udieresis" unicode="&#xdc;" horiz-adv-x="738" 
d="M649 714v-462q0 -74 -30.5 -133.5t-93.5 -94t-159 -34.5q-136 0 -206.5 72.5t-70.5 191.5v460h108v-455q0 -177 174 -177q90 0 130.5 48t40.5 130v454h107zM220 857q0 29 15.5 41.5t37.5 12.5t38 -12.5t16 -41.5q0 -27 -16 -40.5t-38 -13.5t-37.5 13.5t-15.5 40.5z
M411 857q0 29 15 41.5t38 12.5q21 0 37 -12.5t16 -41.5q0 -27 -16 -40.5t-37 -13.5q-23 0 -38 13.5t-15 40.5z" />
    <glyph glyph-name="Yacute" unicode="&#xdd;" horiz-adv-x="583" 
d="M292 380l175 334h116l-238 -437v-277h-107v273l-238 441h117zM448 941v-10q-15 -18 -42.5 -46.5t-58 -57t-54.5 -46.5h-70v12q15 18 34 44.5t36.5 54t30.5 49.5h124z" />
    <glyph glyph-name="Thorn" unicode="&#xde;" horiz-adv-x="612" 
d="M563 380q0 -60 -26 -112t-87.5 -84.5t-167.5 -32.5h-79v-151h-108v714h108v-120h93q141 0 204 -57t63 -157zM203 241h65q95 0 139.5 31.5t44.5 104.5q0 64 -40 95t-128 31h-81v-262z" />
    <glyph glyph-name="germandbls" unicode="&#xdf;" horiz-adv-x="655" 
d="M548 614q0 -35 -14 -61t-35 -45.5t-42 -35t-35 -30t-14 -31.5q0 -13 8 -24t28 -26t57 -39q53 -34 82.5 -71t29.5 -96q0 -85 -53.5 -125t-144.5 -40q-92 0 -146 33v91q25 -16 64 -29t77 -13q50 0 73.5 20.5t23.5 57.5q0 33 -19.5 55.5t-74.5 57.5q-62 39 -85.5 68.5
t-23.5 69.5q0 31 13.5 53t34 38.5t41 32t34 34t13.5 44.5q0 38 -34.5 57t-87.5 19q-35 0 -64.5 -9.5t-47 -32.5t-17.5 -63v-574h-106v576q0 68 31 109.5t84 60.5t120 19q68 0 119.5 -17t81 -50.5t29.5 -83.5z" />
    <glyph glyph-name="agrave" unicode="&#xe0;" horiz-adv-x="574" 
d="M292 549q101 0 151.5 -44.5t50.5 -139.5v-365h-75l-21 75h-4q-35 -44 -73.5 -64.5t-106.5 -20.5q-73 0 -121 39.5t-48 123.5q0 83 62.5 125.5t190.5 46.5l92 3v30q0 59 -27 83.5t-76 24.5q-41 0 -79 -12t-73 -29l-34 77q38 20 87.5 33.5t103.5 13.5zM389 259l-72 -2
q-92 -4 -127.5 -31t-35.5 -74q0 -42 25 -61t65 -19q62 0 103.5 35t41.5 105v47zM261 766q12 -22 30 -49.5t37.5 -54t34.5 -44.5v-12h-71q-24 18 -54.5 46.5t-58 57t-41.5 46.5v10h123z" />
    <glyph glyph-name="aacute" unicode="&#xe1;" horiz-adv-x="574" 
d="M292 549q101 0 151.5 -44.5t50.5 -139.5v-365h-75l-21 75h-4q-35 -44 -73.5 -64.5t-106.5 -20.5q-73 0 -121 39.5t-48 123.5q0 83 62.5 125.5t190.5 46.5l92 3v30q0 59 -27 83.5t-76 24.5q-41 0 -79 -12t-73 -29l-34 77q38 20 87.5 33.5t103.5 13.5zM389 259l-72 -2
q-92 -4 -127.5 -31t-35.5 -74q0 -42 25 -61t65 -19q62 0 103.5 35t41.5 105v47zM443 766v-10q-15 -18 -42.5 -46.5t-58 -57t-54.5 -46.5h-70v12q15 18 34 44.5t36.5 54t30.5 49.5h124z" />
    <glyph glyph-name="acircumflex" unicode="&#xe2;" horiz-adv-x="574" 
d="M292 549q101 0 151.5 -44.5t50.5 -139.5v-365h-75l-21 75h-4q-35 -44 -73.5 -64.5t-106.5 -20.5q-73 0 -121 39.5t-48 123.5q0 83 62.5 125.5t190.5 46.5l92 3v30q0 59 -27 83.5t-76 24.5q-41 0 -79 -12t-73 -29l-34 77q38 20 87.5 33.5t103.5 13.5zM389 259l-72 -2
q-92 -4 -127.5 -31t-35.5 -74q0 -42 25 -61t65 -19q62 0 103.5 35t41.5 105v47zM345 766q13 -22 35.5 -49.5t46.5 -54t43 -44.5v-12h-73q-26 16 -55 39t-55 50q-27 -27 -54.5 -50t-53.5 -39h-72v12q18 19 42 45t46 53.5t36 49.5h114z" />
    <glyph glyph-name="atilde" unicode="&#xe3;" horiz-adv-x="574" 
d="M292 549q101 0 151.5 -44.5t50.5 -139.5v-365h-75l-21 75h-4q-35 -44 -73.5 -64.5t-106.5 -20.5q-73 0 -121 39.5t-48 123.5q0 83 62.5 125.5t190.5 46.5l92 3v30q0 59 -27 83.5t-76 24.5q-41 0 -79 -12t-73 -29l-34 77q38 20 87.5 33.5t103.5 13.5zM389 259l-72 -2
q-92 -4 -127.5 -31t-35.5 -74q0 -42 25 -61t65 -19q62 0 103.5 35t41.5 105v47zM98 606q6 64 37 99t80 35q29 0 55 -14t50 -27.5t46 -13.5q39 0 53 56h57q-6 -64 -36.5 -99t-79.5 -35q-28 0 -54 13.5t-50 27.5t-47 14q-41 0 -54 -56h-57z" />
    <glyph glyph-name="adieresis" unicode="&#xe4;" horiz-adv-x="574" 
d="M292 549q101 0 151.5 -44.5t50.5 -139.5v-365h-75l-21 75h-4q-35 -44 -73.5 -64.5t-106.5 -20.5q-73 0 -121 39.5t-48 123.5q0 83 62.5 125.5t190.5 46.5l92 3v30q0 59 -27 83.5t-76 24.5q-41 0 -79 -12t-73 -29l-34 77q38 20 87.5 33.5t103.5 13.5zM389 259l-72 -2
q-92 -4 -127.5 -31t-35.5 -74q0 -42 25 -61t65 -19q62 0 103.5 35t41.5 105v47zM138 682q0 29 15.5 41.5t37.5 12.5t38 -12.5t16 -41.5q0 -27 -16 -40.5t-38 -13.5t-37.5 13.5t-15.5 40.5zM329 682q0 29 15 41.5t38 12.5q21 0 37 -12.5t16 -41.5q0 -27 -16 -40.5t-37 -13.5
q-23 0 -38 13.5t-15 40.5z" />
    <glyph glyph-name="aring" unicode="&#xe5;" horiz-adv-x="574" 
d="M292 549q101 0 151.5 -44.5t50.5 -139.5v-365h-75l-21 75h-4q-35 -44 -73.5 -64.5t-106.5 -20.5q-73 0 -121 39.5t-48 123.5q0 83 62.5 125.5t190.5 46.5l92 3v30q0 59 -27 83.5t-76 24.5q-41 0 -79 -12t-73 -29l-34 77q38 20 87.5 33.5t103.5 13.5zM389 259l-72 -2
q-92 -4 -127.5 -31t-35.5 -74q0 -42 25 -61t65 -19q62 0 103.5 35t41.5 105v47zM289 606q-51 0 -82 28.5t-31 80.5q0 50 31 79t82 29q48 0 81 -28.5t33 -78.5q0 -52 -32.5 -81t-81.5 -29zM289 661q23 0 38 14.5t15 39.5t-15 39t-38 14t-38.5 -14t-15.5 -39q0 -54 54 -54z
" />
    <glyph glyph-name="ae" unicode="&#xe6;" horiz-adv-x="880" 
d="M614 549q66 0 115 -30t75.5 -84.5t26.5 -127.5v-60h-346q2 -86 40.5 -128.5t108.5 -42.5q50 0 90 9.5t81 28.5v-88q-41 -19 -80.5 -27.5t-94.5 -8.5q-68 0 -121 27.5t-85 81.5q-38 -52 -83 -80.5t-125 -28.5q-48 0 -87 17.5t-61.5 53.5t-22.5 92q0 165 241 172l91 3v36
q0 56 -28 79t-75 23q-39 0 -77 -12t-72 -28l-33 76q38 20 88 33.5t102 13.5q120 0 165 -80q28 38 69.5 59t97.5 21zM613 467q-55 0 -88 -36t-38 -106h237q0 63 -27.5 102.5t-83.5 39.5zM376 259l-69 -2q-86 -4 -119.5 -31t-33.5 -74q0 -42 23.5 -61t62.5 -19q58 0 97 35
t39 105v47z" />
    <glyph glyph-name="ccedilla" unicode="&#xe7;" horiz-adv-x="490" 
d="M300 -10q-112 0 -180 66.5t-68 209.5q0 100 33 162t91 91.5t132 29.5q45 0 84.5 -9t65.5 -22l-32 -86q-28 10 -59 18.5t-60 8.5q-146 0 -146 -192q0 -92 36 -140t106 -48q44 0 79 10t64 26v-92q-29 -17 -63 -25t-83 -8zM390 -134q0 -50 -36 -78t-113 -28q-17 0 -31.5 2
t-24.5 4v63q11 -2 27 -4t31 -2q29 0 45.5 8.5t16.5 31.5q0 24 -23.5 36.5t-64.5 17.5l42 83h68l-22 -46q35 -9 60 -29.5t25 -58.5z" />
    <glyph glyph-name="egrave" unicode="&#xe8;" horiz-adv-x="572" 
d="M295 549q106 0 167 -65.5t61 -178.5v-58h-362q2 -83 43.5 -127t116.5 -44q52 0 92.5 9.5t83.5 28.5v-88q-41 -19 -82 -27.5t-98 -8.5q-78 0 -138 31t-93.5 92t-33.5 152t30.5 154t85 96.5t127.5 33.5zM295 467q-57 0 -91.5 -37t-40.5 -105h254q-1 63 -30.5 102.5
t-91.5 39.5zM263 766q12 -22 30 -49.5t37.5 -54t34.5 -44.5v-12h-71q-24 18 -54.5 46.5t-58 57t-41.5 46.5v10h123z" />
    <glyph glyph-name="eacute" unicode="&#xe9;" horiz-adv-x="572" 
d="M295 549q106 0 167 -65.5t61 -178.5v-58h-362q2 -83 43.5 -127t116.5 -44q52 0 92.5 9.5t83.5 28.5v-88q-41 -19 -82 -27.5t-98 -8.5q-78 0 -138 31t-93.5 92t-33.5 152t30.5 154t85 96.5t127.5 33.5zM295 467q-57 0 -91.5 -37t-40.5 -105h254q-1 63 -30.5 102.5
t-91.5 39.5zM444 766v-10q-15 -18 -42.5 -46.5t-58 -57t-54.5 -46.5h-70v12q15 18 34 44.5t36.5 54t30.5 49.5h124z" />
    <glyph glyph-name="ecircumflex" unicode="&#xea;" horiz-adv-x="572" 
d="M295 549q106 0 167 -65.5t61 -178.5v-58h-362q2 -83 43.5 -127t116.5 -44q52 0 92.5 9.5t83.5 28.5v-88q-41 -19 -82 -27.5t-98 -8.5q-78 0 -138 31t-93.5 92t-33.5 152t30.5 154t85 96.5t127.5 33.5zM295 467q-57 0 -91.5 -37t-40.5 -105h254q-1 63 -30.5 102.5
t-91.5 39.5zM346 766q13 -22 35.5 -49.5t46.5 -54t43 -44.5v-12h-73q-26 16 -55 39t-55 50q-27 -27 -54.5 -50t-53.5 -39h-72v12q18 19 42 45t46 53.5t36 49.5h114z" />
    <glyph glyph-name="edieresis" unicode="&#xeb;" horiz-adv-x="572" 
d="M295 549q106 0 167 -65.5t61 -178.5v-58h-362q2 -83 43.5 -127t116.5 -44q52 0 92.5 9.5t83.5 28.5v-88q-41 -19 -82 -27.5t-98 -8.5q-78 0 -138 31t-93.5 92t-33.5 152t30.5 154t85 96.5t127.5 33.5zM295 467q-57 0 -91.5 -37t-40.5 -105h254q-1 63 -30.5 102.5
t-91.5 39.5zM139 682q0 29 15.5 41.5t37.5 12.5t38 -12.5t16 -41.5q0 -27 -16 -40.5t-38 -13.5t-37.5 13.5t-15.5 40.5zM330 682q0 29 15 41.5t38 12.5q21 0 37 -12.5t16 -41.5q0 -27 -16 -40.5t-37 -13.5q-23 0 -38 13.5t-15 40.5z" />
    <glyph glyph-name="igrave" unicode="&#xec;" horiz-adv-x="272" 
d="M189 0h-106v539h106v-539zM110 766q12 -22 30 -49.5t37.5 -54t34.5 -44.5v-12h-71q-24 18 -54.5 46.5t-58 57t-41.5 46.5v10h123z" />
    <glyph glyph-name="iacute" unicode="&#xed;" horiz-adv-x="272" 
d="M189 0h-106v539h106v-539zM292 766v-10q-15 -18 -42.5 -46.5t-58 -57t-54.5 -46.5h-70v12q15 18 34 44.5t36.5 54t30.5 49.5h124z" />
    <glyph glyph-name="icircumflex" unicode="&#xee;" horiz-adv-x="272" 
d="M189 0h-106v539h106v-539zM194 766q13 -22 35.5 -49.5t46.5 -54t43 -44.5v-12h-73q-26 16 -55 39t-55 50q-27 -27 -54.5 -50t-53.5 -39h-72v12q18 19 42 45t46 53.5t36 49.5h114z" />
    <glyph glyph-name="idieresis" unicode="&#xef;" horiz-adv-x="272" 
d="M189 0h-106v539h106v-539zM-13 682q0 29 15.5 41.5t37.5 12.5t38 -12.5t16 -41.5q0 -27 -16 -40.5t-38 -13.5t-37.5 13.5t-15.5 40.5zM178 682q0 29 15 41.5t38 12.5q21 0 37 -12.5t16 -41.5q0 -27 -16 -40.5t-37 -13.5q-23 0 -38 13.5t-15 40.5z" />
    <glyph glyph-name="eth" unicode="&#xf0;" horiz-adv-x="609" 
d="M218 765q33 -15 65.5 -33t60.5 -38l114 67l41 -60l-94 -55q70 -64 111.5 -156.5t41.5 -213.5q0 -141 -68.5 -213.5t-186.5 -72.5q-73 0 -130 29.5t-89 84t-32 131.5q0 113 64 177.5t171 64.5q105 0 150 -55l4 2q-17 52 -47 95.5t-69 78.5l-124 -73l-42 61l105 61
q-40 27 -85 50zM305 394q-77 0 -111 -41t-34 -121q0 -70 34 -114.5t111 -44.5q76 0 110.5 46.5t34.5 134.5q0 57 -35.5 98.5t-109.5 41.5z" />
    <glyph glyph-name="ntilde" unicode="&#xf1;" horiz-adv-x="630" 
d="M356 549q94 0 144 -47t50 -151v-351h-105v336q0 126 -111 126q-82 0 -113.5 -49t-31.5 -141v-272h-106v539h84l15 -72h6q26 42 71.5 62t96.5 20zM125 606q6 64 37 99t80 35q29 0 55 -14t50 -27.5t46 -13.5q39 0 53 56h57q-6 -64 -36.5 -99t-79.5 -35q-28 0 -54 13.5
t-50 27.5t-47 14q-41 0 -54 -56h-57z" />
    <glyph glyph-name="ograve" unicode="&#xf2;" horiz-adv-x="609" 
d="M558 270q0 -134 -69 -207t-186 -73q-73 0 -129.5 32.5t-89 95t-32.5 152.5q0 134 68 206.5t186 72.5q74 0 130.5 -32.5t89 -94.5t32.5 -152zM161 270q0 -91 34.5 -142t109.5 -51t109.5 51t34.5 142q0 92 -34.5 141.5t-110.5 49.5q-75 0 -109 -49.5t-34 -141.5zM279 766
q12 -22 30 -49.5t37.5 -54t34.5 -44.5v-12h-71q-24 18 -54.5 46.5t-58 57t-41.5 46.5v10h123z" />
    <glyph glyph-name="oacute" unicode="&#xf3;" horiz-adv-x="609" 
d="M558 270q0 -134 -69 -207t-186 -73q-73 0 -129.5 32.5t-89 95t-32.5 152.5q0 134 68 206.5t186 72.5q74 0 130.5 -32.5t89 -94.5t32.5 -152zM161 270q0 -91 34.5 -142t109.5 -51t109.5 51t34.5 142q0 92 -34.5 141.5t-110.5 49.5q-75 0 -109 -49.5t-34 -141.5zM461 766
v-10q-15 -18 -42.5 -46.5t-58 -57t-54.5 -46.5h-70v12q15 18 34 44.5t36.5 54t30.5 49.5h124z" />
    <glyph glyph-name="ocircumflex" unicode="&#xf4;" horiz-adv-x="609" 
d="M558 270q0 -134 -69 -207t-186 -73q-73 0 -129.5 32.5t-89 95t-32.5 152.5q0 134 68 206.5t186 72.5q74 0 130.5 -32.5t89 -94.5t32.5 -152zM161 270q0 -91 34.5 -142t109.5 -51t109.5 51t34.5 142q0 92 -34.5 141.5t-110.5 49.5q-75 0 -109 -49.5t-34 -141.5zM363 766
q13 -22 35.5 -49.5t46.5 -54t43 -44.5v-12h-73q-26 16 -55 39t-55 50q-27 -27 -54.5 -50t-53.5 -39h-72v12q18 19 42 45t46 53.5t36 49.5h114z" />
    <glyph glyph-name="otilde" unicode="&#xf5;" horiz-adv-x="609" 
d="M558 270q0 -134 -69 -207t-186 -73q-73 0 -129.5 32.5t-89 95t-32.5 152.5q0 134 68 206.5t186 72.5q74 0 130.5 -32.5t89 -94.5t32.5 -152zM161 270q0 -91 34.5 -142t109.5 -51t109.5 51t34.5 142q0 92 -34.5 141.5t-110.5 49.5q-75 0 -109 -49.5t-34 -141.5zM115 606
q6 64 37 99t80 35q29 0 55 -14t50 -27.5t46 -13.5q39 0 53 56h57q-6 -64 -36.5 -99t-79.5 -35q-28 0 -54 13.5t-50 27.5t-47 14q-41 0 -54 -56h-57z" />
    <glyph glyph-name="odieresis" unicode="&#xf6;" horiz-adv-x="609" 
d="M558 270q0 -134 -69 -207t-186 -73q-73 0 -129.5 32.5t-89 95t-32.5 152.5q0 134 68 206.5t186 72.5q74 0 130.5 -32.5t89 -94.5t32.5 -152zM161 270q0 -91 34.5 -142t109.5 -51t109.5 51t34.5 142q0 92 -34.5 141.5t-110.5 49.5q-75 0 -109 -49.5t-34 -141.5zM156 682
q0 29 15.5 41.5t37.5 12.5t38 -12.5t16 -41.5q0 -27 -16 -40.5t-38 -13.5t-37.5 13.5t-15.5 40.5zM347 682q0 29 15 41.5t38 12.5q21 0 37 -12.5t16 -41.5q0 -27 -16 -40.5t-37 -13.5q-23 0 -38 13.5t-15 40.5z" />
    <glyph glyph-name="divide" unicode="&#xf7;" horiz-adv-x="572" 
d="M285 458q-25 0 -42.5 15t-17.5 50q0 36 17.5 50t42.5 14q24 0 41.5 -14t17.5 -50q0 -35 -17.5 -50t-41.5 -15zM48 312v81h475v-81h-475zM285 117q-25 0 -42.5 15.5t-17.5 49.5q0 36 17.5 50t42.5 14q24 0 41.5 -14t17.5 -50q0 -34 -17.5 -49.5t-41.5 -15.5z" />
    <glyph glyph-name="oslash" unicode="&#xf8;" horiz-adv-x="609" 
d="M558 270q0 -134 -69 -207t-186 -73q-69 0 -125 30l-37 -54l-63 42l41 59q-32 36 -49.5 87t-17.5 116q0 134 68 206.5t186 72.5q36 0 68 -8.5t60 -24.5l36 51l63 -42l-40 -56q30 -36 47.5 -85.5t17.5 -113.5zM161 270q0 -34 4.5 -63t15.5 -51l200 285q-31 20 -77 20
q-75 0 -109 -49.5t-34 -141.5zM449 270q0 64 -18 108l-200 -283q30 -18 74 -18q75 0 109.5 51t34.5 142z" />
    <glyph glyph-name="ugrave" unicode="&#xf9;" horiz-adv-x="630" 
d="M547 539v-539h-85l-15 71h-5q-26 -42 -72 -61.5t-97 -19.5q-95 0 -145 46.5t-50 149.5v353h107v-337q0 -63 26.5 -94t82.5 -31q83 0 115 48.5t32 140.5v273h106zM289 766q12 -22 30 -49.5t37.5 -54t34.5 -44.5v-12h-71q-24 18 -54.5 46.5t-58 57t-41.5 46.5v10h123z" />
    <glyph glyph-name="uacute" unicode="&#xfa;" horiz-adv-x="630" 
d="M547 539v-539h-85l-15 71h-5q-26 -42 -72 -61.5t-97 -19.5q-95 0 -145 46.5t-50 149.5v353h107v-337q0 -63 26.5 -94t82.5 -31q83 0 115 48.5t32 140.5v273h106zM471 766v-10q-15 -18 -42.5 -46.5t-58 -57t-54.5 -46.5h-70v12q15 18 34 44.5t36.5 54t30.5 49.5h124z" />
    <glyph glyph-name="ucircumflex" unicode="&#xfb;" horiz-adv-x="630" 
d="M547 539v-539h-85l-15 71h-5q-26 -42 -72 -61.5t-97 -19.5q-95 0 -145 46.5t-50 149.5v353h107v-337q0 -63 26.5 -94t82.5 -31q83 0 115 48.5t32 140.5v273h106zM373 766q13 -22 35.5 -49.5t46.5 -54t43 -44.5v-12h-73q-26 16 -55 39t-55 50q-27 -27 -54.5 -50t-53.5 -39
h-72v12q18 19 42 45t46 53.5t36 49.5h114z" />
    <glyph glyph-name="udieresis" unicode="&#xfc;" horiz-adv-x="630" 
d="M547 539v-539h-85l-15 71h-5q-26 -42 -72 -61.5t-97 -19.5q-95 0 -145 46.5t-50 149.5v353h107v-337q0 -63 26.5 -94t82.5 -31q83 0 115 48.5t32 140.5v273h106zM166 682q0 29 15.5 41.5t37.5 12.5t38 -12.5t16 -41.5q0 -27 -16 -40.5t-38 -13.5t-37.5 13.5t-15.5 40.5z
M357 682q0 29 15 41.5t38 12.5q21 0 37 -12.5t16 -41.5q0 -27 -16 -40.5t-37 -13.5q-23 0 -38 13.5t-15 40.5z" />
    <glyph glyph-name="yacute" unicode="&#xfd;" horiz-adv-x="527" 
d="M1 539h114l112 -306q13 -35 23 -67t14 -64h4q5 26 15.5 61t23.5 71l106 305h114l-231 -612q-29 -78 -77.5 -122.5t-126.5 -44.5q-25 0 -43 2.5t-31 5.5v84q10 -2 26 -4t33 -2q46 0 74 26.5t44 69.5l22 58zM420 766v-10q-15 -18 -42.5 -46.5t-58 -57t-54.5 -46.5h-70v12
q15 18 34 44.5t36.5 54t30.5 49.5h124z" />
    <glyph glyph-name="thorn" unicode="&#xfe;" horiz-adv-x="620" 
d="M568 270q0 -137 -59 -208.5t-157 -71.5q-62 0 -101 22t-62 53h-6q1 -13 3.5 -39.5t2.5 -42.5v-223h-106v1000h106v-214q0 -17 -1.5 -41.5t-2.5 -37.5h5q22 34 61 58t101 24q97 0 156.5 -71t59.5 -208zM459 272q0 95 -31.5 142.5t-99.5 47.5q-76 0 -107 -43t-32 -130v-18
q0 -94 30 -144t110 -50q67 0 98.5 50.5t31.5 144.5z" />
    <glyph glyph-name="ydieresis" unicode="&#xff;" horiz-adv-x="527" 
d="M1 539h114l112 -306q13 -35 23 -67t14 -64h4q5 26 15.5 61t23.5 71l106 305h114l-231 -612q-29 -78 -77.5 -122.5t-126.5 -44.5q-25 0 -43 2.5t-31 5.5v84q10 -2 26 -4t33 -2q46 0 74 26.5t44 69.5l22 58zM115 682q0 29 15.5 41.5t37.5 12.5t38 -12.5t16 -41.5
q0 -27 -16 -40.5t-38 -13.5t-37.5 13.5t-15.5 40.5zM306 682q0 29 15 41.5t38 12.5q21 0 37 -12.5t16 -41.5q0 -27 -16 -40.5t-37 -13.5q-23 0 -38 13.5t-15 40.5z" />
    <glyph glyph-name="Amacron" unicode="&#x100;" horiz-adv-x="654" 
d="M540 0l-76 206h-276l-76 -206h-112l271 717h112l270 -717h-113zM434 300l-72 201q-4 11 -11 33t-14 46t-11 39q-8 -31 -18 -66t-16 -52l-72 -201h214zM479 861v-80h-307v80h307z" />
    <glyph glyph-name="amacron" unicode="&#x101;" horiz-adv-x="574" 
d="M292 549q101 0 151.5 -44.5t50.5 -139.5v-365h-75l-21 75h-4q-35 -44 -73.5 -64.5t-106.5 -20.5q-73 0 -121 39.5t-48 123.5q0 83 62.5 125.5t190.5 46.5l92 3v30q0 59 -27 83.5t-76 24.5q-41 0 -79 -12t-73 -29l-34 77q38 20 87.5 33.5t103.5 13.5zM389 259l-72 -2
q-92 -4 -127.5 -31t-35.5 -74q0 -42 25 -61t65 -19q62 0 103.5 35t41.5 105v47zM440 686v-80h-307v80h307z" />
    <glyph glyph-name="Abreve" unicode="&#x102;" horiz-adv-x="654" 
d="M540 0l-76 206h-276l-76 -206h-112l271 717h112l270 -717h-113zM434 300l-72 201q-4 11 -11 33t-14 46t-11 39q-8 -31 -18 -66t-16 -52l-72 -201h214zM497 924q-5 -64 -49.5 -103.5t-119.5 -39.5q-78 0 -119 39t-45 104h63q4 -41 31 -51.5t72 -10.5q38 0 68 11.5t35 50.5
h64z" />
    <glyph glyph-name="abreve" unicode="&#x103;" horiz-adv-x="574" 
d="M292 549q101 0 151.5 -44.5t50.5 -139.5v-365h-75l-21 75h-4q-35 -44 -73.5 -64.5t-106.5 -20.5q-73 0 -121 39.5t-48 123.5q0 83 62.5 125.5t190.5 46.5l92 3v30q0 59 -27 83.5t-76 24.5q-41 0 -79 -12t-73 -29l-34 77q38 20 87.5 33.5t103.5 13.5zM389 259l-72 -2
q-92 -4 -127.5 -31t-35.5 -74q0 -42 25 -61t65 -19q62 0 103.5 35t41.5 105v47zM458 749q-5 -64 -49.5 -103.5t-119.5 -39.5q-78 0 -119 39t-45 104h63q4 -41 31 -51.5t72 -10.5q38 0 68 11.5t35 50.5h64z" />
    <glyph glyph-name="Aogonek" unicode="&#x104;" horiz-adv-x="654" 
d="M540 0l-76 206h-276l-76 -206h-112l271 717h112l270 -717h-113zM434 300l-72 201q-4 11 -11 33t-14 46t-11 39q-8 -31 -18 -66t-16 -52l-72 -201h214zM554 -115q0 -22 11.5 -32.5t31.5 -10.5q16 0 29 2.5t22 4.5v-65q-15 -4 -30.5 -7t-35.5 -3q-55 0 -82 26.5t-27 72.5
q0 29 14.5 56t37 49.5t45.5 37.5l53 -16q-34 -32 -51.5 -59t-17.5 -56z" />
    <glyph glyph-name="aogonek" unicode="&#x105;" horiz-adv-x="574" 
d="M292 549q101 0 151.5 -44.5t50.5 -139.5v-365h-75l-21 75h-4q-35 -44 -73.5 -64.5t-106.5 -20.5q-73 0 -121 39.5t-48 123.5q0 83 62.5 125.5t190.5 46.5l92 3v30q0 59 -27 83.5t-76 24.5q-41 0 -79 -12t-73 -29l-34 77q38 20 87.5 33.5t103.5 13.5zM389 259l-72 -2
q-92 -4 -127.5 -31t-35.5 -74q0 -42 25 -61t65 -19q62 0 103.5 35t41.5 105v47zM422 -115q0 -22 11.5 -32.5t31.5 -10.5q16 0 29 2.5t22 4.5v-65q-15 -4 -30.5 -7t-35.5 -3q-55 0 -82 26.5t-27 72.5q0 29 14.5 56t37 49.5t45.5 37.5l53 -16q-34 -32 -51.5 -59t-17.5 -56z
" />
    <glyph glyph-name="Cacute" unicode="&#x106;" horiz-adv-x="633" 
d="M400 631q-106 0 -166.5 -73.5t-60.5 -201.5q0 -127 56 -200t170 -73q46 0 88.5 8.5t86.5 22.5v-93q-42 -16 -86 -23.5t-102 -7.5q-110 0 -182.5 45.5t-108 128t-35.5 193.5q0 108 39.5 190.5t115.5 129.5t186 47q54 0 105.5 -11.5t94.5 -32.5l-40 -90q-35 16 -75 28.5
t-86 12.5zM535 941v-10q-15 -18 -42.5 -46.5t-58 -57t-54.5 -46.5h-70v12q15 18 34 44.5t36.5 54t30.5 49.5h124z" />
    <glyph glyph-name="cacute" unicode="&#x107;" horiz-adv-x="490" 
d="M300 -10q-112 0 -180 66.5t-68 209.5q0 100 33 162t91 91.5t132 29.5q45 0 84.5 -9t65.5 -22l-32 -86q-28 10 -59 18.5t-60 8.5q-146 0 -146 -192q0 -92 36 -140t106 -48q44 0 79 10t64 26v-92q-29 -17 -63 -25t-83 -8zM441 766v-10q-15 -18 -42.5 -46.5t-58 -57
t-54.5 -46.5h-70v12q15 18 34 44.5t36.5 54t30.5 49.5h124z" />
    <glyph glyph-name="Ccircumflex" unicode="&#x108;" horiz-adv-x="633" 
d="M400 631q-106 0 -166.5 -73.5t-60.5 -201.5q0 -127 56 -200t170 -73q46 0 88.5 8.5t86.5 22.5v-93q-42 -16 -86 -23.5t-102 -7.5q-110 0 -182.5 45.5t-108 128t-35.5 193.5q0 108 39.5 190.5t115.5 129.5t186 47q54 0 105.5 -11.5t94.5 -32.5l-40 -90q-35 16 -75 28.5
t-86 12.5zM437 941q13 -22 35.5 -49.5t46.5 -54t43 -44.5v-12h-73q-26 16 -55 39t-55 50q-27 -27 -54.5 -50t-53.5 -39h-72v12q18 19 42 45t46 53.5t36 49.5h114z" />
    <glyph glyph-name="ccircumflex" unicode="&#x109;" horiz-adv-x="490" 
d="M300 -10q-112 0 -180 66.5t-68 209.5q0 100 33 162t91 91.5t132 29.5q45 0 84.5 -9t65.5 -22l-32 -86q-28 10 -59 18.5t-60 8.5q-146 0 -146 -192q0 -92 36 -140t106 -48q44 0 79 10t64 26v-92q-29 -17 -63 -25t-83 -8zM343 766q13 -22 35.5 -49.5t46.5 -54t43 -44.5v-12
h-73q-26 16 -55 39t-55 50q-27 -27 -54.5 -50t-53.5 -39h-72v12q18 19 42 45t46 53.5t36 49.5h114z" />
    <glyph glyph-name="Cdot" unicode="&#x10a;" horiz-adv-x="633" 
d="M400 631q-106 0 -166.5 -73.5t-60.5 -201.5q0 -127 56 -200t170 -73q46 0 88.5 8.5t86.5 22.5v-93q-42 -16 -86 -23.5t-102 -7.5q-110 0 -182.5 45.5t-108 128t-35.5 193.5q0 108 39.5 190.5t115.5 129.5t186 47q54 0 105.5 -11.5t94.5 -32.5l-40 -90q-35 16 -75 28.5
t-86 12.5zM382 919q24 0 41.5 -14t17.5 -47q0 -32 -17.5 -46.5t-41.5 -14.5q-25 0 -43 14.5t-18 46.5q0 33 18 47t43 14z" />
    <glyph glyph-name="cdot" unicode="&#x10b;" horiz-adv-x="490" 
d="M300 -10q-112 0 -180 66.5t-68 209.5q0 100 33 162t91 91.5t132 29.5q45 0 84.5 -9t65.5 -22l-32 -86q-28 10 -59 18.5t-60 8.5q-146 0 -146 -192q0 -92 36 -140t106 -48q44 0 79 10t64 26v-92q-29 -17 -63 -25t-83 -8zM288 744q24 0 41.5 -14t17.5 -47
q0 -32 -17.5 -46.5t-41.5 -14.5q-25 0 -43 14.5t-18 46.5q0 33 18 47t43 14z" />
    <glyph glyph-name="Ccaron" unicode="&#x10c;" horiz-adv-x="633" 
d="M400 631q-106 0 -166.5 -73.5t-60.5 -201.5q0 -127 56 -200t170 -73q46 0 88.5 8.5t86.5 22.5v-93q-42 -16 -86 -23.5t-102 -7.5q-110 0 -182.5 45.5t-108 128t-35.5 193.5q0 108 39.5 190.5t115.5 129.5t186 47q54 0 105.5 -11.5t94.5 -32.5l-40 -90q-35 16 -75 28.5
t-86 12.5zM322 781q-14 22 -36 49t-46 53t-42 45v13h72q26 -17 54 -40t54 -50q26 27 55 50.5t55 39.5h73v-13q-19 -19 -43 -44.5t-46.5 -53t-35.5 -49.5h-114z" />
    <glyph glyph-name="ccaron" unicode="&#x10d;" horiz-adv-x="490" 
d="M300 -10q-112 0 -180 66.5t-68 209.5q0 100 33 162t91 91.5t132 29.5q45 0 84.5 -9t65.5 -22l-32 -86q-28 10 -59 18.5t-60 8.5q-146 0 -146 -192q0 -92 36 -140t106 -48q44 0 79 10t64 26v-92q-29 -17 -63 -25t-83 -8zM228 606q-14 22 -36 49t-46 53t-42 45v13h72
q26 -17 54 -40t54 -50q26 27 55 50.5t55 39.5h73v-13q-19 -19 -43 -44.5t-46.5 -53t-35.5 -49.5h-114z" />
    <glyph glyph-name="Dcaron" unicode="&#x10e;" horiz-adv-x="733" 
d="M673 364q0 -181 -99.5 -272.5t-278.5 -91.5h-200v714h221q109 0 189 -40t124 -118t44 -192zM560 361q0 135 -65 198.5t-186 63.5h-106v-532h87q270 0 270 270zM307 781q-14 22 -36 49t-46 53t-42 45v13h72q26 -17 54 -40t54 -50q26 27 55 50.5t55 39.5h73v-13
q-19 -19 -43 -44.5t-46.5 -53t-35.5 -49.5h-114z" />
    <glyph glyph-name="dcaron" unicode="&#x10f;" horiz-adv-x="620" 
d="M268 -10q-98 0 -157 70t-59 208q0 139 60 210t158 71q61 0 100 -23t63 -56h6q-2 14 -5 41t-3 47v202h106v-760h-83l-18 72h-5q-23 -34 -62 -58t-101 -24zM293 77q78 0 109.5 43t32.5 131v16q0 95 -30.5 145t-112.5 50q-65 0 -98 -52t-33 -144q0 -91 33 -140t99 -49z
M709 760v-9q-10 -29 -31 -72.5t-44 -78.5h-60v12q10 29 19.5 72.5t13.5 75.5h102z" />
    <glyph glyph-name="Dcroat" unicode="&#x110;" horiz-adv-x="733" 
d="M316 714q108 0 188.5 -40t124.5 -118t44 -192q0 -181 -100 -272.5t-279 -91.5h-194v307h-72v92h72v315h216zM309 623h-101v-224h160v-92h-160v-216h82q270 0 270 270q0 135 -66 198.5t-185 63.5z" />
    <glyph glyph-name="dcroat" unicode="&#x111;" horiz-adv-x="626" 
d="M268 -10q-98 0 -157 69t-59 204q0 138 60 206.5t157 68.5q61 0 100.5 -23t63.5 -56h6q-1 6 -3 22t-3.5 34.5t-1.5 32.5v51h-195v75h195v86h106v-86h76v-75h-76v-599h-84l-18 72h-4q-23 -34 -62 -58t-101 -24zM294 77q77 0 108.5 42t32.5 127v16q0 92 -30.5 140.5
t-112.5 48.5q-65 0 -98 -50.5t-33 -139.5t33 -136.5t100 -47.5z" />
    <glyph glyph-name="Emacron" unicode="&#x112;" horiz-adv-x="557" 
d="M497 0h-402v714h402v-92h-294v-204h276v-91h-276v-234h294v-93zM457 861v-80h-307v80h307z" />
    <glyph glyph-name="emacron" unicode="&#x113;" horiz-adv-x="572" 
d="M295 549q106 0 167 -65.5t61 -178.5v-58h-362q2 -83 43.5 -127t116.5 -44q52 0 92.5 9.5t83.5 28.5v-88q-41 -19 -82 -27.5t-98 -8.5q-78 0 -138 31t-93.5 92t-33.5 152t30.5 154t85 96.5t127.5 33.5zM295 467q-57 0 -91.5 -37t-40.5 -105h254q-1 63 -30.5 102.5
t-91.5 39.5zM442 686v-80h-307v80h307z" />
    <glyph glyph-name="Ebreve" unicode="&#x114;" horiz-adv-x="557" 
d="M497 0h-402v714h402v-92h-294v-204h276v-91h-276v-234h294v-93zM475 924q-5 -64 -49.5 -103.5t-119.5 -39.5q-78 0 -119 39t-45 104h63q4 -41 31 -51.5t72 -10.5q38 0 68 11.5t35 50.5h64z" />
    <glyph glyph-name="ebreve" unicode="&#x115;" horiz-adv-x="572" 
d="M295 549q106 0 167 -65.5t61 -178.5v-58h-362q2 -83 43.5 -127t116.5 -44q52 0 92.5 9.5t83.5 28.5v-88q-41 -19 -82 -27.5t-98 -8.5q-78 0 -138 31t-93.5 92t-33.5 152t30.5 154t85 96.5t127.5 33.5zM295 467q-57 0 -91.5 -37t-40.5 -105h254q-1 63 -30.5 102.5
t-91.5 39.5zM459 749q-5 -64 -49.5 -103.5t-119.5 -39.5q-78 0 -119 39t-45 104h63q4 -41 31 -51.5t72 -10.5q38 0 68 11.5t35 50.5h64z" />
    <glyph glyph-name="Edotaccent" unicode="&#x116;" horiz-adv-x="557" 
d="M497 0h-402v714h402v-92h-294v-204h276v-91h-276v-234h294v-93zM307 919q24 0 41.5 -14t17.5 -47q0 -32 -17.5 -46.5t-41.5 -14.5q-25 0 -43 14.5t-18 46.5q0 33 18 47t43 14z" />
    <glyph glyph-name="edotaccent" unicode="&#x117;" horiz-adv-x="572" 
d="M295 549q106 0 167 -65.5t61 -178.5v-58h-362q2 -83 43.5 -127t116.5 -44q52 0 92.5 9.5t83.5 28.5v-88q-41 -19 -82 -27.5t-98 -8.5q-78 0 -138 31t-93.5 92t-33.5 152t30.5 154t85 96.5t127.5 33.5zM295 467q-57 0 -91.5 -37t-40.5 -105h254q-1 63 -30.5 102.5
t-91.5 39.5zM291 744q24 0 41.5 -14t17.5 -47q0 -32 -17.5 -46.5t-41.5 -14.5q-25 0 -43 14.5t-18 46.5q0 33 18 47t43 14z" />
    <glyph glyph-name="Eogonek" unicode="&#x118;" horiz-adv-x="557" 
d="M497 0h-402v714h402v-92h-294v-204h276v-91h-276v-234h294v-93zM400 -115q0 -22 11.5 -32.5t31.5 -10.5q16 0 29 2.5t22 4.5v-65q-15 -4 -30.5 -7t-35.5 -3q-55 0 -82 26.5t-27 72.5q0 29 14.5 56t37 49.5t45.5 37.5l53 -16q-34 -32 -51.5 -59t-17.5 -56z" />
    <glyph glyph-name="eogonek" unicode="&#x119;" horiz-adv-x="572" 
d="M396 -115q0 -22 12 -32.5t31 -10.5q17 0 29.5 2.5t21.5 4.5v-65q-15 -4 -30.5 -7t-35.5 -3q-55 0 -82 26.5t-27 72.5q0 34 20 65.5t47 54.5q-29 -3 -65 -3q-78 0 -138 31t-93.5 92t-33.5 152t30.5 154t85 96.5t127.5 33.5q106 0 167 -65.5t61 -178.5v-58h-362
q2 -83 43.5 -127t116.5 -44q52 0 92.5 9.5t83.5 28.5v-88q-60 -50 -80.5 -81t-20.5 -60zM295 467q-57 0 -91.5 -37t-40.5 -105h254q-1 63 -30.5 102.5t-91.5 39.5z" />
    <glyph glyph-name="Ecaron" unicode="&#x11a;" horiz-adv-x="557" 
d="M497 0h-402v714h402v-92h-294v-204h276v-91h-276v-234h294v-93zM247 781q-14 22 -36 49t-46 53t-42 45v13h72q26 -17 54 -40t54 -50q26 27 55 50.5t55 39.5h73v-13q-19 -19 -43 -44.5t-46.5 -53t-35.5 -49.5h-114z" />
    <glyph glyph-name="ecaron" unicode="&#x11b;" horiz-adv-x="572" 
d="M295 549q106 0 167 -65.5t61 -178.5v-58h-362q2 -83 43.5 -127t116.5 -44q52 0 92.5 9.5t83.5 28.5v-88q-41 -19 -82 -27.5t-98 -8.5q-78 0 -138 31t-93.5 92t-33.5 152t30.5 154t85 96.5t127.5 33.5zM295 467q-57 0 -91.5 -37t-40.5 -105h254q-1 63 -30.5 102.5
t-91.5 39.5zM231 606q-14 22 -36 49t-46 53t-42 45v13h72q26 -17 54 -40t54 -50q26 27 55 50.5t55 39.5h73v-13q-19 -19 -43 -44.5t-46.5 -53t-35.5 -49.5h-114z" />
    <glyph glyph-name="Gcircumflex" unicode="&#x11c;" horiz-adv-x="727" 
d="M393 384h258v-356q-57 -19 -116.5 -28.5t-135.5 -9.5q-164 0 -251.5 97t-87.5 270q0 112 43.5 194.5t126.5 127.5t201 45q59 0 113 -12t100 -31l-39 -90q-37 17 -83 28.5t-95 11.5q-79 0 -136.5 -33.5t-88 -95.5t-30.5 -146q0 -80 25 -142t79 -97t141 -35q43 0 72.5 4.5
t54.5 10.5v194h-151v93zM462 941q13 -22 35.5 -49.5t46.5 -54t43 -44.5v-12h-73q-26 16 -55 39t-55 50q-27 -27 -54.5 -50t-53.5 -39h-72v12q18 19 42 45t46 53.5t36 49.5h114z" />
    <glyph glyph-name="gcircumflex" unicode="&#x11d;" horiz-adv-x="620" 
d="M269 549q52 0 94 -20t71 -61h5l12 71h86v-546q0 -233 -249 -233q-58 0 -107 8t-90 25v93q42 -21 93.5 -31.5t109.5 -10.5q65 0 101.5 37.5t36.5 105.5v18q0 13 1 34t2 32h-4q-28 -42 -68.5 -61.5t-93.5 -19.5q-102 0 -159.5 73.5t-57.5 204.5q0 130 57.5 205.5
t159.5 75.5zM291 461q-63 0 -96.5 -49.5t-33.5 -144.5q0 -94 33.5 -143t98.5 -49q74 0 108.5 40.5t34.5 132.5v20q0 104 -35 148.5t-110 44.5zM360 766q13 -22 35.5 -49.5t46.5 -54t43 -44.5v-12h-73q-26 16 -55 39t-55 50q-27 -27 -54.5 -50t-53.5 -39h-72v12q18 19 42 45
t46 53.5t36 49.5h114z" />
    <glyph glyph-name="Gbreve" unicode="&#x11e;" horiz-adv-x="727" 
d="M393 384h258v-356q-57 -19 -116.5 -28.5t-135.5 -9.5q-164 0 -251.5 97t-87.5 270q0 112 43.5 194.5t126.5 127.5t201 45q59 0 113 -12t100 -31l-39 -90q-37 17 -83 28.5t-95 11.5q-79 0 -136.5 -33.5t-88 -95.5t-30.5 -146q0 -80 25 -142t79 -97t141 -35q43 0 72.5 4.5
t54.5 10.5v194h-151v93zM574 924q-5 -64 -49.5 -103.5t-119.5 -39.5q-78 0 -119 39t-45 104h63q4 -41 31 -51.5t72 -10.5q38 0 68 11.5t35 50.5h64z" />
    <glyph glyph-name="gbreve" unicode="&#x11f;" horiz-adv-x="620" 
d="M269 549q52 0 94 -20t71 -61h5l12 71h86v-546q0 -233 -249 -233q-58 0 -107 8t-90 25v93q42 -21 93.5 -31.5t109.5 -10.5q65 0 101.5 37.5t36.5 105.5v18q0 13 1 34t2 32h-4q-28 -42 -68.5 -61.5t-93.5 -19.5q-102 0 -159.5 73.5t-57.5 204.5q0 130 57.5 205.5
t159.5 75.5zM291 461q-63 0 -96.5 -49.5t-33.5 -144.5q0 -94 33.5 -143t98.5 -49q74 0 108.5 40.5t34.5 132.5v20q0 104 -35 148.5t-110 44.5zM473 749q-5 -64 -49.5 -103.5t-119.5 -39.5q-78 0 -119 39t-45 104h63q4 -41 31 -51.5t72 -10.5q38 0 68 11.5t35 50.5h64z" />
    <glyph glyph-name="Gdot" unicode="&#x120;" horiz-adv-x="727" 
d="M393 384h258v-356q-57 -19 -116.5 -28.5t-135.5 -9.5q-164 0 -251.5 97t-87.5 270q0 112 43.5 194.5t126.5 127.5t201 45q59 0 113 -12t100 -31l-39 -90q-37 17 -83 28.5t-95 11.5q-79 0 -136.5 -33.5t-88 -95.5t-30.5 -146q0 -80 25 -142t79 -97t141 -35q43 0 72.5 4.5
t54.5 10.5v194h-151v93zM407 919q24 0 41.5 -14t17.5 -47q0 -32 -17.5 -46.5t-41.5 -14.5q-25 0 -43 14.5t-18 46.5q0 33 18 47t43 14z" />
    <glyph glyph-name="gdot" unicode="&#x121;" horiz-adv-x="620" 
d="M269 549q52 0 94 -20t71 -61h5l12 71h86v-546q0 -233 -249 -233q-58 0 -107 8t-90 25v93q42 -21 93.5 -31.5t109.5 -10.5q65 0 101.5 37.5t36.5 105.5v18q0 13 1 34t2 32h-4q-28 -42 -68.5 -61.5t-93.5 -19.5q-102 0 -159.5 73.5t-57.5 204.5q0 130 57.5 205.5
t159.5 75.5zM291 461q-63 0 -96.5 -49.5t-33.5 -144.5q0 -94 33.5 -143t98.5 -49q74 0 108.5 40.5t34.5 132.5v20q0 104 -35 148.5t-110 44.5zM305 744q24 0 41.5 -14t17.5 -47q0 -32 -17.5 -46.5t-41.5 -14.5q-25 0 -43 14.5t-18 46.5q0 33 18 47t43 14z" />
    <glyph glyph-name="uni0122" unicode="&#x122;" horiz-adv-x="727" 
d="M393 384h258v-356q-57 -19 -116.5 -28.5t-135.5 -9.5q-164 0 -251.5 97t-87.5 270q0 112 43.5 194.5t126.5 127.5t201 45q59 0 113 -12t100 -31l-39 -90q-37 17 -83 28.5t-95 11.5q-79 0 -136.5 -33.5t-88 -95.5t-30.5 -146q0 -80 25 -142t79 -97t141 -35q43 0 72.5 4.5
t54.5 10.5v194h-151v93zM468 -61v-9q-9 -29 -31 -72.5t-49 -78.5h-59v12q7 17 14.5 44t14 55t8.5 49h102z" />
    <glyph glyph-name="uni0123" unicode="&#x123;" horiz-adv-x="620" 
d="M269 549q52 0 94 -20t71 -61h5l12 71h86v-546q0 -233 -249 -233q-58 0 -107 8t-90 25v93q42 -21 93.5 -31.5t109.5 -10.5q65 0 101.5 37.5t36.5 105.5v18q0 13 1 34t2 32h-4q-28 -42 -68.5 -61.5t-93.5 -19.5q-102 0 -159.5 73.5t-57.5 204.5q0 130 57.5 205.5
t159.5 75.5zM291 461q-63 0 -96.5 -49.5t-33.5 -144.5q0 -94 33.5 -143t98.5 -49q74 0 108.5 40.5t34.5 132.5v20q0 104 -35 148.5t-110 44.5zM372 766v-12q-7 -18 -15 -44.5t-14 -54t-9 -49.5h-102v9q9 29 31 72.5t49 78.5h60z" />
    <glyph glyph-name="Hcircumflex" unicode="&#x124;" horiz-adv-x="748" 
d="M652 0h-108v326h-341v-326h-108v714h108v-296h341v296h108v-714zM433 941q13 -22 35.5 -49.5t46.5 -54t43 -44.5v-12h-73q-26 16 -55 39t-55 50q-27 -27 -54.5 -50t-53.5 -39h-72v12q18 19 42 45t46 53.5t36 49.5h114z" />
    <glyph glyph-name="hcircumflex" unicode="&#x125;" horiz-adv-x="630" 
d="M189 760v-203q0 -25 -2 -50t-4 -41h7q26 41 69.5 61.5t94.5 20.5q95 0 145.5 -47t50.5 -150v-351h-105v336q0 126 -111 126q-83 0 -114 -50t-31 -141v-271h-106v760h106zM195 987q13 -22 35.5 -49.5t46.5 -54t43 -44.5v-12h-73q-26 16 -55 39t-55 50q-27 -27 -54.5 -50
t-53.5 -39h-72v12q18 19 42 45t46 53.5t36 49.5h114z" />
    <glyph glyph-name="Hbar" unicode="&#x126;" horiz-adv-x="748" 
d="M95 0v523h-95v79h95v112h108v-112h341v112h108v-112h95v-79h-95v-523h-108v326h-341v-326h-108zM203 418h341v105h-341v-105z" />
    <glyph glyph-name="hbar" unicode="&#x127;" horiz-adv-x="630" 
d="M189 760v-87h195v-75h-195v-64q0 -26 -2 -50t-4 -40h7q26 41 69.5 61.5t95.5 20.5q95 0 145 -47t50 -151v-328h-105v313q0 126 -111 126q-83 0 -114 -49.5t-31 -140.5v-249h-106v598h-76v75h76v87h106z" />
    <glyph glyph-name="Itilde" unicode="&#x128;" horiz-adv-x="354" 
d="M315 0h-277v62l85 25v539l-85 26v62h277v-62l-84 -26v-539l84 -25v-62zM-12 781q6 64 37 99t80 35q29 0 55 -14t50 -27.5t46 -13.5q39 0 53 56h57q-6 -64 -36.5 -99t-79.5 -35q-28 0 -54 13.5t-50 27.5t-47 14q-41 0 -54 -56h-57z" />
    <glyph glyph-name="itilde" unicode="&#x129;" horiz-adv-x="272" 
d="M189 0h-106v539h106v-539zM-54 606q6 64 37 99t80 35q29 0 55 -14t50 -27.5t46 -13.5q39 0 53 56h57q-6 -64 -36.5 -99t-79.5 -35q-28 0 -54 13.5t-50 27.5t-47 14q-41 0 -54 -56h-57z" />
    <glyph glyph-name="Imacron" unicode="&#x12a;" horiz-adv-x="354" 
d="M315 0h-277v62l85 25v539l-85 26v62h277v-62l-84 -26v-539l84 -25v-62zM331 861v-80h-307v80h307z" />
    <glyph glyph-name="imacron" unicode="&#x12b;" horiz-adv-x="272" 
d="M189 0h-106v539h106v-539zM289 686v-80h-307v80h307z" />
    <glyph glyph-name="Ibreve" unicode="&#x12c;" horiz-adv-x="354" 
d="M315 0h-277v62l85 25v539l-85 26v62h277v-62l-84 -26v-539l84 -25v-62zM348 924q-5 -64 -49.5 -103.5t-119.5 -39.5q-78 0 -119 39t-45 104h63q4 -41 31 -51.5t72 -10.5q38 0 68 11.5t35 50.5h64z" />
    <glyph glyph-name="ibreve" unicode="&#x12d;" horiz-adv-x="272" 
d="M189 0h-106v539h106v-539zM307 749q-5 -64 -49.5 -103.5t-119.5 -39.5q-78 0 -119 39t-45 104h63q4 -41 31 -51.5t72 -10.5q38 0 68 11.5t35 50.5h64z" />
    <glyph glyph-name="Iogonek" unicode="&#x12e;" horiz-adv-x="354" 
d="M315 0h-277v62l85 25v539l-85 26v62h277v-62l-84 -26v-539l84 -25v-62zM219 -115q0 -22 11.5 -32.5t31.5 -10.5q16 0 29 2.5t22 4.5v-65q-15 -4 -30.5 -7t-35.5 -3q-55 0 -82 26.5t-27 72.5q0 29 14.5 56t37 49.5t45.5 37.5l53 -16q-34 -32 -51.5 -59t-17.5 -56z" />
    <glyph glyph-name="iogonek" unicode="&#x12f;" horiz-adv-x="272" 
d="M137 744q24 0 42 -14t18 -47q0 -32 -18 -46.5t-42 -14.5q-25 0 -43 14.5t-18 46.5q0 33 18 47t43 14zM189 539v-539h-106v539h106zM113 -115q0 -22 11.5 -32.5t31.5 -10.5q16 0 29 2.5t22 4.5v-65q-15 -4 -30.5 -7t-35.5 -3q-55 0 -82 26.5t-27 72.5q0 29 14.5 56
t37 49.5t45.5 37.5l53 -16q-34 -32 -51.5 -59t-17.5 -56z" />
    <glyph glyph-name="Idotaccent" unicode="&#x130;" horiz-adv-x="354" 
d="M315 0h-277v62l85 25v539l-85 26v62h277v-62l-84 -26v-539l84 -25v-62zM181 919q24 0 41.5 -14t17.5 -47q0 -32 -17.5 -46.5t-41.5 -14.5q-25 0 -43 14.5t-18 46.5q0 33 18 47t43 14z" />
    <glyph glyph-name="dotlessi" unicode="&#x131;" horiz-adv-x="272" 
d="M189 0h-106v539h106v-539z" />
    <glyph glyph-name="IJ" unicode="&#x132;" horiz-adv-x="644" 
d="M315 0h-277v62l85 25v539l-85 26v62h277v-62l-84 -26v-539l84 -25v-62zM356 -196q-26 0 -45.5 3.5t-33.5 9.5v90q16 -4 34 -7t38 -3q25 0 47 10t35.5 35.5t13.5 73.5v698h108v-693q0 -113 -54.5 -165t-142.5 -52z" />
    <glyph glyph-name="ij" unicode="&#x133;" horiz-adv-x="544" 
d="M137 744q24 0 42 -14t18 -47q0 -32 -18 -46.5t-42 -14.5q-25 0 -43 14.5t-18 46.5q0 33 18 47t43 14zM189 539v-539h-106v539h106zM348 683q0 33 18 47t43 14q24 0 42 -14t18 -47q0 -32 -18 -46.5t-42 -14.5q-25 0 -43 14.5t-18 46.5zM298 -240q-26 0 -47.5 3.5
t-36.5 8.5v85q16 -5 32 -7.5t36 -2.5q32 0 52.5 17.5t20.5 66.5v608h106v-613q0 -75 -38.5 -120.5t-124.5 -45.5z" />
    <glyph glyph-name="Jcircumflex" unicode="&#x134;" horiz-adv-x="290" 
d="M2 -196q-26 0 -45.5 3.5t-33.5 9.5v90q16 -4 34 -7t38 -3q25 0 47 10t35.5 35.5t13.5 73.5v698h108v-693q0 -113 -54.5 -165t-142.5 -52zM204 941q13 -22 35.5 -49.5t46.5 -54t43 -44.5v-12h-73q-26 16 -55 39t-55 50q-27 -27 -54.5 -50t-53.5 -39h-72v12q18 19 42 45
t46 53.5t36 49.5h114z" />
    <glyph glyph-name="jcircumflex" unicode="&#x135;" horiz-adv-x="272" 
d="M26 -240q-26 0 -47.5 3.5t-36.5 8.5v85q16 -5 32 -7.5t36 -2.5q32 0 52.5 17.5t20.5 66.5v608h106v-613q0 -75 -38.5 -120.5t-124.5 -45.5zM194 766q13 -22 35.5 -49.5t46.5 -54t43 -44.5v-12h-73q-26 16 -55 39t-55 50q-27 -27 -54.5 -50t-53.5 -39h-72v12q18 19 42 45
t46 53.5t36 49.5h114z" />
    <glyph glyph-name="uni0136" unicode="&#x136;" horiz-adv-x="632" 
d="M632 0h-125l-234 329l-70 -58v-271h-108v714h108v-345q25 30 52 60t52 61l193 224h124l-273 -312zM405 -61v-9q-9 -29 -31 -72.5t-49 -78.5h-59v12q7 17 14.5 44t14 55t8.5 49h102z" />
    <glyph glyph-name="uni0137" unicode="&#x137;" horiz-adv-x="559" 
d="M188 760v-380q0 -20 -2 -48t-3 -50h3q11 15 30.5 39.5t34.5 40.5l165 177h123l-217 -231l231 -308h-125l-178 241l-62 -52v-189h-105v760h105zM349 -61v-9q-9 -29 -31 -72.5t-49 -78.5h-59v12q7 17 14.5 44t14 55t8.5 49h102z" />
    <glyph glyph-name="kgreenlandic" unicode="&#x138;" horiz-adv-x="559" 
d="M538 539l-207 -241l222 -298h-124l-169 232l-68 -51v-181h-109v539h109v-140q0 -37 -1.5 -73t-3.5 -58h2q12 15 24.5 30.5t23.5 29.5l179 211h122z" />
    <glyph glyph-name="Lacute" unicode="&#x139;" horiz-adv-x="536" 
d="M95 0v714h108v-621h305v-93h-413zM303 941v-10q-15 -18 -42.5 -46.5t-58 -57t-54.5 -46.5h-70v12q15 18 34 44.5t36.5 54t30.5 49.5h124z" />
    <glyph glyph-name="lacute" unicode="&#x13a;" horiz-adv-x="272" 
d="M189 0h-106v760h106v-760zM292 987v-10q-15 -18 -42.5 -46.5t-58 -57t-54.5 -46.5h-70v12q15 18 34 44.5t36.5 54t30.5 49.5h124z" />
    <glyph glyph-name="uni013B" unicode="&#x13b;" horiz-adv-x="536" 
d="M95 0v714h108v-621h305v-93h-413zM372 -61v-9q-9 -29 -31 -72.5t-49 -78.5h-59v12q7 17 14.5 44t14 55t8.5 49h102z" />
    <glyph glyph-name="uni013C" unicode="&#x13c;" horiz-adv-x="272" 
d="M189 0h-106v760h106v-760zM206 -61v-9q-9 -29 -31 -72.5t-49 -78.5h-59v12q7 17 14.5 44t14 55t8.5 49h102z" />
    <glyph glyph-name="Lcaron" unicode="&#x13d;" horiz-adv-x="536" 
d="M95 0v714h108v-621h305v-93h-413zM517 714v-9q-10 -29 -31 -72.5t-44 -78.5h-60v12q10 29 19.5 72.5t13.5 75.5h102z" />
    <glyph glyph-name="lcaron" unicode="&#x13e;" horiz-adv-x="272" 
d="M189 0h-106v760h106v-760zM363 760v-9q-10 -29 -31 -72.5t-44 -78.5h-60v12q10 29 19.5 72.5t13.5 75.5h102z" />
    <glyph glyph-name="Ldot" unicode="&#x13f;" horiz-adv-x="536" 
d="M95 0v714h108v-621h305v-93h-413zM400 429q24 0 41.5 -14t17.5 -47q0 -32 -17.5 -46.5t-41.5 -14.5q-25 0 -43 14.5t-18 46.5q0 33 18 47t43 14z" />
    <glyph glyph-name="ldot" unicode="&#x140;" horiz-adv-x="296" 
d="M189 0h-106v760h106v-760zM284 440q24 0 41.5 -14t17.5 -47q0 -32 -17.5 -46.5t-41.5 -14.5q-25 0 -43 14.5t-18 46.5q0 33 18 47t43 14z" />
    <glyph glyph-name="Lslash" unicode="&#x141;" horiz-adv-x="536" 
d="M95 0v245l-45 -26l-41 71l86 51v373h108v-308l117 69l42 -72l-159 -94v-216h305v-93h-413z" />
    <glyph glyph-name="lslash" unicode="&#x142;" horiz-adv-x="272" 
d="M78 0v270l-46 -29l-42 70l88 56v393h106v-326l55 37l43 -70l-98 -64v-337h-106z" />
    <glyph glyph-name="Nacute" unicode="&#x143;" horiz-adv-x="776" 
d="M681 0h-131l-361 577h-4q2 -40 4.5 -91.5t3.5 -105.5v-380h-98v714h130l360 -574h3q-1 21 -2.5 53t-2.5 68.5t-2 68.5v384h100v-714zM544 941v-10q-15 -18 -42.5 -46.5t-58 -57t-54.5 -46.5h-70v12q15 18 34 44.5t36.5 54t30.5 49.5h124z" />
    <glyph glyph-name="nacute" unicode="&#x144;" horiz-adv-x="630" 
d="M356 549q94 0 144 -47t50 -151v-351h-105v336q0 126 -111 126q-82 0 -113.5 -49t-31.5 -141v-272h-106v539h84l15 -72h6q26 42 71.5 62t96.5 20zM471 766v-10q-15 -18 -42.5 -46.5t-58 -57t-54.5 -46.5h-70v12q15 18 34 44.5t36.5 54t30.5 49.5h124z" />
    <glyph glyph-name="uni0145" unicode="&#x145;" horiz-adv-x="776" 
d="M681 0h-131l-361 577h-4q2 -40 4.5 -91.5t3.5 -105.5v-380h-98v714h130l360 -574h3q-1 21 -2.5 53t-2.5 68.5t-2 68.5v384h100v-714zM457 -61v-9q-9 -29 -31 -72.5t-49 -78.5h-59v12q7 17 14.5 44t14 55t8.5 49h102z" />
    <glyph glyph-name="uni0146" unicode="&#x146;" horiz-adv-x="630" 
d="M356 549q94 0 144 -47t50 -151v-351h-105v336q0 126 -111 126q-82 0 -113.5 -49t-31.5 -141v-272h-106v539h84l15 -72h6q26 42 71.5 62t96.5 20zM384 -61v-9q-9 -29 -31 -72.5t-49 -78.5h-59v12q7 17 14.5 44t14 55t8.5 49h102z" />
    <glyph glyph-name="Ncaron" unicode="&#x147;" horiz-adv-x="776" 
d="M681 0h-131l-361 577h-4q2 -40 4.5 -91.5t3.5 -105.5v-380h-98v714h130l360 -574h3q-1 21 -2.5 53t-2.5 68.5t-2 68.5v384h100v-714zM331 781q-14 22 -36 49t-46 53t-42 45v13h72q26 -17 54 -40t54 -50q26 27 55 50.5t55 39.5h73v-13q-19 -19 -43 -44.5t-46.5 -53
t-35.5 -49.5h-114z" />
    <glyph glyph-name="ncaron" unicode="&#x148;" horiz-adv-x="630" 
d="M356 549q94 0 144 -47t50 -151v-351h-105v336q0 126 -111 126q-82 0 -113.5 -49t-31.5 -141v-272h-106v539h84l15 -72h6q26 42 71.5 62t96.5 20zM258 606q-14 22 -36 49t-46 53t-42 45v13h72q26 -17 54 -40t54 -50q26 27 55 50.5t55 39.5h73v-13q-19 -19 -43 -44.5
t-46.5 -53t-35.5 -49.5h-114z" />
    <glyph glyph-name="napostrophe" unicode="&#x149;" horiz-adv-x="712" 
d="M439 549q94 0 144 -47t50 -151v-351h-105v336q0 126 -111 126q-82 0 -113.5 -49t-31.5 -141v-272h-106v539h84l15 -72h6q26 42 71.5 62t96.5 20zM157 714l7 -11q-13 -53 -37 -116.5t-49 -117.5h-77q14 57 28 125t22 120h106z" />
    <glyph glyph-name="Eng" unicode="&#x14a;" horiz-adv-x="776" 
d="M481 -196q-51 0 -82 13v88q17 -5 36 -7.5t42 -2.5q43 0 74 22.5t32 83.5l-394 576h-4q1 -13 3 -48t3.5 -78t1.5 -79v-372h-98v714h130l360 -533h3q-1 15 -2.5 48.5t-3 74t-1.5 76.5v334h100v-710q0 -103 -54.5 -151.5t-145.5 -48.5z" />
    <glyph glyph-name="eng" unicode="&#x14b;" horiz-adv-x="630" 
d="M397 -240q-23 0 -43 3.5t-33 8.5v85q13 -5 27.5 -7.5t31.5 -2.5q28 0 46.5 17.5t18.5 66.5v409q0 122 -110 122q-83 0 -114.5 -49t-31.5 -140v-273h-106v539h84l15 -72h7q26 42 70.5 62t96.5 20q94 0 144.5 -46.5t50.5 -150.5v-426q0 -75 -36.5 -120.5t-117.5 -45.5z" />
    <glyph glyph-name="Omacron" unicode="&#x14c;" horiz-adv-x="785" 
d="M725 358q0 -111 -37 -193.5t-111 -128.5t-184 -46q-113 0 -187 46t-110 129t-36 194q0 110 36 192.5t110 128t188 45.5q110 0 183.5 -45.5t110.5 -128t37 -193.5zM174 358q0 -128 53 -202t166 -74q114 0 166 74t52 202t-52 201t-165 73q-114 0 -167 -73t-53 -201z
M546 861v-80h-307v80h307z" />
    <glyph glyph-name="omacron" unicode="&#x14d;" horiz-adv-x="609" 
d="M558 270q0 -134 -69 -207t-186 -73q-73 0 -129.5 32.5t-89 95t-32.5 152.5q0 134 68 206.5t186 72.5q74 0 130.5 -32.5t89 -94.5t32.5 -152zM161 270q0 -91 34.5 -142t109.5 -51t109.5 51t34.5 142q0 92 -34.5 141.5t-110.5 49.5q-75 0 -109 -49.5t-34 -141.5zM458 686
v-80h-307v80h307z" />
    <glyph glyph-name="Obreve" unicode="&#x14e;" horiz-adv-x="785" 
d="M725 358q0 -111 -37 -193.5t-111 -128.5t-184 -46q-113 0 -187 46t-110 129t-36 194q0 110 36 192.5t110 128t188 45.5q110 0 183.5 -45.5t110.5 -128t37 -193.5zM174 358q0 -128 53 -202t166 -74q114 0 166 74t52 202t-52 201t-165 73q-114 0 -167 -73t-53 -201z
M564 924q-5 -64 -49.5 -103.5t-119.5 -39.5q-78 0 -119 39t-45 104h63q4 -41 31 -51.5t72 -10.5q38 0 68 11.5t35 50.5h64z" />
    <glyph glyph-name="obreve" unicode="&#x14f;" horiz-adv-x="609" 
d="M558 270q0 -134 -69 -207t-186 -73q-73 0 -129.5 32.5t-89 95t-32.5 152.5q0 134 68 206.5t186 72.5q74 0 130.5 -32.5t89 -94.5t32.5 -152zM161 270q0 -91 34.5 -142t109.5 -51t109.5 51t34.5 142q0 92 -34.5 141.5t-110.5 49.5q-75 0 -109 -49.5t-34 -141.5zM476 749
q-5 -64 -49.5 -103.5t-119.5 -39.5q-78 0 -119 39t-45 104h63q4 -41 31 -51.5t72 -10.5q38 0 68 11.5t35 50.5h64z" />
    <glyph glyph-name="Ohungarumlaut" unicode="&#x150;" horiz-adv-x="785" 
d="M725 358q0 -111 -37 -193.5t-111 -128.5t-184 -46q-113 0 -187 46t-110 129t-36 194q0 110 36 192.5t110 128t188 45.5q110 0 183.5 -45.5t110.5 -128t37 -193.5zM174 358q0 -128 53 -202t166 -74q114 0 166 74t52 202t-52 201t-165 73q-114 0 -167 -73t-53 -201z
M645 941v-10q-10 -18 -35.5 -46.5t-54.5 -57t-52 -46.5h-59v12q14 19 30.5 45t32.5 53.5t27 49.5h111zM463 941v-10q-10 -18 -35 -46.5t-54 -57t-52 -46.5h-59v12q14 19 30.5 45t32 53.5t26.5 49.5h111z" />
    <glyph glyph-name="ohungarumlaut" unicode="&#x151;" horiz-adv-x="609" 
d="M558 270q0 -134 -69 -207t-186 -73q-73 0 -129.5 32.5t-89 95t-32.5 152.5q0 134 68 206.5t186 72.5q74 0 130.5 -32.5t89 -94.5t32.5 -152zM161 270q0 -91 34.5 -142t109.5 -51t109.5 51t34.5 142q0 92 -34.5 141.5t-110.5 49.5q-75 0 -109 -49.5t-34 -141.5zM557 766
v-10q-10 -18 -35.5 -46.5t-54.5 -57t-52 -46.5h-59v12q14 19 30.5 45t32.5 53.5t27 49.5h111zM375 766v-10q-10 -18 -35 -46.5t-54 -57t-52 -46.5h-59v12q14 19 30.5 45t32 53.5t26.5 49.5h111z" />
    <glyph glyph-name="OE" unicode="&#x152;" horiz-adv-x="941" 
d="M384 725q54 0 100 -11h398v-92h-284v-204h265v-91h-265v-234h284v-93h-394q-22 -4 -49 -7t-52 -3q-111 0 -183.5 46t-108 129t-35.5 194t35.5 193t107 127.5t181.5 45.5zM390 632q-112 0 -165 -73t-53 -201t52.5 -202t164.5 -74q58 0 102 18v515q-20 9 -46.5 13t-54.5 4z
" />
    <glyph glyph-name="oe" unicode="&#x153;" horiz-adv-x="955" 
d="M679 548q106 0 166.5 -65t60.5 -178v-58h-358q2 -87 42 -129t114 -42q52 0 93 9.5t83 28.5v-88q-41 -19 -81.5 -27.5t-97.5 -8.5q-67 0 -119 25t-85 76q-32 -50 -82.5 -75.5t-114.5 -25.5q-72 0 -128 32.5t-88.5 95t-32.5 152.5q0 134 67 206t184 72q61 0 110.5 -25
t80.5 -75q65 100 186 100zM679 466q-55 0 -89 -35.5t-40 -105.5h249q0 63 -29 102t-91 39zM299 461q-73 0 -105.5 -48t-32.5 -143t33.5 -144t106.5 -49q72 0 105.5 48.5t33.5 142.5q0 98 -34 145.5t-107 47.5z" />
    <glyph glyph-name="Racute" unicode="&#x154;" horiz-adv-x="633" 
d="M295 714q137 0 202.5 -51t65.5 -155q0 -55 -20 -92.5t-52.5 -61.5t-67.5 -37l200 -317h-124l-172 289h-124v-289h-108v714h200zM288 622h-85v-243h90q83 0 121 31.5t38 93.5q0 64 -40 91t-124 27zM475 941v-10q-15 -18 -42.5 -46.5t-58 -57t-54.5 -46.5h-70v12
q15 18 34 44.5t36.5 54t30.5 49.5h124z" />
    <glyph glyph-name="racute" unicode="&#x155;" horiz-adv-x="425" 
d="M349 549q32 0 59 -5l-11 -99q-26 7 -54 7q-41 0 -76 -20t-56.5 -57.5t-21.5 -90.5v-284h-106v539h84l14 -96h4q25 43 67 74.5t97 31.5zM400 766v-10q-15 -18 -42.5 -46.5t-58 -57t-54.5 -46.5h-70v12q15 18 34 44.5t36.5 54t30.5 49.5h124z" />
    <glyph glyph-name="uni0156" unicode="&#x156;" horiz-adv-x="633" 
d="M295 714q137 0 202.5 -51t65.5 -155q0 -55 -20 -92.5t-52.5 -61.5t-67.5 -37l200 -317h-124l-172 289h-124v-289h-108v714h200zM288 622h-85v-243h90q83 0 121 31.5t38 93.5q0 64 -40 91t-124 27zM406 -61v-9q-9 -29 -31 -72.5t-49 -78.5h-59v12q7 17 14.5 44t14 55
t8.5 49h102z" />
    <glyph glyph-name="uni0157" unicode="&#x157;" horiz-adv-x="425" 
d="M349 549q32 0 59 -5l-11 -99q-26 7 -54 7q-41 0 -76 -20t-56.5 -57.5t-21.5 -90.5v-284h-106v539h84l14 -96h4q25 43 67 74.5t97 31.5zM204 -61v-9q-9 -29 -31 -72.5t-49 -78.5h-59v12q7 17 14.5 44t14 55t8.5 49h102z" />
    <glyph glyph-name="Rcaron" unicode="&#x158;" horiz-adv-x="633" 
d="M295 714q137 0 202.5 -51t65.5 -155q0 -55 -20 -92.5t-52.5 -61.5t-67.5 -37l200 -317h-124l-172 289h-124v-289h-108v714h200zM288 622h-85v-243h90q83 0 121 31.5t38 93.5q0 64 -40 91t-124 27zM262 781q-14 22 -36 49t-46 53t-42 45v13h72q26 -17 54 -40t54 -50
q26 27 55 50.5t55 39.5h73v-13q-19 -19 -43 -44.5t-46.5 -53t-35.5 -49.5h-114z" />
    <glyph glyph-name="rcaron" unicode="&#x159;" horiz-adv-x="425" 
d="M349 549q32 0 59 -5l-11 -99q-26 7 -54 7q-41 0 -76 -20t-56.5 -57.5t-21.5 -90.5v-284h-106v539h84l14 -96h4q25 43 67 74.5t97 31.5zM187 606q-14 22 -36 49t-46 53t-42 45v13h72q26 -17 54 -40t54 -50q26 27 55 50.5t55 39.5h73v-13q-19 -19 -43 -44.5t-46.5 -53
t-35.5 -49.5h-114z" />
    <glyph glyph-name="Sacute" unicode="&#x15a;" horiz-adv-x="550" 
d="M505 193q0 -95 -69 -149t-189 -54q-59 0 -110 9.5t-87 27.5v102q40 -18 94 -32.5t110 -14.5q72 0 108 28t36 75q0 33 -16 55.5t-51.5 42t-92.5 41.5q-52 20 -93 47t-64 67t-23 98q0 88 64 138t168 50q58 0 107.5 -12t94.5 -31l-34 -89q-41 17 -83.5 28t-87.5 11
q-59 0 -90 -26t-31 -68q0 -33 15 -55.5t48 -41t87 -39.5q60 -24 102.5 -50.5t64.5 -64t22 -93.5zM441 941v-10q-15 -18 -42.5 -46.5t-58 -57t-54.5 -46.5h-70v12q15 18 34 44.5t36.5 54t30.5 49.5h124z" />
    <glyph glyph-name="sacute" unicode="&#x15b;" horiz-adv-x="484" 
d="M441 152q0 -80 -57.5 -121t-161.5 -41q-57 0 -97.5 8t-74.5 25v93q35 -17 82.5 -30.5t92.5 -13.5q60 0 86.5 19t26.5 51q0 18 -10 32.5t-37.5 30t-80.5 35.5q-52 20 -87.5 41t-54.5 50t-19 73q0 70 56.5 107.5t149.5 37.5q49 0 92.5 -10t84.5 -28l-35 -81
q-35 15 -72 25.5t-75 10.5q-98 0 -98 -57q0 -19 11.5 -33t40 -28t79.5 -34q49 -19 84.5 -39.5t54.5 -49.5t19 -73zM399 766v-10q-15 -18 -42.5 -46.5t-58 -57t-54.5 -46.5h-70v12q15 18 34 44.5t36.5 54t30.5 49.5h124z" />
    <glyph glyph-name="Scircumflex" unicode="&#x15c;" horiz-adv-x="550" 
d="M505 193q0 -95 -69 -149t-189 -54q-59 0 -110 9.5t-87 27.5v102q40 -18 94 -32.5t110 -14.5q72 0 108 28t36 75q0 33 -16 55.5t-51.5 42t-92.5 41.5q-52 20 -93 47t-64 67t-23 98q0 88 64 138t168 50q58 0 107.5 -12t94.5 -31l-34 -89q-41 17 -83.5 28t-87.5 11
q-59 0 -90 -26t-31 -68q0 -33 15 -55.5t48 -41t87 -39.5q60 -24 102.5 -50.5t64.5 -64t22 -93.5zM343 941q13 -22 35.5 -49.5t46.5 -54t43 -44.5v-12h-73q-26 16 -55 39t-55 50q-27 -27 -54.5 -50t-53.5 -39h-72v12q18 19 42 45t46 53.5t36 49.5h114z" />
    <glyph glyph-name="scircumflex" unicode="&#x15d;" horiz-adv-x="484" 
d="M441 152q0 -80 -57.5 -121t-161.5 -41q-57 0 -97.5 8t-74.5 25v93q35 -17 82.5 -30.5t92.5 -13.5q60 0 86.5 19t26.5 51q0 18 -10 32.5t-37.5 30t-80.5 35.5q-52 20 -87.5 41t-54.5 50t-19 73q0 70 56.5 107.5t149.5 37.5q49 0 92.5 -10t84.5 -28l-35 -81
q-35 15 -72 25.5t-75 10.5q-98 0 -98 -57q0 -19 11.5 -33t40 -28t79.5 -34q49 -19 84.5 -39.5t54.5 -49.5t19 -73zM301 766q13 -22 35.5 -49.5t46.5 -54t43 -44.5v-12h-73q-26 16 -55 39t-55 50q-27 -27 -54.5 -50t-53.5 -39h-72v12q18 19 42 45t46 53.5t36 49.5h114z" />
    <glyph glyph-name="Scedilla" unicode="&#x15e;" horiz-adv-x="550" 
d="M505 193q0 -95 -69 -149t-189 -54q-59 0 -110 9.5t-87 27.5v102q40 -18 94 -32.5t110 -14.5q72 0 108 28t36 75q0 33 -16 55.5t-51.5 42t-92.5 41.5q-52 20 -93 47t-64 67t-23 98q0 88 64 138t168 50q58 0 107.5 -12t94.5 -31l-34 -89q-41 17 -83.5 28t-87.5 11
q-59 0 -90 -26t-31 -68q0 -33 15 -55.5t48 -41t87 -39.5q60 -24 102.5 -50.5t64.5 -64t22 -93.5zM366 -134q0 -50 -36 -78t-113 -28q-17 0 -31.5 2t-24.5 4v63q11 -2 27 -4t31 -2q29 0 45.5 8.5t16.5 31.5q0 24 -23.5 36.5t-64.5 17.5l42 83h68l-22 -46q35 -9 60 -29.5
t25 -58.5z" />
    <glyph glyph-name="scedilla" unicode="&#x15f;" horiz-adv-x="484" 
d="M441 152q0 -80 -57.5 -121t-161.5 -41q-57 0 -97.5 8t-74.5 25v93q35 -17 82.5 -30.5t92.5 -13.5q60 0 86.5 19t26.5 51q0 18 -10 32.5t-37.5 30t-80.5 35.5q-52 20 -87.5 41t-54.5 50t-19 73q0 70 56.5 107.5t149.5 37.5q49 0 92.5 -10t84.5 -28l-35 -81
q-35 15 -72 25.5t-75 10.5q-98 0 -98 -57q0 -19 11.5 -33t40 -28t79.5 -34q49 -19 84.5 -39.5t54.5 -49.5t19 -73zM348 -134q0 -50 -36 -78t-113 -28q-17 0 -31.5 2t-24.5 4v63q11 -2 27 -4t31 -2q29 0 45.5 8.5t16.5 31.5q0 24 -23.5 36.5t-64.5 17.5l42 83h68l-22 -46
q35 -9 60 -29.5t25 -58.5z" />
    <glyph glyph-name="Scaron" unicode="&#x160;" horiz-adv-x="550" 
d="M505 193q0 -95 -69 -149t-189 -54q-59 0 -110 9.5t-87 27.5v102q40 -18 94 -32.5t110 -14.5q72 0 108 28t36 75q0 33 -16 55.5t-51.5 42t-92.5 41.5q-52 20 -93 47t-64 67t-23 98q0 88 64 138t168 50q58 0 107.5 -12t94.5 -31l-34 -89q-41 17 -83.5 28t-87.5 11
q-59 0 -90 -26t-31 -68q0 -33 15 -55.5t48 -41t87 -39.5q60 -24 102.5 -50.5t64.5 -64t22 -93.5zM228 781q-14 22 -36 49t-46 53t-42 45v13h72q26 -17 54 -40t54 -50q26 27 55 50.5t55 39.5h73v-13q-19 -19 -43 -44.5t-46.5 -53t-35.5 -49.5h-114z" />
    <glyph glyph-name="scaron" unicode="&#x161;" horiz-adv-x="484" 
d="M441 152q0 -80 -57.5 -121t-161.5 -41q-57 0 -97.5 8t-74.5 25v93q35 -17 82.5 -30.5t92.5 -13.5q60 0 86.5 19t26.5 51q0 18 -10 32.5t-37.5 30t-80.5 35.5q-52 20 -87.5 41t-54.5 50t-19 73q0 70 56.5 107.5t149.5 37.5q49 0 92.5 -10t84.5 -28l-35 -81
q-35 15 -72 25.5t-75 10.5q-98 0 -98 -57q0 -19 11.5 -33t40 -28t79.5 -34q49 -19 84.5 -39.5t54.5 -49.5t19 -73zM186 606q-14 22 -36 49t-46 53t-42 45v13h72q26 -17 54 -40t54 -50q26 27 55 50.5t55 39.5h73v-13q-19 -19 -43 -44.5t-46.5 -53t-35.5 -49.5h-114z" />
    <glyph glyph-name="uni0162" unicode="&#x162;" horiz-adv-x="563" 
d="M335 0h-108v621h-214v93h536v-93h-214v-621zM387 -134q0 -50 -36 -78t-113 -28q-17 0 -31.5 2t-24.5 4v63q11 -2 27 -4t31 -2q29 0 45.5 8.5t16.5 31.5q0 24 -23.5 36.5t-64.5 17.5l42 83h68l-22 -46q35 -9 60 -29.5t25 -58.5z" />
    <glyph glyph-name="uni0163" unicode="&#x163;" horiz-adv-x="383" 
d="M277 76q45 0 81 13v-80q-17 -8 -46 -13.5t-58 -5.5q-44 0 -80.5 15t-58.5 52t-22 103v298h-75v48l79 40l37 114h65v-121h154v-81h-154v-296q0 -44 21.5 -65t56.5 -21zM328 -134q0 -50 -36 -78t-113 -28q-17 0 -31.5 2t-24.5 4v63q11 -2 27 -4t31 -2q29 0 45.5 8.5
t16.5 31.5q0 24 -23.5 36.5t-64.5 17.5l42 83h68l-22 -46q35 -9 60 -29.5t25 -58.5z" />
    <glyph glyph-name="Tcaron" unicode="&#x164;" horiz-adv-x="563" 
d="M335 0h-108v621h-214v93h536v-93h-214v-621zM224 781q-14 22 -36 49t-46 53t-42 45v13h72q26 -17 54 -40t54 -50q26 27 55 50.5t55 39.5h73v-13q-19 -19 -43 -44.5t-46.5 -53t-35.5 -49.5h-114z" />
    <glyph glyph-name="tcaron" unicode="&#x165;" horiz-adv-x="383" 
d="M277 76q45 0 81 13v-80q-17 -8 -46 -13.5t-58 -5.5q-44 0 -80.5 15t-58.5 52t-22 103v298h-75v48l79 40l37 114h65v-121h154v-81h-154v-296q0 -44 21.5 -65t56.5 -21zM500 760v-9q-10 -29 -31 -72.5t-44 -78.5h-60v12q10 29 19.5 72.5t13.5 75.5h102z" />
    <glyph glyph-name="Tbar" unicode="&#x166;" horiz-adv-x="563" 
d="M227 0v315h-141v89h141v216h-214v94h536v-94h-214v-216h140v-89h-140v-315h-108z" />
    <glyph glyph-name="tbar" unicode="&#x167;" horiz-adv-x="383" 
d="M26 269v75h67v114h-75v48l79 40l37 114h65v-121h154v-81h-154v-114h143v-75h-143v-107q0 -44 21.5 -65t56.5 -21q45 0 81 13v-80q-17 -8 -46 -13.5t-58 -5.5q-44 0 -80.5 15t-58.5 52t-22 103v109h-67z" />
    <glyph glyph-name="Utilde" unicode="&#x168;" horiz-adv-x="738" 
d="M649 714v-462q0 -74 -30.5 -133.5t-93.5 -94t-159 -34.5q-136 0 -206.5 72.5t-70.5 191.5v460h108v-455q0 -177 174 -177q90 0 130.5 48t40.5 130v454h107zM180 781q6 64 37 99t80 35q29 0 55 -14t50 -27.5t46 -13.5q39 0 53 56h57q-6 -64 -36.5 -99t-79.5 -35
q-28 0 -54 13.5t-50 27.5t-47 14q-41 0 -54 -56h-57z" />
    <glyph glyph-name="utilde" unicode="&#x169;" horiz-adv-x="630" 
d="M547 539v-539h-85l-15 71h-5q-26 -42 -72 -61.5t-97 -19.5q-95 0 -145 46.5t-50 149.5v353h107v-337q0 -63 26.5 -94t82.5 -31q83 0 115 48.5t32 140.5v273h106zM125 606q6 64 37 99t80 35q29 0 55 -14t50 -27.5t46 -13.5q39 0 53 56h57q-6 -64 -36.5 -99t-79.5 -35
q-28 0 -54 13.5t-50 27.5t-47 14q-41 0 -54 -56h-57z" />
    <glyph glyph-name="Umacron" unicode="&#x16a;" horiz-adv-x="738" 
d="M649 714v-462q0 -74 -30.5 -133.5t-93.5 -94t-159 -34.5q-136 0 -206.5 72.5t-70.5 191.5v460h108v-455q0 -177 174 -177q90 0 130.5 48t40.5 130v454h107zM523 861v-80h-307v80h307z" />
    <glyph glyph-name="umacron" unicode="&#x16b;" horiz-adv-x="630" 
d="M547 539v-539h-85l-15 71h-5q-26 -42 -72 -61.5t-97 -19.5q-95 0 -145 46.5t-50 149.5v353h107v-337q0 -63 26.5 -94t82.5 -31q83 0 115 48.5t32 140.5v273h106zM468 686v-80h-307v80h307z" />
    <glyph glyph-name="Ubreve" unicode="&#x16c;" horiz-adv-x="738" 
d="M649 714v-462q0 -74 -30.5 -133.5t-93.5 -94t-159 -34.5q-136 0 -206.5 72.5t-70.5 191.5v460h108v-455q0 -177 174 -177q90 0 130.5 48t40.5 130v454h107zM540 924q-5 -64 -49.5 -103.5t-119.5 -39.5q-78 0 -119 39t-45 104h63q4 -41 31 -51.5t72 -10.5q38 0 68 11.5
t35 50.5h64z" />
    <glyph glyph-name="ubreve" unicode="&#x16d;" horiz-adv-x="630" 
d="M547 539v-539h-85l-15 71h-5q-26 -42 -72 -61.5t-97 -19.5q-95 0 -145 46.5t-50 149.5v353h107v-337q0 -63 26.5 -94t82.5 -31q83 0 115 48.5t32 140.5v273h106zM486 749q-5 -64 -49.5 -103.5t-119.5 -39.5q-78 0 -119 39t-45 104h63q4 -41 31 -51.5t72 -10.5
q38 0 68 11.5t35 50.5h64z" />
    <glyph glyph-name="Uring" unicode="&#x16e;" horiz-adv-x="738" 
d="M649 714v-462q0 -74 -30.5 -133.5t-93.5 -94t-159 -34.5q-136 0 -206.5 72.5t-70.5 191.5v460h108v-455q0 -177 174 -177q90 0 130.5 48t40.5 130v454h107zM371 781q-51 0 -82 28.5t-31 80.5q0 50 31 79t82 29q48 0 81 -28.5t33 -78.5q0 -52 -32.5 -81t-81.5 -29z
M371 836q23 0 38 14.5t15 39.5t-15 39t-38 14t-38.5 -14t-15.5 -39q0 -54 54 -54z" />
    <glyph glyph-name="uring" unicode="&#x16f;" horiz-adv-x="630" 
d="M547 539v-539h-85l-15 71h-5q-26 -42 -72 -61.5t-97 -19.5q-95 0 -145 46.5t-50 149.5v353h107v-337q0 -63 26.5 -94t82.5 -31q83 0 115 48.5t32 140.5v273h106zM316 606q-51 0 -82 28.5t-31 80.5q0 50 31 79t82 29q48 0 81 -28.5t33 -78.5q0 -52 -32.5 -81t-81.5 -29z
M316 661q23 0 38 14.5t15 39.5t-15 39t-38 14t-38.5 -14t-15.5 -39q0 -54 54 -54z" />
    <glyph glyph-name="Uhungarumlaut" unicode="&#x170;" horiz-adv-x="738" 
d="M649 714v-462q0 -74 -30.5 -133.5t-93.5 -94t-159 -34.5q-136 0 -206.5 72.5t-70.5 191.5v460h108v-455q0 -177 174 -177q90 0 130.5 48t40.5 130v454h107zM622 941v-10q-10 -18 -35.5 -46.5t-54.5 -57t-52 -46.5h-59v12q14 19 30.5 45t32.5 53.5t27 49.5h111zM440 941
v-10q-10 -18 -35 -46.5t-54 -57t-52 -46.5h-59v12q14 19 30.5 45t32 53.5t26.5 49.5h111z" />
    <glyph glyph-name="uhungarumlaut" unicode="&#x171;" horiz-adv-x="630" 
d="M547 539v-539h-85l-15 71h-5q-26 -42 -72 -61.5t-97 -19.5q-95 0 -145 46.5t-50 149.5v353h107v-337q0 -63 26.5 -94t82.5 -31q83 0 115 48.5t32 140.5v273h106zM567 766v-10q-10 -18 -35.5 -46.5t-54.5 -57t-52 -46.5h-59v12q14 19 30.5 45t32.5 53.5t27 49.5h111z
M385 766v-10q-10 -18 -35 -46.5t-54 -57t-52 -46.5h-59v12q14 19 30.5 45t32 53.5t26.5 49.5h111z" />
    <glyph glyph-name="Uogonek" unicode="&#x172;" horiz-adv-x="738" 
d="M472 -105q0 -28 12 -40.5t31 -12.5q17 0 29.5 2.5t20.5 4.5v-65q-14 -4 -29.5 -7t-36.5 -3q-109 0 -109 108q0 31 15 60.5t36 54.5q-35 -7 -75 -7q-136 0 -206.5 72.5t-70.5 191.5v460h108v-455q0 -177 174 -177q90 0 130.5 48t40.5 130v454h107v-462q0 -63 -22.5 -116.5
t-68.5 -89.5q-45 -48 -65.5 -83t-20.5 -68z" />
    <glyph glyph-name="uogonek" unicode="&#x173;" horiz-adv-x="630" 
d="M547 539v-539h-85l-15 71h-5q-26 -42 -72 -61.5t-97 -19.5q-95 0 -145 46.5t-50 149.5v353h107v-337q0 -63 26.5 -94t82.5 -31q83 0 115 48.5t32 140.5v273h106zM456 -115q0 -22 11.5 -32.5t31.5 -10.5q16 0 29 2.5t22 4.5v-65q-15 -4 -30.5 -7t-35.5 -3q-55 0 -82 26.5
t-27 72.5q0 29 14.5 56t37 49.5t45.5 37.5l53 -16q-34 -32 -51.5 -59t-17.5 -56z" />
    <glyph glyph-name="Wcircumflex" unicode="&#x174;" horiz-adv-x="941" 
d="M932 714l-188 -714h-115l-126 441q-7 24 -14.5 54t-13.5 56.5t-8 37.5q-1 -11 -6 -37t-12 -57t-15 -57l-124 -438h-115l-187 714h111l105 -422q10 -44 19.5 -91t14.5 -84q5 38 15.5 87t21.5 88l119 422h108l123 -424q12 -40 22 -89t15 -84q4 37 14 84t21 91l105 422h110z
M529 941q13 -22 35.5 -49.5t46.5 -54t43 -44.5v-12h-73q-26 16 -55 39t-55 50q-27 -27 -54.5 -50t-53.5 -39h-72v12q18 19 42 45t46 53.5t36 49.5h114z" />
    <glyph glyph-name="wcircumflex" unicode="&#x175;" horiz-adv-x="807" 
d="M524 1l-77 269q-7 26 -16 59.5t-16 64t-11 47.5h-4q-3 -17 -10 -47.5t-15.5 -64t-16.5 -60.5l-80 -268h-118l-149 539h108l70 -273q11 -42 20.5 -89.5t13.5 -76.5h4q3 17 8.5 45.5t12 56.5t12.5 46l86 291h116l84 -291q6 -20 13 -47.5t12.5 -54.5t7.5 -45h4q2 16 7 44
t12.5 60t14.5 61l72 273h107l-151 -539h-121zM461 766q13 -22 35.5 -49.5t46.5 -54t43 -44.5v-12h-73q-26 16 -55 39t-55 50q-27 -27 -54.5 -50t-53.5 -39h-72v12q18 19 42 45t46 53.5t36 49.5h114z" />
    <glyph glyph-name="Ycircumflex" unicode="&#x176;" horiz-adv-x="583" 
d="M292 380l175 334h116l-238 -437v-277h-107v273l-238 441h117zM350 941q13 -22 35.5 -49.5t46.5 -54t43 -44.5v-12h-73q-26 16 -55 39t-55 50q-27 -27 -54.5 -50t-53.5 -39h-72v12q18 19 42 45t46 53.5t36 49.5h114z" />
    <glyph glyph-name="ycircumflex" unicode="&#x177;" horiz-adv-x="527" 
d="M1 539h114l112 -306q13 -35 23 -67t14 -64h4q5 26 15.5 61t23.5 71l106 305h114l-231 -612q-29 -78 -77.5 -122.5t-126.5 -44.5q-25 0 -43 2.5t-31 5.5v84q10 -2 26 -4t33 -2q46 0 74 26.5t44 69.5l22 58zM322 766q13 -22 35.5 -49.5t46.5 -54t43 -44.5v-12h-73
q-26 16 -55 39t-55 50q-27 -27 -54.5 -50t-53.5 -39h-72v12q18 19 42 45t46 53.5t36 49.5h114z" />
    <glyph glyph-name="Ydieresis" unicode="&#x178;" horiz-adv-x="583" 
d="M292 380l175 334h116l-238 -437v-277h-107v273l-238 441h117zM142 857q0 29 15.5 41.5t37.5 12.5t38 -12.5t16 -41.5q0 -27 -16 -40.5t-38 -13.5t-37.5 13.5t-15.5 40.5zM333 857q0 29 15 41.5t38 12.5q21 0 37 -12.5t16 -41.5q0 -27 -16 -40.5t-37 -13.5q-23 0 -38 13.5
t-15 40.5z" />
    <glyph glyph-name="Zacute" unicode="&#x179;" horiz-adv-x="574" 
d="M539 0h-505v77l366 544h-355v93h485v-77l-366 -544h375v-93zM448 941v-10q-15 -18 -42.5 -46.5t-58 -57t-54.5 -46.5h-70v12q15 18 34 44.5t36.5 54t30.5 49.5h124z" />
    <glyph glyph-name="zacute" unicode="&#x17a;" horiz-adv-x="475" 
d="M439 0h-404v67l278 390h-261v82h379v-75l-272 -382h280v-82zM394 766v-10q-15 -18 -42.5 -46.5t-58 -57t-54.5 -46.5h-70v12q15 18 34 44.5t36.5 54t30.5 49.5h124z" />
    <glyph glyph-name="Zdotaccent" unicode="&#x17b;" horiz-adv-x="574" 
d="M539 0h-505v77l366 544h-355v93h485v-77l-366 -544h375v-93zM295 919q24 0 41.5 -14t17.5 -47q0 -32 -17.5 -46.5t-41.5 -14.5q-25 0 -43 14.5t-18 46.5q0 33 18 47t43 14z" />
    <glyph glyph-name="zdotaccent" unicode="&#x17c;" horiz-adv-x="475" 
d="M439 0h-404v67l278 390h-261v82h379v-75l-272 -382h280v-82zM241 744q24 0 41.5 -14t17.5 -47q0 -32 -17.5 -46.5t-41.5 -14.5q-25 0 -43 14.5t-18 46.5q0 33 18 47t43 14z" />
    <glyph glyph-name="Zcaron" unicode="&#x17d;" horiz-adv-x="574" 
d="M539 0h-505v77l366 544h-355v93h485v-77l-366 -544h375v-93zM234 781q-14 22 -36 49t-46 53t-42 45v13h72q26 -17 54 -40t54 -50q26 27 55 50.5t55 39.5h73v-13q-19 -19 -43 -44.5t-46.5 -53t-35.5 -49.5h-114z" />
    <glyph glyph-name="zcaron" unicode="&#x17e;" horiz-adv-x="475" 
d="M439 0h-404v67l278 390h-261v82h379v-75l-272 -382h280v-82zM181 606q-14 22 -36 49t-46 53t-42 45v13h72q26 -17 54 -40t54 -50q26 27 55 50.5t55 39.5h73v-13q-19 -19 -43 -44.5t-46.5 -53t-35.5 -49.5h-114z" />
    <glyph glyph-name="longs" unicode="&#x17f;" horiz-adv-x="343" 
d="M269 679q-39 0 -59.5 -24t-20.5 -77v-578h-106v580q0 103 49.5 144t131.5 41q36 0 63.5 -6.5t47.5 -13.5l-27 -81q-16 5 -36.5 10t-42.5 5z" />
    <glyph glyph-name="uni0180" unicode="&#x180;" horiz-adv-x="620" 
d="M351 -10q-62 0 -100.5 22.5t-61.5 53.5h-8l-20 -66h-78v599h-76v75h76v86h106v-86h196v-75h-196v-25q0 -32 -1.5 -61t-3.5 -48h5q23 34 62 57t101 23q97 0 156.5 -67.5t59.5 -207.5q0 -139 -60 -209.5t-157 -70.5zM329 77q65 0 97.5 50t32.5 144q0 188 -132 188
q-75 0 -106 -45.5t-32 -139.5v-5q0 -93 29.5 -142.5t110.5 -49.5z" />
    <glyph glyph-name="uni0181" unicode="&#x181;" horiz-adv-x="749" 
d="M188 0v623h-26q-32 0 -46.5 -14.5t-14.5 -37.5q0 -17 3.5 -31t6.5 -21h-91q-4 10 -7.5 26t-3.5 30q0 66 36.5 102.5t117.5 36.5h234q136 0 206 -40t70 -138q0 -62 -33.5 -104t-94.5 -53v-5q42 -8 76 -26.5t54 -53t20 -90.5q0 -98 -67.5 -151t-184.5 -53h-255zM295 416
h119q84 0 116 27t32 80t-38.5 76.5t-121.5 23.5h-107v-207zM295 90h131q87 0 121 34t34 90q0 51 -35 82.5t-126 31.5h-125v-238z" />
    <glyph glyph-name="uni0182" unicode="&#x182;" horiz-adv-x="622" 
d="M95 0v714h432v-93h-324v-201h92q105 0 166 -27t86.5 -73.5t25.5 -106.5q0 -101 -63 -157t-206 -56h-209zM203 91h93q88 0 127 29.5t39 92.5q0 65 -43 90.5t-138 25.5h-78v-238z" />
    <glyph glyph-name="uni0183" unicode="&#x183;" horiz-adv-x="620" 
d="M351 -10q-62 0 -100.5 22.5t-61.5 53.5h-8l-20 -66h-78v760h431v-85h-325v-101q0 -33 -1.5 -64.5t-3.5 -44.5h5q23 34 62 57t101 23q97 0 156.5 -67.5t59.5 -207.5q0 -139 -60 -209.5t-157 -70.5zM329 77q65 0 97.5 50t32.5 144q0 188 -132 188q-75 0 -106 -45.5
t-32 -139.5v-5q0 -93 29.5 -142.5t110.5 -49.5z" />
    <glyph glyph-name="uni0184" unicode="&#x184;" horiz-adv-x="643" 
d="M343 -10q-136 0 -195 58t-59 162v504h108v-294h120q100 0 160.5 -28t88 -76t27.5 -107q0 -98 -62 -158.5t-188 -60.5zM341 81q142 0 142 128q0 67 -46.5 93.5t-133.5 26.5h-106v-117q0 -70 34.5 -100.5t109.5 -30.5z" />
    <glyph glyph-name="uni0185" unicode="&#x185;" horiz-adv-x="618" 
d="M326 -10q-114 0 -180 70t-66 207v493h106v-183q0 -32 -2 -62t-3 -47h5q22 34 62 57t102 23q98 0 157 -70t59 -209t-65.5 -209t-174.5 -70zM326 77q131 0 131 193q0 192 -132 192q-77 0 -108 -45.5t-31 -139.5v-12q0 -92 36.5 -140t103.5 -48z" />
    <glyph glyph-name="uni0186" unicode="&#x186;" horiz-adv-x="633" 
d="M244 -10q-58 0 -101.5 7.5t-84.5 23.5v93q44 -14 85 -22.5t87 -8.5q109 0 169.5 73t60.5 201q0 127 -58 200.5t-170 73.5q-46 0 -86 -12.5t-74 -28.5l-40 90q42 21 96 32.5t119 11.5q109 0 181 -45.5t108.5 -128t36.5 -193.5q0 -109 -38 -191.5t-111.5 -129t-179.5 -46.5
z" />
    <glyph glyph-name="uni0187" unicode="&#x187;" horiz-adv-x="633" 
d="M636 864q20 0 36.5 -4t26.5 -9v-85q-7 3 -22 6.5t-31 3.5q-48 0 -48 -50v-48l-39 -88q-35 16 -74 28.5t-85 12.5q-106 0 -166.5 -73.5t-60.5 -201.5q0 -127 56 -200t170 -73q46 0 88.5 8.5t86.5 22.5v-93q-42 -16 -86 -23.5t-102 -7.5q-110 0 -182.5 45.5t-108 128
t-35.5 193.5q0 108 39.5 190.5t115.5 129.5t186 47q28 0 55.5 -3.5t52.5 -9.5v13q0 140 127 140z" />
    <glyph glyph-name="uni0188" unicode="&#x188;" horiz-adv-x="506" 
d="M300 -10q-112 0 -180 66.5t-68 209.5q0 100 33 162t91 91.5t132 29.5q16 0 31 -1.5t30 -3.5v76q0 145 126 145q20 0 36.5 -4.5t26.5 -9.5v-85q-7 3 -21.5 6.5t-31.5 3.5q-47 0 -47 -50v-110l-32 -84q-28 10 -59 18.5t-60 8.5q-146 0 -146 -192q0 -92 36 -140t106 -48
q44 0 79 10t64 26v-92q-29 -17 -63 -25t-83 -8z" />
    <glyph glyph-name="uni0189" unicode="&#x189;" horiz-adv-x="733" 
d="M316 714q108 0 188.5 -40t124.5 -118t44 -192q0 -181 -100 -272.5t-279 -91.5h-194v307h-72v92h72v315h216zM309 623h-101v-224h160v-92h-160v-216h82q270 0 270 270q0 135 -66 198.5t-185 63.5z" />
    <glyph glyph-name="uni018A" unicode="&#x18a;" horiz-adv-x="825" 
d="M187 0v623h-26q-31 0 -46 -14.5t-15 -37.5q0 -17 3.5 -31t6.5 -21h-90q-4 10 -7.5 26t-3.5 30q0 66 36 102.5t118 36.5h246q109 0 188.5 -40t123.5 -118t44 -192q0 -181 -99.5 -272.5t-278.5 -91.5h-200zM295 91h88q269 0 269 270q0 135 -65 198.5t-185 63.5h-107v-532z
" />
    <glyph glyph-name="uni018B" unicode="&#x18b;" horiz-adv-x="622" 
d="M322 0q-143 0 -208 53.5t-65 150.5q0 58 28 107.5t91.5 79t169.5 29.5h81v201h-324v93h432v-714h-205zM333 91h86v238h-69q-94 0 -142 -26.5t-48 -94.5q0 -61 43 -89t130 -28z" />
    <glyph glyph-name="uni018C" unicode="&#x18c;" horiz-adv-x="620" 
d="M268 -10q-98 0 -157 70t-59 208q0 136 60 207t158 71q61 0 100 -23t63 -56h6q-1 6 -3 22t-3.5 34.5t-1.5 31.5v120h-325v85h431v-760h-83l-18 72h-5q-23 -34 -62 -58t-101 -24zM293 77q78 0 109.5 43t32.5 131v16q0 92 -30.5 142t-112.5 50q-65 0 -98 -51.5t-33 -141.5
q0 -91 33 -140t99 -49z" />
    <glyph glyph-name="uni018D" unicode="&#x18d;" horiz-adv-x="608" 
d="M282 -222q-69 0 -118.5 16t-93.5 38l45 79q39 -21 81 -35.5t91 -14.5q43 0 62.5 19t19.5 44q0 33 -31 59.5t-103 65.5q-91 48 -137.5 106.5t-46.5 143.5q0 124 69.5 187t185.5 63q73 0 129.5 -26t89 -76t32.5 -122q0 -66 -27 -113t-73.5 -78.5t-103.5 -48.5
q53 -31 87 -70.5t34 -94.5q0 -70 -54 -106t-138 -36zM278 130q36 9 75.5 30.5t66.5 61t27 102.5q0 61 -37 99.5t-104 38.5q-70 0 -108 -41t-38 -118q0 -63 31.5 -103.5t86.5 -69.5z" />
    <glyph glyph-name="uni018E" unicode="&#x18e;" horiz-adv-x="557" 
d="M60 0v93h294v234h-276v91h276v204h-294v92h402v-714h-402z" />
    <glyph glyph-name="uni018F" unicode="&#x18f;" horiz-adv-x="762" 
d="M352 632q-75 0 -137.5 -17t-106.5 -35v96q44 20 101.5 34.5t144.5 14.5q114 0 191 -46t116.5 -128.5t39.5 -194.5q0 -111 -37.5 -193.5t-110.5 -127.5t-179 -45q-111 0 -179 46t-99 129.5t-31 195.5v35h523q-8 112 -65.5 174t-170.5 62zM374 83q92 0 149 56.5t64 163.5
h-408q0 -103 43 -161.5t152 -58.5z" />
    <glyph glyph-name="uni0190" unicode="&#x190;" horiz-adv-x="606" 
d="M319 724q78 0 138.5 -21.5t105.5 -53.5l-50 -73q-40 27 -83.5 43.5t-105.5 16.5t-98.5 -26.5t-36.5 -75.5q0 -56 47.5 -88t153.5 -32h86v-88h-92q-106 0 -164.5 -29t-58.5 -91t47 -95.5t139 -33.5q53 0 112 14.5t105 36.5v-95q-46 -21 -103 -32t-127 -11
q-100 0 -162.5 26.5t-91.5 73t-29 107.5q0 75 48.5 120t140.5 56v4q-71 11 -115 52t-44 115q0 80 62 130t176 50z" />
    <glyph glyph-name="uni0191" unicode="&#x191;" horiz-adv-x="528" 
d="M50 -240q-20 0 -36 4t-27 10v87q20 -10 48 -10q29 0 44.5 16.5t15.5 58.5v788h402v-92h-295v-233h276v-92h-276v-374q0 -85 -40 -124t-112 -39z" />
    <glyph glyph-name="florin" unicode="&#x192;" horiz-adv-x="572" 
d="M403 724q36 0 63.5 -7t47.5 -15l-26 -80q-16 5 -35 10.5t-41 5.5q-39 0 -57 -22t-18 -74v-59h128v-81h-126v-465q0 -91 -42.5 -134t-128.5 -43q-42 0 -74 10v86q15 -4 29.5 -6.5t31.5 -2.5q37 0 56.5 20.5t19.5 76.5v458h-98v50l98 33v58q0 69 20.5 108.5t59 56
t92.5 16.5z" />
    <glyph glyph-name="uni0193" unicode="&#x193;" horiz-adv-x="727" 
d="M682 864q20 0 36 -4t26 -9v-85q-7 3 -21.5 6.5t-30.5 3.5q-48 0 -48 -50v-47l-39 -88q-37 17 -83 28.5t-95 11.5q-79 0 -136.5 -33.5t-88 -95.5t-30.5 -146q0 -80 25 -142t79 -97t141 -35q43 0 72.5 4.5t54.5 10.5v194h-151v93h258v-356q-57 -19 -116.5 -28.5
t-135.5 -9.5q-164 0 -251.5 97t-87.5 270q0 112 43.5 194.5t126.5 127.5t201 45q67 0 124 -15v15q0 140 127 140z" />
    <glyph glyph-name="uni0194" unicode="&#x194;" horiz-adv-x="594" 
d="M295 -240q-59 0 -91 38.5t-32 97.5q0 46 19 102.5t47 113.5l-238 602h112l135 -355q14 -37 27.5 -77t20.5 -74q7 34 20.5 73.5t28.5 78.5l137 354h113l-243 -602q68 -133 68 -216q0 -58 -32.5 -97t-91.5 -39zM295 -159q34 0 34 56q0 23 -8 58t-26 70q-18 -36 -26 -70
t-8 -56q0 -30 9.5 -44t24.5 -14z" />
    <glyph glyph-name="uni0195" unicode="&#x195;" horiz-adv-x="950" 
d="M647 -10q-111 0 -167 48t-56 157v141q0 126 -101 126q-77 0 -105.5 -50t-28.5 -141v-271h-106v760h106v-203q0 -49 -6 -91h7q25 41 66 61.5t90 20.5q88 0 136 -47t48 -151v-144q0 -129 117 -129q61 0 89 34t28 113v315h106v-321q0 -122 -56 -175t-167 -53z" />
    <glyph glyph-name="uni0196" unicode="&#x196;" horiz-adv-x="364" 
d="M249 -10q-46 0 -82 15.5t-57 53t-21 104.5v551h109v-542q0 -89 73 -89q23 0 45.5 4t37.5 9v-87q-16 -8 -45 -13.5t-60 -5.5z" />
    <glyph glyph-name="uni0197" unicode="&#x197;" horiz-adv-x="354" 
d="M315 714v-62l-84 -26v-217h90v-91h-90v-231l84 -25v-62h-277v62l85 25v231h-91v91h91v217l-85 26v62h277z" />
    <glyph glyph-name="uni0198" unicode="&#x198;" horiz-adv-x="632" 
d="M561 721q19 0 33 -2.5t24 -7.5v-84q-8 2 -21 3.5t-24 1.5q-15 0 -31 -9t-39 -36l-151 -184l280 -403h-125l-229 330l-75 -68v-262h-108v714h108v-351q24 31 51.5 64t52.5 65l111 139q40 51 71 70.5t72 19.5z" />
    <glyph glyph-name="uni0199" unicode="&#x199;" horiz-adv-x="559" 
d="M220 766q21 0 39.5 -5t29.5 -9v-85q-7 3 -22 6.5t-31 3.5q-22 0 -35 -13.5t-13 -44.5v-239q0 -20 -1.5 -48t-3.5 -50h3q10 15 30 39.5t35 40.5l165 177h123l-217 -231l231 -308h-125l-178 241l-62 -52v-189h-105v616q0 76 35 113t102 37z" />
    <glyph glyph-name="uni019A" unicode="&#x19a;" horiz-adv-x="279" 
d="M86 0v340h-72v80h72v340h106v-340h74v-80h-74v-340h-106z" />
    <glyph glyph-name="uni019B" unicode="&#x19b;" horiz-adv-x="564" 
d="M-3 0l231 523l-20 53l-104 -31l-21 69l95 28q-15 20 -32 28t-43 8q-17 0 -30 -2t-24 -4v86q13 3 33 5.5t38 2.5q61 0 96.5 -23t60.5 -70l104 32l21 -69l-97 -30l166 -461q13 -38 27 -52.5t33 -14.5q18 0 31 5v-80q-11 -5 -29.5 -9t-35.5 -4q-44 0 -68.5 22t-41.5 68
l-65 184q-13 34 -27 76.5t-19 69.5h-4q-8 -33 -21.5 -70.5t-28.5 -71.5l-115 -268h-110z" />
    <glyph glyph-name="uni019C" unicode="&#x19c;" horiz-adv-x="1031" 
d="M287 -10q-97 0 -147.5 51t-50.5 163v510h108v-497q0 -67 26.5 -101t83.5 -34q82 0 116.5 48t34.5 138v446h108v-497q0 -67 27 -101t85 -34q85 0 117.5 53t32.5 152v427h108v-714h-84l-17 80h-6q-27 -45 -75.5 -67.5t-101.5 -22.5q-66 0 -108 24.5t-65 72.5h-5
q-29 -49 -78.5 -73t-108.5 -24z" />
    <glyph glyph-name="uni019D" unicode="&#x19d;" horiz-adv-x="776" 
d="M48 -240q-20 0 -35 4t-26 10v87q20 -10 48 -10q29 0 44.5 16.5t15.5 58.5v788h130l360 -574h3q0 11 -2 44t-3.5 73.5t-1.5 72.5v384h100v-714h-131l-361 577h-4q1 -17 3 -49.5t3.5 -72t1.5 -75.5v-457q0 -85 -37.5 -124t-107.5 -39z" />
    <glyph glyph-name="uni019E" unicode="&#x19e;" horiz-adv-x="630" 
d="M356 549q94 0 144 -47t50 -151v-591h-105v576q0 62 -26.5 94t-84.5 32q-82 0 -113.5 -49t-31.5 -141v-272h-106v539h84l15 -72h6q26 42 71.5 62t96.5 20z" />
    <glyph glyph-name="uni019F" unicode="&#x19f;" horiz-adv-x="786" 
d="M725 358q0 -111 -37 -193.5t-111 -128.5t-184 -46q-113 0 -187 46t-110 129t-36 194q0 110 36 192.5t110 128t188 45.5q110 0 183.5 -45.5t110.5 -128t37 -193.5zM394 632q-103 0 -156 -59t-63 -162h434q-10 103 -61.5 162t-153.5 59zM393 82q105 0 158 62.5t60 174.5
h-437q8 -112 60.5 -174.5t158.5 -62.5z" />
    <glyph glyph-name="Ohorn" unicode="&#x1a0;" horiz-adv-x="796" 
d="M725 358q0 -111 -37 -193.5t-111 -128.5t-184 -46q-113 0 -187 46t-110 129t-36 194q0 110 36 192.5t110 128t188 45.5q83 0 146 -27t104 -76q36 13 47 50t11 88h111l7 -11q-13 -66 -43 -116t-93 -74q41 -84 41 -201zM174 358q0 -128 52.5 -202t166.5 -74q115 0 166.5 74
t51.5 202t-51.5 201t-165.5 73q-115 0 -167.5 -73t-52.5 -201z" />
    <glyph glyph-name="ohorn" unicode="&#x1a1;" horiz-adv-x="635" 
d="M558 270q0 -134 -69 -207t-186 -73q-73 0 -129.5 32.5t-89 95t-32.5 152.5q0 134 68 206.5t186 72.5q110 0 178 -68q44 13 56.5 51t12.5 89h109l7 -11q-13 -70 -44 -119t-99 -71q15 -31 23.5 -68.5t8.5 -81.5zM161 270q0 -95 34 -144t110 -49t110 49t34 144t-34.5 143
t-110.5 48t-109.5 -48t-33.5 -143z" />
    <glyph glyph-name="uni01A2" unicode="&#x1a2;" horiz-adv-x="1092" 
d="M697 358q0 -111 -35.5 -193.5t-106.5 -128.5t-176 -46q-108 0 -178.5 46t-105.5 129t-35 194q0 110 35 192.5t106 128t179 45.5q74 0 131.5 -23.5t96.5 -67.5q32 44 83 67.5t110 23.5q99 0 150.5 -53t51.5 -170v-502h-108v498q0 135 -116 135q-49 0 -80.5 -14.5
t-49.5 -41.5q48 -89 48 -219zM174 358q0 -128 49.5 -202t155.5 -74q107 0 155.5 74t48.5 202t-48.5 201t-154.5 73t-156 -73t-50 -201z" />
    <glyph glyph-name="uni01A3" unicode="&#x1a3;" horiz-adv-x="870" 
d="M534 270q0 -134 -65.5 -207t-176.5 -73q-70 0 -124 32.5t-85 95t-31 152.5q0 134 65 206.5t177 72.5q109 0 174 -74q28 38 67.5 56t85.5 18q82 0 126 -47t44 -151v-591h-106v577q0 125 -91 125q-61 0 -91 -42q31 -62 31 -150zM161 270q0 -91 31.5 -142t100.5 -51
q68 0 100 51t32 142q0 92 -32 141.5t-100 49.5q-69 0 -100.5 -49.5t-31.5 -141.5z" />
    <glyph glyph-name="uni01A4" unicode="&#x1a4;" horiz-adv-x="704" 
d="M187 0v623h-26q-31 0 -46 -14.5t-15 -37.5q0 -17 3.5 -31t6.5 -21h-90q-4 10 -7.5 26t-3.5 30q0 66 36 102.5t118 36.5h225q140 0 203.5 -56.5t63.5 -157.5q0 -60 -26.5 -112t-88.5 -84.5t-168 -32.5h-77v-271h-108zM295 362h66q91 0 137 30.5t46 103.5q0 64 -39.5 95.5
t-124.5 31.5h-85v-261z" />
    <glyph glyph-name="uni01A5" unicode="&#x1a5;" horiz-adv-x="620" 
d="M221 765q20 0 38.5 -4.5t29.5 -9.5v-85q-7 3 -21 6.5t-31 3.5q-23 0 -35.5 -13t-12.5 -44v-65q0 -19 -2.5 -43.5t-3.5 -43.5h6q23 34 61.5 58t101.5 24q97 0 156.5 -70t59.5 -209q0 -137 -59 -208.5t-157 -71.5q-62 0 -101 22t-62 53h-6q2 -18 4 -42.5t2 -43.5v-219h-106
v856q0 76 35.5 112.5t102.5 36.5zM327 462q-75 0 -106 -43t-32 -132v-16q0 -94 30 -144t110 -50q66 0 98 54t32 141q0 88 -32.5 139t-99.5 51z" />
    <glyph glyph-name="uni01A6" unicode="&#x1a6;" horiz-adv-x="633" 
d="M499 -100l-172 289h-124v-189h-108v714h108v-100h92q137 0 202.5 -51t65.5 -155q0 -55 -20 -92.5t-52.5 -61.5t-67.5 -37l200 -317h-124zM203 279h90q83 0 121 31.5t38 93.5q0 64 -40 91t-124 27h-85v-243z" />
    <glyph glyph-name="uni01A7" unicode="&#x1a7;" horiz-adv-x="550" 
d="M274 724q102 0 165 -49t63 -137q0 -58 -22 -98t-63 -67.5t-98 -48.5q-86 -32 -126 -60t-40 -78q0 -49 36.5 -76.5t107.5 -27.5q56 0 109.5 15t93.5 32v-98q-37 -18 -89.5 -29.5t-113.5 -11.5q-119 0 -185 53.5t-66 148.5q0 56 23.5 93.5t67 65t104.5 50.5q55 21 89 39.5
t49 41t15 56.5q0 42 -31 67.5t-91 25.5q-42 0 -81.5 -11t-77.5 -28l-33 89q42 19 90 31t104 12z" />
    <glyph glyph-name="uni01A8" unicode="&#x1a8;" horiz-adv-x="484" 
d="M235 549q94 0 148 -36.5t54 -107.5q0 -45 -19 -73.5t-55.5 -49.5t-88.5 -41q-52 -21 -80 -36t-38 -29.5t-10 -32.5q0 -33 28 -52t88 -19q44 0 90 12.5t81 30.5v-90q-34 -17 -75.5 -26t-97.5 -9q-217 0 -217 159q0 67 42 101.5t117 62.5q50 19 79 33t41 28t12 34
q0 27 -26 42.5t-74 15.5q-33 0 -67 -10.5t-69 -25.5l-33 81q41 18 83.5 28t86.5 10z" />
    <glyph glyph-name="uni01A9" unicode="&#x1a9;" horiz-adv-x="577" 
d="M37 0v87l232 286l-226 254v87h478v-93h-243h-38t-43 0.5t-34 1.5l224 -249l-235 -284l74 2t75 1h249v-93h-513z" />
    <glyph glyph-name="uni01AA" unicode="&#x1aa;" horiz-adv-x="375" 
d="M123 766q143 0 143 -152v-682q0 -86 73 -86q23 0 46 4t40 9v-80q-17 -8 -45.5 -13.5t-58.5 -5.5q-47 0 -83 15t-57 52t-21 104v607h-39q-68 0 -98.5 33t-30.5 83q0 28 13 54t41.5 42t76.5 16zM113 692q-20 0 -29 -12t-9 -27q0 -20 14 -30.5t37 -10.5h34v18q0 28 -10.5 45
t-36.5 17z" />
    <glyph glyph-name="uni01AB" unicode="&#x1ab;" horiz-adv-x="383" 
d="M233 -240q-20 0 -37 4t-29 8v82q9 -3 22 -6t28 -3q48 0 48 54v91h-18q-41 0 -76 15t-56.5 52t-21.5 103v298h-75v48l79 40l37 114h65v-121h154v-81h-154v-296q0 -86 78 -86q45 0 81 13v-186q0 -143 -125 -143z" />
    <glyph glyph-name="uni01AC" unicode="&#x1ac;" horiz-adv-x="588" 
d="M253 0v621h-92q-31 0 -46 -13.5t-15 -36.5q0 -17 3.5 -31t6.5 -21h-90q-4 10 -7.5 26t-3.5 30q0 66 36 102.5t118 36.5h412v-93h-214v-621h-108z" />
    <glyph glyph-name="uni01AD" unicode="&#x1ad;" horiz-adv-x="383" 
d="M253 765q24 0 46 -4.5t35 -9.5v-85q-10 3 -32 6.5t-44 3.5q-32 0 -45.5 -16t-13.5 -48v-73h154v-81h-154v-296q0 -44 21.5 -65t56.5 -21q45 0 81 13v-80q-17 -8 -46 -13.5t-58 -5.5q-44 0 -80.5 15t-58.5 52t-22 103v298h-75v48l75 38v62q0 80 41 119.5t119 39.5z" />
    <glyph glyph-name="uni01AE" unicode="&#x1ae;" horiz-adv-x="563" 
d="M374 -240q-71 0 -109 38.5t-38 124.5v698h-214v93h536v-93h-214v-695q0 -42 15.5 -58.5t44.5 -16.5q28 0 48 10v-87q-25 -14 -69 -14z" />
    <glyph glyph-name="Uhorn" unicode="&#x1af;" horiz-adv-x="811" 
d="M649 714v-96q45 10 60.5 47.5t15.5 94.5h109l7 -11q-9 -49 -28.5 -91t-58 -70.5t-105.5 -39.5v-296q0 -74 -29.5 -133.5t-90.5 -94t-158 -34.5q-138 0 -210 72.5t-72 191.5v460h108v-460q0 -84 43.5 -128t132.5 -44q91 0 130 47.5t39 125.5v459h107z" />
    <glyph glyph-name="uhorn" unicode="&#x1b0;" horiz-adv-x="699" 
d="M730 622l7 -11q-9 -49 -28 -92t-57 -72t-105 -37v-410h-85l-15 71h-5q-26 -42 -71.5 -61.5t-96.5 -19.5q-95 0 -145.5 46.5t-50.5 149.5v352h107v-336q0 -63 26.5 -94t82.5 -31q83 0 115 48.5t32 140.5v272h106v-58q44 9 59 47.5t15 94.5h109z" />
    <glyph glyph-name="uni01B1" unicode="&#x1b1;" horiz-adv-x="783" 
d="M392 82q110 0 163.5 61.5t53.5 171.5q0 96 -34 172.5t-122 135.5v91h295v-93h-178q65 -47 108.5 -128t43.5 -189q0 -96 -39 -167t-113 -109.5t-178 -38.5q-106 0 -180 38.5t-113 109t-39 166.5q0 109 43.5 190t109.5 128h-179v93h296v-91q-88 -58 -123 -135.5t-35 -172.5
q0 -110 54.5 -171.5t165.5 -61.5z" />
    <glyph glyph-name="uni01B2" unicode="&#x1b2;" horiz-adv-x="738" 
d="M366 -10q-136 0 -206.5 72.5t-70.5 191.5v460h108v-455q0 -177 174 -177q90 0 130.5 48t40.5 130v303q0 38 -16 53t-44 15q-41 0 -74 -19v88q16 10 43 17t56 7q142 0 142 -148v-324q0 -74 -30.5 -133.5t-93.5 -94t-159 -34.5z" />
    <glyph glyph-name="uni01B3" unicode="&#x1b3;" horiz-adv-x="583" 
d="M65 725q41 0 67 -20t48 -68l116 -257l171 334h116l-234 -437v-277h-108v273l-146 308q-16 32 -28.5 42.5t-28.5 10.5q-20 0 -38 -8v86q10 4 27 8.5t38 4.5z" />
    <glyph glyph-name="uni01B4" unicode="&#x1b4;" horiz-adv-x="564" 
d="M498 549q18 0 35 -4t29 -9v-80q-13 5 -31 5q-19 0 -32.5 -14.5t-27.5 -52.5l-171 -465q-28 -78 -76.5 -123.5t-130.5 -45.5q-22 0 -40.5 2.5t-31.5 5.5v84q10 -2 26 -4t32 -2q45 0 74 26t46 69l21 59l-216 539h114l107 -290q13 -36 24 -71.5t17 -68.5h4q5 24 17.5 62
t26.5 77l69 197q19 53 45 78.5t70 25.5z" />
    <glyph glyph-name="uni01B5" unicode="&#x1b5;" horiz-adv-x="574" 
d="M74 409h184l142 212h-355v93h485v-77l-154 -228h114v-86h-172l-154 -230h375v-93h-505v77l165 246h-125v86z" />
    <glyph glyph-name="uni01B6" unicode="&#x1b6;" horiz-adv-x="475" 
d="M431 539v-75l-104 -147h93v-78h-150l-111 -157h280v-82h-404v67l123 172h-102v78h158l99 140h-261v82h379z" />
    <glyph glyph-name="uni01B7" unicode="&#x1b7;" horiz-adv-x="586" 
d="M505 714v-79l-235 -225q126 -5 196 -56.5t70 -148.5q0 -63 -32 -111.5t-97 -76t-164 -27.5q-59 0 -111.5 9t-98.5 30v96q47 -23 103 -35t105 -12q96 0 140 35t44 96q0 119 -214 119h-65v83l218 210h-310v93h451z" />
    <glyph glyph-name="uni01B8" unicode="&#x1b8;" horiz-adv-x="586" 
d="M333 -10q-98 0 -160.5 29.5t-92.5 79t-30 110.5q0 73 32 121.5t86.5 74t121.5 28.5l-209 202v79h451v-93h-310l196 -193v-77h-72q-86 0 -135.5 -33.5t-49.5 -103.5q0 -64 45 -100t139 -36q49 0 105 12t103 35v-96q-46 -21 -99.5 -30t-120.5 -9z" />
    <glyph glyph-name="uni01B9" unicode="&#x1b9;" horiz-adv-x="522" 
d="M298 -240q-84 0 -142.5 30.5t-89.5 83t-31 118.5q0 111 67.5 171.5t176.5 70.5l-217 231v74h428v-86h-301l212 -226v-75h-59q-98 0 -149 -38t-51 -118q0 -66 44 -107.5t123 -41.5q55 0 105 12.5t87 30.5v-93q-36 -17 -85.5 -27t-117.5 -10z" />
    <glyph glyph-name="uni01BA" unicode="&#x1ba;" horiz-adv-x="522" 
d="M227 -240q-84 0 -138.5 31t-54.5 99q0 36 16.5 65.5t57 48t113.5 19.5q79 1 111 25.5t32 79.5t-44 76.5t-132 21.5h-61v73l173 154h-263v86h408v-73l-184 -159q98 -5 154 -49t56 -130q0 -52 -22.5 -95t-75.5 -69t-147 -29q-56 -1 -76 -12.5t-20 -32.5q0 -46 103 -46
q55 0 98.5 12t74.5 25v-89q-30 -14 -76.5 -23t-102.5 -9z" />
    <glyph glyph-name="uni01BB" unicode="&#x1bb;" horiz-adv-x="570" 
d="M262 765q98 0 153.5 -51.5t55.5 -136.5q0 -41 -10.5 -79t-33.5 -79h91v-78h-142l-213 -253v-5h359v-83h-480v84l213 257h-187v78h246q28 41 38.5 77.5t10.5 76.5q0 49 -29.5 76t-77.5 27q-46 0 -81.5 -18.5t-71.5 -50.5l-54 69q37 34 89 61.5t124 27.5z" />
    <glyph glyph-name="uni01BC" unicode="&#x1bc;" horiz-adv-x="582" 
d="M238 -10q-58 0 -110 9t-95 30v96q43 -22 99 -34.5t105 -12.5q89 0 136.5 36.5t47.5 107.5q0 69 -47.5 101.5t-120.5 32.5h-125v264h-93v94h470v-94h-270v-175h38q75 0 133.5 -26t92 -75.5t33.5 -119.5q0 -104 -72.5 -169t-221.5 -65z" />
    <glyph glyph-name="uni01BD" unicode="&#x1bd;" horiz-adv-x="509" 
d="M221 -10q-56 0 -105.5 9t-81.5 26v92q34 -17 83 -29.5t102 -12.5q61 0 102 22t41 74q0 47 -38.5 68.5t-113.5 21.5h-91v193h-76v85h394v-85h-221v-111h25q119 0 172 -44.5t53 -122.5q0 -51 -26 -93.5t-80.5 -67.5t-138.5 -25z" />
    <glyph glyph-name="uni01BE" unicode="&#x1be;" horiz-adv-x="473" 
d="M210 -10q-109 0 -174 34v93q32 -17 79 -31t93 -14q63 0 91 19t28 53q0 28 -23 46t-79 43q-43 20 -66.5 51.5t-23.5 98.5v75h-93v48l94 40l37 114h65v-121h150v-81h-150v-75q0 -33 10 -48t36 -25q44 -18 76.5 -38.5t51 -49t18.5 -71.5q0 -76 -56.5 -118.5t-163.5 -42.5z
" />
    <glyph glyph-name="uni01BF" unicode="&#x1bf;" horiz-adv-x="601" 
d="M346 549q91 0 149 -60t58 -172q0 -90 -43.5 -161t-125.5 -115.5t-195 -53.5v-227h-106v779h86l15 -72h5q23 34 59.5 58t97.5 24zM319 462q-71 0 -100.5 -43.5t-29.5 -131.5v-211q119 15 187 78.5t68 162.5q0 65 -32.5 105t-92.5 40z" />
    <glyph glyph-name="uni01C0" unicode="&#x1c0;" horiz-adv-x="323" 
d="M118 0v760h87v-760h-87z" />
    <glyph glyph-name="uni01C1" unicode="&#x1c1;" horiz-adv-x="554" 
d="M118 0v760h87v-760h-87zM349 0v760h87v-760h-87z" />
    <glyph glyph-name="uni01C2" unicode="&#x1c2;" horiz-adv-x="516" 
d="M301 760v-246h154v-79h-154v-93h154v-80h-154v-262h-86v262h-154v80h154v93h-154v79h154v246h86z" />
    <glyph glyph-name="uni01C3" unicode="&#x1c3;" horiz-adv-x="274" 
d="M175 212h-75l-25 502h125zM68 59q0 39 20 55t49 16q27 0 47.5 -16t20.5 -55t-20.5 -56t-47.5 -17q-29 0 -49 17t-20 56z" />
    <glyph glyph-name="uni01C4" unicode="&#x1c4;" horiz-adv-x="1297" 
d="M673 364q0 -181 -99.5 -272.5t-278.5 -91.5h-200v714h221q109 0 189 -40t124 -118t44 -192zM560 361q0 135 -65 198.5t-186 63.5h-106v-532h87q270 0 270 270zM1262 0h-505v77l366 544h-355v93h485v-77l-366 -544h375v-93zM957 781q-14 22 -36 49t-46 53t-42 45v13h72
q26 -17 54 -40t54 -50q26 27 55 50.5t55 39.5h73v-13q-19 -19 -43 -44.5t-46.5 -53t-35.5 -49.5h-114z" />
    <glyph glyph-name="uni01C5" unicode="&#x1c5;" horiz-adv-x="1208" 
d="M673 364q0 -181 -99.5 -272.5t-278.5 -91.5h-200v714h221q109 0 189 -40t124 -118t44 -192zM560 361q0 135 -65 198.5t-186 63.5h-106v-532h87q270 0 270 270zM1172 0h-404v67l278 390h-261v82h379v-75l-272 -382h280v-82zM914 606q-14 22 -36 49t-46 53t-42 45v13h72
q26 -17 54 -40t54 -50q26 27 55 50.5t55 39.5h73v-13q-19 -19 -43 -44.5t-46.5 -53t-35.5 -49.5h-114z" />
    <glyph glyph-name="uni01C6" unicode="&#x1c6;" horiz-adv-x="1096" 
d="M268 -10q-98 0 -157 70t-59 208q0 139 60 210t158 71q61 0 100 -23t63 -56h6q-2 14 -5 41t-3 47v202h106v-760h-83l-18 72h-5q-23 -34 -62 -58t-101 -24zM293 77q78 0 109.5 43t32.5 131v16q0 95 -30.5 145t-112.5 50q-65 0 -98 -52t-33 -144q0 -91 33 -140t99 -49z
M1059 0h-404v67l278 390h-261v82h379v-75l-272 -382h280v-82zM801 606q-14 22 -36 49t-46 53t-42 45v13h72q26 -17 54 -40t54 -50q26 27 55 50.5t55 39.5h73v-13q-19 -19 -43 -44.5t-46.5 -53t-35.5 -49.5h-114z" />
    <glyph glyph-name="uni01C7" unicode="&#x1c7;" horiz-adv-x="826" 
d="M95 0v714h108v-621h305v-93h-413zM538 -196q-26 0 -45.5 3.5t-33.5 9.5v90q16 -4 34 -7t38 -3q25 0 47 10t35.5 35.5t13.5 73.5v698h108v-693q0 -113 -54.5 -165t-142.5 -52z" />
    <glyph glyph-name="uni01C8" unicode="&#x1c8;" horiz-adv-x="808" 
d="M95 0v714h108v-621h305v-93h-413zM612 683q0 33 18 47t43 14q24 0 42 -14t18 -47q0 -32 -18 -46.5t-42 -14.5q-25 0 -43 14.5t-18 46.5zM562 -240q-26 0 -47.5 3.5t-36.5 8.5v85q16 -5 32 -7.5t36 -2.5q32 0 52.5 17.5t20.5 66.5v608h106v-613q0 -75 -38.5 -120.5
t-124.5 -45.5z" />
    <glyph glyph-name="uni01C9" unicode="&#x1c9;" horiz-adv-x="544" 
d="M189 0h-106v760h106v-760zM348 683q0 33 18 47t43 14q24 0 42 -14t18 -47q0 -32 -18 -46.5t-42 -14.5q-25 0 -43 14.5t-18 46.5zM298 -240q-26 0 -47.5 3.5t-36.5 8.5v85q16 -5 32 -7.5t36 -2.5q32 0 52.5 17.5t20.5 66.5v608h106v-613q0 -75 -38.5 -120.5t-124.5 -45.5z
" />
    <glyph glyph-name="uni01CA" unicode="&#x1ca;" horiz-adv-x="1066" 
d="M681 0h-131l-361 577h-4q2 -40 4.5 -91.5t3.5 -105.5v-380h-98v714h130l360 -574h3q-1 21 -2.5 53t-2.5 68.5t-2 68.5v384h100v-714zM778 -196q-26 0 -45.5 3.5t-33.5 9.5v90q16 -4 34 -7t38 -3q25 0 47 10t35.5 35.5t13.5 73.5v698h108v-693q0 -113 -54.5 -165
t-142.5 -52z" />
    <glyph glyph-name="uni01CB" unicode="&#x1cb;" horiz-adv-x="1048" 
d="M681 0h-131l-361 577h-4q2 -40 4.5 -91.5t3.5 -105.5v-380h-98v714h130l360 -574h3q-1 21 -2.5 53t-2.5 68.5t-2 68.5v384h100v-714zM852 683q0 33 18 47t43 14q24 0 42 -14t18 -47q0 -32 -18 -46.5t-42 -14.5q-25 0 -43 14.5t-18 46.5zM802 -240q-26 0 -47.5 3.5
t-36.5 8.5v85q16 -5 32 -7.5t36 -2.5q32 0 52.5 17.5t20.5 66.5v608h106v-613q0 -75 -38.5 -120.5t-124.5 -45.5z" />
    <glyph glyph-name="uni01CC" unicode="&#x1cc;" horiz-adv-x="901" 
d="M356 549q94 0 144 -47t50 -151v-351h-105v336q0 126 -111 126q-82 0 -113.5 -49t-31.5 -141v-272h-106v539h84l15 -72h6q26 42 71.5 62t96.5 20zM706 683q0 33 18 47t43 14q24 0 42 -14t18 -47q0 -32 -18 -46.5t-42 -14.5q-25 0 -43 14.5t-18 46.5zM656 -240
q-26 0 -47.5 3.5t-36.5 8.5v85q16 -5 32 -7.5t36 -2.5q32 0 52.5 17.5t20.5 66.5v608h106v-613q0 -75 -38.5 -120.5t-124.5 -45.5z" />
    <glyph glyph-name="uni01CD" unicode="&#x1cd;" horiz-adv-x="654" 
d="M540 0l-76 206h-276l-76 -206h-112l271 717h112l270 -717h-113zM434 300l-72 201q-4 11 -11 33t-14 46t-11 39q-8 -31 -18 -66t-16 -52l-72 -201h214zM269 781q-14 22 -36 49t-46 53t-42 45v13h72q26 -17 54 -40t54 -50q26 27 55 50.5t55 39.5h73v-13q-19 -19 -43 -44.5
t-46.5 -53t-35.5 -49.5h-114z" />
    <glyph glyph-name="uni01CE" unicode="&#x1ce;" horiz-adv-x="574" 
d="M292 549q101 0 151.5 -44.5t50.5 -139.5v-365h-75l-21 75h-4q-35 -44 -73.5 -64.5t-106.5 -20.5q-73 0 -121 39.5t-48 123.5q0 83 62.5 125.5t190.5 46.5l92 3v30q0 59 -27 83.5t-76 24.5q-41 0 -79 -12t-73 -29l-34 77q38 20 87.5 33.5t103.5 13.5zM389 259l-72 -2
q-92 -4 -127.5 -31t-35.5 -74q0 -42 25 -61t65 -19q62 0 103.5 35t41.5 105v47zM230 606q-14 22 -36 49t-46 53t-42 45v13h72q26 -17 54 -40t54 -50q26 27 55 50.5t55 39.5h73v-13q-19 -19 -43 -44.5t-46.5 -53t-35.5 -49.5h-114z" />
    <glyph glyph-name="uni01CF" unicode="&#x1cf;" horiz-adv-x="354" 
d="M315 0h-277v62l85 25v539l-85 26v62h277v-62l-84 -26v-539l84 -25v-62zM120 781q-14 22 -36 49t-46 53t-42 45v13h72q26 -17 54 -40t54 -50q26 27 55 50.5t55 39.5h73v-13q-19 -19 -43 -44.5t-46.5 -53t-35.5 -49.5h-114z" />
    <glyph glyph-name="uni01D0" unicode="&#x1d0;" horiz-adv-x="272" 
d="M189 0h-106v539h106v-539zM79 606q-14 22 -36 49t-46 53t-42 45v13h72q26 -17 54 -40t54 -50q26 27 55 50.5t55 39.5h73v-13q-19 -19 -43 -44.5t-46.5 -53t-35.5 -49.5h-114z" />
    <glyph glyph-name="uni01D1" unicode="&#x1d1;" horiz-adv-x="785" 
d="M725 358q0 -111 -37 -193.5t-111 -128.5t-184 -46q-113 0 -187 46t-110 129t-36 194q0 110 36 192.5t110 128t188 45.5q110 0 183.5 -45.5t110.5 -128t37 -193.5zM174 358q0 -128 53 -202t166 -74q114 0 166 74t52 202t-52 201t-165 73q-114 0 -167 -73t-53 -201z
M336 781q-14 22 -36 49t-46 53t-42 45v13h72q26 -17 54 -40t54 -50q26 27 55 50.5t55 39.5h73v-13q-19 -19 -43 -44.5t-46.5 -53t-35.5 -49.5h-114z" />
    <glyph glyph-name="uni01D2" unicode="&#x1d2;" horiz-adv-x="609" 
d="M558 270q0 -134 -69 -207t-186 -73q-73 0 -129.5 32.5t-89 95t-32.5 152.5q0 134 68 206.5t186 72.5q74 0 130.5 -32.5t89 -94.5t32.5 -152zM161 270q0 -91 34.5 -142t109.5 -51t109.5 51t34.5 142q0 92 -34.5 141.5t-110.5 49.5q-75 0 -109 -49.5t-34 -141.5zM248 606
q-14 22 -36 49t-46 53t-42 45v13h72q26 -17 54 -40t54 -50q26 27 55 50.5t55 39.5h73v-13q-19 -19 -43 -44.5t-46.5 -53t-35.5 -49.5h-114z" />
    <glyph glyph-name="uni01D3" unicode="&#x1d3;" horiz-adv-x="738" 
d="M649 714v-462q0 -74 -30.5 -133.5t-93.5 -94t-159 -34.5q-136 0 -206.5 72.5t-70.5 191.5v460h108v-455q0 -177 174 -177q90 0 130.5 48t40.5 130v454h107zM312 781q-14 22 -36 49t-46 53t-42 45v13h72q26 -17 54 -40t54 -50q26 27 55 50.5t55 39.5h73v-13
q-19 -19 -43 -44.5t-46.5 -53t-35.5 -49.5h-114z" />
    <glyph glyph-name="uni01D4" unicode="&#x1d4;" horiz-adv-x="630" 
d="M547 539v-539h-85l-15 71h-5q-26 -42 -72 -61.5t-97 -19.5q-95 0 -145 46.5t-50 149.5v353h107v-337q0 -63 26.5 -94t82.5 -31q83 0 115 48.5t32 140.5v273h106zM258 606q-14 22 -36 49t-46 53t-42 45v13h72q26 -17 54 -40t54 -50q26 27 55 50.5t55 39.5h73v-13
q-19 -19 -43 -44.5t-46.5 -53t-35.5 -49.5h-114z" />
    <glyph glyph-name="uni01D5" unicode="&#x1d5;" horiz-adv-x="738" 
d="M649 714v-462q0 -74 -30.5 -133.5t-93.5 -94t-159 -34.5q-136 0 -206.5 72.5t-70.5 191.5v460h108v-455q0 -177 174 -177q90 0 130.5 48t40.5 130v454h107zM523 1017v-78h-307v78h307zM275 881q21 0 36 -13t15 -40q0 -28 -15 -40.5t-36 -12.5q-22 0 -37 12.5t-15 40.5
q0 27 15 40t37 13zM464 881q22 0 37 -13t15 -40q0 -28 -15 -40.5t-37 -12.5q-21 0 -36 12.5t-15 40.5q0 27 15 40t36 13z" />
    <glyph glyph-name="uni01D6" unicode="&#x1d6;" horiz-adv-x="630" 
d="M547 539v-539h-85l-15 71h-5q-26 -42 -72 -61.5t-97 -19.5q-95 0 -145 46.5t-50 149.5v353h107v-337q0 -63 26.5 -94t82.5 -31q83 0 115 48.5t32 140.5v273h106zM468 842v-78h-307v78h307zM220 706q21 0 36 -13t15 -40q0 -28 -15 -40.5t-36 -12.5q-22 0 -37 12.5
t-15 40.5q0 27 15 40t37 13zM409 706q22 0 37 -13t15 -40q0 -28 -15 -40.5t-37 -12.5q-21 0 -36 12.5t-15 40.5q0 27 15 40t36 13z" />
    <glyph glyph-name="uni01D7" unicode="&#x1d7;" horiz-adv-x="738" 
d="M649 714v-462q0 -74 -30.5 -133.5t-93.5 -94t-159 -34.5q-136 0 -206.5 72.5t-70.5 191.5v460h108v-455q0 -177 174 -177q90 0 130.5 48t40.5 130v454h107zM313 904v12q23 28 50.5 63.5t44.5 69.5h121v-10q-13 -19 -38.5 -44t-54.5 -49.5t-52 -41.5h-71zM275 775
q-22 0 -37 12.5t-15 40.5q0 27 15 40t37 13q21 0 36 -13t15 -40q0 -28 -15 -40.5t-36 -12.5zM464 775q-21 0 -36 12.5t-15 40.5q0 27 15 40t36 13q22 0 37 -13t15 -40q0 -28 -15 -40.5t-37 -12.5z" />
    <glyph glyph-name="uni01D8" unicode="&#x1d8;" horiz-adv-x="630" 
d="M547 539v-539h-85l-15 71h-5q-26 -42 -72 -61.5t-97 -19.5q-95 0 -145 46.5t-50 149.5v353h107v-337q0 -63 26.5 -94t82.5 -31q83 0 115 48.5t32 140.5v273h106zM258 729v12q23 28 50.5 63.5t44.5 69.5h121v-10q-13 -19 -38.5 -44t-54.5 -49.5t-52 -41.5h-71zM220 600
q-22 0 -37 12.5t-15 40.5q0 27 15 40t37 13q21 0 36 -13t15 -40q0 -28 -15 -40.5t-36 -12.5zM409 600q-21 0 -36 12.5t-15 40.5q0 27 15 40t36 13q22 0 37 -13t15 -40q0 -28 -15 -40.5t-37 -12.5z" />
    <glyph glyph-name="uni01D9" unicode="&#x1d9;" horiz-adv-x="738" 
d="M649 714v-462q0 -74 -30.5 -133.5t-93.5 -94t-159 -34.5q-136 0 -206.5 72.5t-70.5 191.5v460h108v-455q0 -177 174 -177q90 0 130.5 48t40.5 130v454h107zM318 909q-21 34 -57 70l-64 64v13h63q27 -17 55.5 -35t53.5 -44q26 26 54.5 44t55.5 35h64v-13
q-19 -18 -42.5 -41t-45 -47t-34.5 -46h-103zM275 775q-22 0 -37 12.5t-15 40.5q0 27 15 40t37 13q21 0 36 -13t15 -40q0 -28 -15 -40.5t-36 -12.5zM464 775q-21 0 -36 12.5t-15 40.5q0 27 15 40t36 13q22 0 37 -13t15 -40q0 -28 -15 -40.5t-37 -12.5z" />
    <glyph glyph-name="uni01DA" unicode="&#x1da;" horiz-adv-x="630" 
d="M547 539v-539h-85l-15 71h-5q-26 -42 -72 -61.5t-97 -19.5q-95 0 -145 46.5t-50 149.5v353h107v-337q0 -63 26.5 -94t82.5 -31q83 0 115 48.5t32 140.5v273h106zM263 734q-21 34 -57 70l-64 64v13h63q27 -17 55.5 -35t53.5 -44q26 26 54.5 44t55.5 35h64v-13
q-19 -18 -42.5 -41t-45 -47t-34.5 -46h-103zM220 600q-22 0 -37 12.5t-15 40.5q0 27 15 40t37 13q21 0 36 -13t15 -40q0 -28 -15 -40.5t-36 -12.5zM409 600q-21 0 -36 12.5t-15 40.5q0 27 15 40t36 13q22 0 37 -13t15 -40q0 -28 -15 -40.5t-37 -12.5z" />
    <glyph glyph-name="uni01DB" unicode="&#x1db;" horiz-adv-x="738" 
d="M649 714v-462q0 -74 -30.5 -133.5t-93.5 -94t-159 -34.5q-136 0 -206.5 72.5t-70.5 191.5v460h108v-455q0 -177 174 -177q90 0 130.5 48t40.5 130v454h107zM332 1049q17 -34 44.5 -69.5t50.5 -63.5v-12h-71q-23 17 -52 41.5t-54.5 49.5t-38.5 44v10h121zM275 881
q21 0 36 -13t15 -40q0 -28 -15 -40.5t-36 -12.5q-22 0 -37 12.5t-15 40.5q0 27 15 40t37 13zM464 881q22 0 37 -13t15 -40q0 -28 -15 -40.5t-37 -12.5q-21 0 -36 12.5t-15 40.5q0 27 15 40t36 13z" />
    <glyph glyph-name="uni01DC" unicode="&#x1dc;" horiz-adv-x="630" 
d="M547 539v-539h-85l-15 71h-5q-26 -42 -72 -61.5t-97 -19.5q-95 0 -145 46.5t-50 149.5v353h107v-337q0 -63 26.5 -94t82.5 -31q83 0 115 48.5t32 140.5v273h106zM277 874q17 -34 44.5 -69.5t50.5 -63.5v-12h-71q-23 17 -52 41.5t-54.5 49.5t-38.5 44v10h121zM220 706
q21 0 36 -13t15 -40q0 -28 -15 -40.5t-36 -12.5q-22 0 -37 12.5t-15 40.5q0 27 15 40t37 13zM409 706q22 0 37 -13t15 -40q0 -28 -15 -40.5t-37 -12.5q-21 0 -36 12.5t-15 40.5q0 27 15 40t36 13z" />
    <glyph glyph-name="uni01DD" unicode="&#x1dd;" horiz-adv-x="572" 
d="M255 549q79 0 138.5 -31t93 -92.5t33.5 -152.5q0 -90 -30.5 -153.5t-85 -96.5t-127.5 -33q-106 0 -167 66t-61 178v58h362q-2 82 -43.5 126.5t-116.5 44.5q-52 0 -92.5 -9.5t-83.5 -28.5v88q41 19 82 27.5t98 8.5zM409 214h-254q1 -63 30.5 -102.5t91.5 -39.5
q57 0 91.5 37t40.5 105z" />
    <glyph glyph-name="uni01DE" unicode="&#x1de;" horiz-adv-x="654" 
d="M540 0l-76 206h-276l-76 -206h-112l271 717h112l270 -717h-113zM434 300l-72 201q-4 11 -11 33t-14 46t-11 39q-8 -31 -18 -66t-16 -52l-72 -201h214zM479 1017v-78h-307v78h307zM231 881q21 0 36 -13t15 -40q0 -28 -15 -40.5t-36 -12.5q-22 0 -37 12.5t-15 40.5
q0 27 15 40t37 13zM420 881q22 0 37 -13t15 -40q0 -28 -15 -40.5t-37 -12.5q-21 0 -36 12.5t-15 40.5q0 27 15 40t36 13z" />
    <glyph glyph-name="uni01DF" unicode="&#x1df;" horiz-adv-x="574" 
d="M292 549q101 0 151.5 -44.5t50.5 -139.5v-365h-75l-21 75h-4q-35 -44 -73.5 -64.5t-106.5 -20.5q-73 0 -121 39.5t-48 123.5q0 83 62.5 125.5t190.5 46.5l92 3v30q0 59 -27 83.5t-76 24.5q-41 0 -79 -12t-73 -29l-34 77q38 20 87.5 33.5t103.5 13.5zM389 259l-72 -2
q-92 -4 -127.5 -31t-35.5 -74q0 -42 25 -61t65 -19q62 0 103.5 35t41.5 105v47zM440 842v-78h-307v78h307zM192 706q21 0 36 -13t15 -40q0 -28 -15 -40.5t-36 -12.5q-22 0 -37 12.5t-15 40.5q0 27 15 40t37 13zM381 706q22 0 37 -13t15 -40q0 -28 -15 -40.5t-37 -12.5
q-21 0 -36 12.5t-15 40.5q0 27 15 40t36 13z" />
    <glyph glyph-name="uni01E0" unicode="&#x1e0;" horiz-adv-x="654" 
d="M540 0l-76 206h-276l-76 -206h-112l271 717h112l270 -717h-113zM434 300l-72 201q-4 11 -11 33t-14 46t-11 39q-8 -31 -18 -66t-16 -52l-72 -201h214zM479 1007v-78h-307v78h307zM327 883q23 0 39 -14t16 -44q0 -29 -16 -43t-39 -14q-24 0 -40 14t-16 43q0 30 16 44
t40 14z" />
    <glyph glyph-name="uni01E1" unicode="&#x1e1;" horiz-adv-x="574" 
d="M292 549q101 0 151.5 -44.5t50.5 -139.5v-365h-75l-21 75h-4q-35 -44 -73.5 -64.5t-106.5 -20.5q-73 0 -121 39.5t-48 123.5q0 83 62.5 125.5t190.5 46.5l92 3v30q0 59 -27 83.5t-76 24.5q-41 0 -79 -12t-73 -29l-34 77q38 20 87.5 33.5t103.5 13.5zM389 259l-72 -2
q-92 -4 -127.5 -31t-35.5 -74q0 -42 25 -61t65 -19q62 0 103.5 35t41.5 105v47zM440 842v-77h-307v77h307zM286 719q23 0 39 -14t16 -44q0 -29 -16 -43t-39 -14t-39 14t-16 43q0 30 16 44t39 14z" />
    <glyph glyph-name="uni01E2" unicode="&#x1e2;" horiz-adv-x="902" 
d="M842 0h-388v206h-247l-97 -206h-111l334 714h509v-92h-280v-204h262v-91h-262v-234h280v-93zM248 300h206v320h-59zM650 861v-80h-307v80h307z" />
    <glyph glyph-name="uni01E3" unicode="&#x1e3;" horiz-adv-x="880" 
d="M614 549q66 0 115 -30t75.5 -84.5t26.5 -127.5v-60h-346q2 -86 40.5 -128.5t108.5 -42.5q50 0 90 9.5t81 28.5v-88q-41 -19 -80.5 -27.5t-94.5 -8.5q-68 0 -121 27.5t-85 81.5q-38 -52 -83 -80.5t-125 -28.5q-48 0 -87 17.5t-61.5 53.5t-22.5 92q0 165 241 172l91 3v36
q0 56 -28 79t-75 23q-39 0 -77 -12t-72 -28l-33 76q38 20 88 33.5t102 13.5q120 0 165 -80q28 38 69.5 59t97.5 21zM613 467q-55 0 -88 -36t-38 -106h237q0 63 -27.5 102.5t-83.5 39.5zM376 259l-69 -2q-86 -4 -119.5 -31t-33.5 -74q0 -42 23.5 -61t62.5 -19q58 0 97 35
t39 105v47zM600 686v-80h-307v80h307z" />
    <glyph glyph-name="uni01E4" unicode="&#x1e4;" horiz-adv-x="727" 
d="M406 -10q-175 0 -260.5 98t-85.5 267q0 111 43.5 194t126.5 129t201 46q59 0 113 -12t100 -31l-39 -90q-37 17 -84 28.5t-96 11.5q-119 0 -186 -72.5t-67 -202.5t58 -203.5t188 -73.5q41 0 71 4t55 11v65h-141v78h141v69h-151v91h258v-160h64v-78h-64v-129
q-53 -17 -110 -28.5t-135 -11.5z" />
    <glyph glyph-name="uni01E5" unicode="&#x1e5;" horiz-adv-x="620" 
d="M269 549q52 0 94 -20t71 -61h5l12 71h86v-566h57v-72h-66q-16 -65 -75.5 -103t-164.5 -38q-58 0 -107 8t-90 25v91q87 -42 203 -42q101 0 124 59h-161v72h175v61q0 16 1 35.5t2 32.5h-4q-28 -42 -68.5 -61.5t-93.5 -19.5q-102 0 -159.5 68.5t-57.5 193.5
q0 123 57.5 194.5t159.5 71.5zM291 461q-63 0 -96.5 -45.5t-33.5 -133.5q0 -178 132 -178q74 0 108.5 37t34.5 123v14q0 97 -35 140t-110 43z" />
    <glyph glyph-name="uni01E6" unicode="&#x1e6;" horiz-adv-x="727" 
d="M393 384h258v-356q-57 -19 -116.5 -28.5t-135.5 -9.5q-164 0 -251.5 97t-87.5 270q0 112 43.5 194.5t126.5 127.5t201 45q59 0 113 -12t100 -31l-39 -90q-37 17 -83 28.5t-95 11.5q-79 0 -136.5 -33.5t-88 -95.5t-30.5 -146q0 -80 25 -142t79 -97t141 -35q43 0 72.5 4.5
t54.5 10.5v194h-151v93zM346 781q-14 22 -36 49t-46 53t-42 45v13h72q26 -17 54 -40t54 -50q26 27 55 50.5t55 39.5h73v-13q-19 -19 -43 -44.5t-46.5 -53t-35.5 -49.5h-114z" />
    <glyph glyph-name="uni01E7" unicode="&#x1e7;" horiz-adv-x="620" 
d="M269 549q52 0 94 -20t71 -61h5l12 71h86v-546q0 -233 -249 -233q-58 0 -107 8t-90 25v93q42 -21 93.5 -31.5t109.5 -10.5q65 0 101.5 37.5t36.5 105.5v18q0 13 1 34t2 32h-4q-28 -42 -68.5 -61.5t-93.5 -19.5q-102 0 -159.5 73.5t-57.5 204.5q0 130 57.5 205.5
t159.5 75.5zM291 461q-63 0 -96.5 -49.5t-33.5 -144.5q0 -94 33.5 -143t98.5 -49q74 0 108.5 40.5t34.5 132.5v20q0 104 -35 148.5t-110 44.5zM245 606q-14 22 -36 49t-46 53t-42 45v13h72q26 -17 54 -40t54 -50q26 27 55 50.5t55 39.5h73v-13q-19 -19 -43 -44.5t-46.5 -53
t-35.5 -49.5h-114z" />
    <glyph glyph-name="uni01E8" unicode="&#x1e8;" horiz-adv-x="632" 
d="M632 0h-125l-234 329l-70 -58v-271h-108v714h108v-345q25 30 52 60t52 61l193 224h124l-273 -312zM286 781q-14 22 -36 49t-46 53t-42 45v13h72q26 -17 54 -40t54 -50q26 27 55 50.5t55 39.5h73v-13q-19 -19 -43 -44.5t-46.5 -53t-35.5 -49.5h-114z" />
    <glyph glyph-name="uni01E9" unicode="&#x1e9;" horiz-adv-x="559" 
d="M188 760v-380q0 -20 -2 -48t-3 -50h3q11 15 30.5 39.5t34.5 40.5l165 177h123l-217 -231l231 -308h-125l-178 241l-62 -52v-189h-105v760h105zM81 827q-14 22 -36 49t-46 53t-42 45v13h72q26 -17 54 -40t54 -50q26 27 55 50.5t55 39.5h73v-13q-19 -19 -43 -44.5
t-46.5 -53t-35.5 -49.5h-114z" />
    <glyph glyph-name="uni01EA" unicode="&#x1ea;" horiz-adv-x="785" 
d="M725 358q0 -111 -37 -193.5t-111 -128.5t-184 -46q-113 0 -187 46t-110 129t-36 194q0 110 36 192.5t110 128t188 45.5q110 0 183.5 -45.5t110.5 -128t37 -193.5zM174 358q0 -128 53 -202t166 -74q114 0 166 74t52 202t-52 201t-165 73q-114 0 -167 -73t-53 -201z
M393 -115q0 -22 11.5 -32.5t31.5 -10.5q16 0 29 2.5t22 4.5v-65q-15 -4 -30.5 -7t-35.5 -3q-55 0 -82 26.5t-27 72.5q0 29 14.5 56t37 49.5t45.5 37.5l53 -16q-34 -32 -51.5 -59t-17.5 -56z" />
    <glyph glyph-name="uni01EB" unicode="&#x1eb;" horiz-adv-x="609" 
d="M558 270q0 -134 -69 -207t-186 -73q-73 0 -129.5 32.5t-89 95t-32.5 152.5q0 134 68 206.5t186 72.5q74 0 130.5 -32.5t89 -94.5t32.5 -152zM161 270q0 -91 34.5 -142t109.5 -51t109.5 51t34.5 142q0 92 -34.5 141.5t-110.5 49.5q-75 0 -109 -49.5t-34 -141.5zM303 -115
q0 -22 11.5 -32.5t31.5 -10.5q16 0 29 2.5t22 4.5v-65q-15 -4 -30.5 -7t-35.5 -3q-55 0 -82 26.5t-27 72.5q0 29 14.5 56t37 49.5t45.5 37.5l53 -16q-34 -32 -51.5 -59t-17.5 -56z" />
    <glyph glyph-name="uni01EC" unicode="&#x1ec;" horiz-adv-x="785" 
d="M725 358q0 -111 -37 -193.5t-111 -128.5t-184 -46q-113 0 -187 46t-110 129t-36 194q0 110 36 192.5t110 128t188 45.5q110 0 183.5 -45.5t110.5 -128t37 -193.5zM174 358q0 -128 53 -202t166 -74q114 0 166 74t52 202t-52 201t-165 73q-114 0 -167 -73t-53 -201z
M546 861v-80h-307v80h307zM401 -115q0 -22 11.5 -32.5t31.5 -10.5q16 0 29 2.5t22 4.5v-65q-15 -4 -30.5 -7t-35.5 -3q-55 0 -82 26.5t-27 72.5q0 29 14.5 56t37 49.5t45.5 37.5l53 -16q-34 -32 -51.5 -59t-17.5 -56z" />
    <glyph glyph-name="uni01ED" unicode="&#x1ed;" horiz-adv-x="609" 
d="M558 270q0 -134 -69 -207t-186 -73q-73 0 -129.5 32.5t-89 95t-32.5 152.5q0 134 68 206.5t186 72.5q74 0 130.5 -32.5t89 -94.5t32.5 -152zM161 270q0 -91 34.5 -142t109.5 -51t109.5 51t34.5 142q0 92 -34.5 141.5t-110.5 49.5q-75 0 -109 -49.5t-34 -141.5zM458 686
v-80h-307v80h307zM303 -115q0 -22 11.5 -32.5t31.5 -10.5q16 0 29 2.5t22 4.5v-65q-15 -4 -30.5 -7t-35.5 -3q-55 0 -82 26.5t-27 72.5q0 29 14.5 56t37 49.5t45.5 37.5l53 -16q-34 -32 -51.5 -59t-17.5 -56z" />
    <glyph glyph-name="uni01EE" unicode="&#x1ee;" horiz-adv-x="586" 
d="M505 714v-79l-235 -225q126 -5 196 -56.5t70 -148.5q0 -63 -32 -111.5t-97 -76t-164 -27.5q-59 0 -111.5 9t-98.5 30v96q47 -23 103 -35t105 -12q96 0 140 35t44 96q0 119 -214 119h-65v83l218 210h-310v93h451zM222 781q-14 22 -36 49t-46 53t-42 45v13h72
q26 -17 54 -40t54 -50q26 27 55 50.5t55 39.5h73v-13q-19 -19 -43 -44.5t-46.5 -53t-35.5 -49.5h-114z" />
    <glyph glyph-name="uni01EF" unicode="&#x1ef;" horiz-adv-x="522" 
d="M461 539v-74l-218 -231q111 -10 177.5 -69.5t66.5 -163.5q0 -71 -32.5 -125t-94 -85t-148.5 -31q-59 0 -108 9.5t-86 26.5v94q38 -18 88.5 -30.5t105.5 -12.5q81 0 124.5 42.5t43.5 112.5q0 75 -51 112.5t-149 37.5h-58v75l213 226h-301v86h427zM193 606q-14 22 -36 49
t-46 53t-42 45v13h72q26 -17 54 -40t54 -50q26 27 55 50.5t55 39.5h73v-13q-19 -19 -43 -44.5t-46.5 -53t-35.5 -49.5h-114z" />
    <glyph glyph-name="uni01F0" unicode="&#x1f0;" horiz-adv-x="272" 
d="M26 -240q-26 0 -47.5 3.5t-36.5 8.5v85q16 -5 32 -7.5t36 -2.5q32 0 52.5 17.5t20.5 66.5v608h106v-613q0 -75 -38.5 -120.5t-124.5 -45.5zM79 606q-14 22 -36 49t-46 53t-42 45v13h72q26 -17 54 -40t54 -50q26 27 55 50.5t55 39.5h73v-13q-19 -19 -43 -44.5t-46.5 -53
t-35.5 -49.5h-114z" />
    <glyph glyph-name="uni01F1" unicode="&#x1f1;" horiz-adv-x="1297" 
d="M673 364q0 -181 -99.5 -272.5t-278.5 -91.5h-200v714h221q109 0 189 -40t124 -118t44 -192zM560 361q0 135 -65 198.5t-186 63.5h-106v-532h87q270 0 270 270zM1262 0h-505v77l366 544h-355v93h485v-77l-366 -544h375v-93z" />
    <glyph glyph-name="uni01F2" unicode="&#x1f2;" horiz-adv-x="1208" 
d="M673 364q0 -181 -99.5 -272.5t-278.5 -91.5h-200v714h221q109 0 189 -40t124 -118t44 -192zM560 361q0 135 -65 198.5t-186 63.5h-106v-532h87q270 0 270 270zM1172 0h-404v67l278 390h-261v82h379v-75l-272 -382h280v-82z" />
    <glyph glyph-name="uni01F3" unicode="&#x1f3;" horiz-adv-x="1096" 
d="M268 -10q-98 0 -157 70t-59 208q0 139 60 210t158 71q61 0 100 -23t63 -56h6q-2 14 -5 41t-3 47v202h106v-760h-83l-18 72h-5q-23 -34 -62 -58t-101 -24zM293 77q78 0 109.5 43t32.5 131v16q0 95 -30.5 145t-112.5 50q-65 0 -98 -52t-33 -144q0 -91 33 -140t99 -49z
M1059 0h-404v67l278 390h-261v82h379v-75l-272 -382h280v-82z" />
    <glyph glyph-name="uni01F4" unicode="&#x1f4;" horiz-adv-x="727" 
d="M393 384h258v-356q-57 -19 -116.5 -28.5t-135.5 -9.5q-164 0 -251.5 97t-87.5 270q0 112 43.5 194.5t126.5 127.5t201 45q59 0 113 -12t100 -31l-39 -90q-37 17 -83 28.5t-95 11.5q-79 0 -136.5 -33.5t-88 -95.5t-30.5 -146q0 -80 25 -142t79 -97t141 -35q43 0 72.5 4.5
t54.5 10.5v194h-151v93zM560 941v-10q-15 -18 -42.5 -46.5t-58 -57t-54.5 -46.5h-70v12q15 18 34 44.5t36.5 54t30.5 49.5h124z" />
    <glyph glyph-name="uni01F5" unicode="&#x1f5;" horiz-adv-x="620" 
d="M269 549q52 0 94 -20t71 -61h5l12 71h86v-546q0 -233 -249 -233q-58 0 -107 8t-90 25v93q42 -21 93.5 -31.5t109.5 -10.5q65 0 101.5 37.5t36.5 105.5v18q0 13 1 34t2 32h-4q-28 -42 -68.5 -61.5t-93.5 -19.5q-102 0 -159.5 73.5t-57.5 204.5q0 130 57.5 205.5
t159.5 75.5zM291 461q-63 0 -96.5 -49.5t-33.5 -144.5q0 -94 33.5 -143t98.5 -49q74 0 108.5 40.5t34.5 132.5v20q0 104 -35 148.5t-110 44.5zM458 766v-10q-15 -18 -42.5 -46.5t-58 -57t-54.5 -46.5h-70v12q15 18 34 44.5t36.5 54t30.5 49.5h124z" />
    <glyph glyph-name="uni01F6" unicode="&#x1f6;" horiz-adv-x="970" 
d="M95 0v714h108v-296h278v296h108v-529q0 -103 93 -103q48 0 70 27.5t22 79.5v350h108v-351q0 -89 -49.5 -143t-152.5 -54q-100 0 -149.5 49.5t-49.5 141.5v144h-278v-326h-108z" />
    <glyph glyph-name="uni01F7" unicode="&#x1f7;" horiz-adv-x="665" 
d="M398 725q62 0 110.5 -27.5t76 -82.5t27.5 -139q0 -91 -39 -179.5t-129 -166.5t-241 -136v-234h-108v955h84l18 -96h4q29 43 76.5 74.5t120.5 31.5zM374 633q-93 0 -132 -60.5t-39 -162.5v-315q149 61 224.5 161t75.5 219q0 79 -34 118.5t-95 39.5z" />
    <glyph glyph-name="uni01F8" unicode="&#x1f8;" horiz-adv-x="776" 
d="M681 0h-131l-361 577h-4q2 -40 4.5 -91.5t3.5 -105.5v-380h-98v714h130l360 -574h3q-1 21 -2.5 53t-2.5 68.5t-2 68.5v384h100v-714zM362 941q12 -22 30 -49.5t37.5 -54t34.5 -44.5v-12h-71q-24 18 -54.5 46.5t-58 57t-41.5 46.5v10h123z" />
    <glyph glyph-name="uni01F9" unicode="&#x1f9;" horiz-adv-x="630" 
d="M356 549q94 0 144 -47t50 -151v-351h-105v336q0 126 -111 126q-82 0 -113.5 -49t-31.5 -141v-272h-106v539h84l15 -72h6q26 42 71.5 62t96.5 20zM289 766q12 -22 30 -49.5t37.5 -54t34.5 -44.5v-12h-71q-24 18 -54.5 46.5t-58 57t-41.5 46.5v10h123z" />
    <glyph glyph-name="Aringacute" unicode="&#x1fa;" horiz-adv-x="655" 
d="M275 837v9q21 22 45 54t40 58h124v-7q-10 -14 -34.5 -35.5t-53 -43t-50.5 -35.5h-71zM0 0l254 618q-41 28 -41 84q0 52 31.5 80.5t81.5 28.5q48 0 81.5 -28.5t33.5 -79.5q0 -29 -11 -50t-29 -34l254 -619h-114l-73 183h-285l-70 -183h-113zM326 649q24 0 38.5 13.5
t14.5 39.5t-15 40t-38 14t-38.5 -14t-15.5 -40q0 -25 14 -39t40 -14zM215 277h225l-73 187q-8 20 -20.5 54.5t-19.5 60.5q-5 -17 -12.5 -40t-15 -44t-11.5 -32z" />
    <glyph glyph-name="aringacute" unicode="&#x1fb;" horiz-adv-x="574" 
d="M457 958v-6q-11 -12 -39 -30t-60 -36t-54 -30h-74v8q21 19 45 45.5t40 48.5h142zM291 817q49 0 82 -28.5t33 -78.5q0 -52 -33 -81t-82 -29q-50 0 -81 28.5t-31 80.5q0 51 31 79.5t81 28.5zM291 762q-23 0 -38 -14t-15 -39t14 -39.5t39 -14.5q23 0 38.5 14.5t15.5 39.5
t-15.5 39t-38.5 14zM292 549q101 0 151.5 -44.5t50.5 -139.5v-365h-75l-21 75h-4q-35 -44 -73.5 -64.5t-106.5 -20.5q-73 0 -121 39.5t-48 123.5q0 83 62.5 125.5t190.5 46.5l92 3v30q0 59 -27 83.5t-76 24.5q-41 0 -79 -12t-73 -29l-34 77q38 20 87.5 33.5t103.5 13.5z
M389 259l-72 -2q-92 -4 -127.5 -31t-35.5 -74q0 -42 25 -61t65 -19q62 0 103.5 35t41.5 105v47z" />
    <glyph glyph-name="AEacute" unicode="&#x1fc;" horiz-adv-x="902" 
d="M842 0h-388v206h-247l-97 -206h-111l334 714h509v-92h-280v-204h262v-91h-262v-234h280v-93zM248 300h206v320h-59zM653 941v-10q-15 -18 -42.5 -46.5t-58 -57t-54.5 -46.5h-70v12q15 18 34 44.5t36.5 54t30.5 49.5h124z" />
    <glyph glyph-name="aeacute" unicode="&#x1fd;" horiz-adv-x="880" 
d="M614 549q66 0 115 -30t75.5 -84.5t26.5 -127.5v-60h-346q2 -86 40.5 -128.5t108.5 -42.5q50 0 90 9.5t81 28.5v-88q-41 -19 -80.5 -27.5t-94.5 -8.5q-68 0 -121 27.5t-85 81.5q-38 -52 -83 -80.5t-125 -28.5q-48 0 -87 17.5t-61.5 53.5t-22.5 92q0 165 241 172l91 3v36
q0 56 -28 79t-75 23q-39 0 -77 -12t-72 -28l-33 76q38 20 88 33.5t102 13.5q120 0 165 -80q28 38 69.5 59t97.5 21zM613 467q-55 0 -88 -36t-38 -106h237q0 63 -27.5 102.5t-83.5 39.5zM376 259l-69 -2q-86 -4 -119.5 -31t-33.5 -74q0 -42 23.5 -61t62.5 -19q58 0 97 35
t39 105v47zM603 766v-10q-15 -18 -42.5 -46.5t-58 -57t-54.5 -46.5h-70v12q15 18 34 44.5t36.5 54t30.5 49.5h124z" />
    <glyph glyph-name="Oslashacute" unicode="&#x1fe;" horiz-adv-x="785" 
d="M725 358q0 -111 -37 -193.5t-111 -128.5t-184 -46q-107 0 -179 43l-47 -68l-66 44l50 72q-46 49 -68.5 119.5t-22.5 158.5q0 110 36 192.5t110 128t188 45.5q51 0 95 -11.5t80 -30.5l45 65l66 -44l-49 -69q47 -48 70.5 -118.5t23.5 -158.5zM174 358q0 -57 10 -103.5
t31 -80.5l298 427q-48 31 -119 31q-114 0 -167 -73t-53 -201zM611 358q0 117 -43 185l-297 -428q23 -16 54 -24.5t68 -8.5q114 0 166 74t52 202zM551 941v-10q-15 -18 -42.5 -46.5t-58 -57t-54.5 -46.5h-70v12q15 18 34 44.5t36.5 54t30.5 49.5h124z" />
    <glyph glyph-name="oslashacute" unicode="&#x1ff;" horiz-adv-x="609" 
d="M558 270q0 -134 -69 -207t-186 -73q-69 0 -125 30l-37 -54l-63 42l41 59q-32 36 -49.5 87t-17.5 116q0 134 68 206.5t186 72.5q36 0 68 -8.5t60 -24.5l36 51l63 -42l-40 -56q30 -36 47.5 -85.5t17.5 -113.5zM161 270q0 -34 4.5 -63t15.5 -51l200 285q-31 20 -77 20
q-75 0 -109 -49.5t-34 -141.5zM449 270q0 64 -18 108l-200 -283q30 -18 74 -18q75 0 109.5 51t34.5 142zM462 766v-10q-15 -18 -42.5 -46.5t-58 -57t-54.5 -46.5h-70v12q15 18 34 44.5t36.5 54t30.5 49.5h124z" />
    <glyph glyph-name="uni0200" unicode="&#x200;" horiz-adv-x="654" 
d="M540 0l-76 206h-276l-76 -206h-112l271 717h112l270 -717h-113zM434 300l-72 201q-4 11 -11 33t-14 46t-11 39q-8 -31 -18 -66t-16 -52l-72 -201h214zM382 941q16 -34 40.5 -77t45.5 -71v-12h-59q-22 18 -51 46.5t-53 57t-35 46.5v10h112zM201 941q16 -34 40 -77t45 -71
v-12h-58q-23 18 -51 46.5t-53 57t-35 46.5v10h112z" />
    <glyph glyph-name="uni0201" unicode="&#x201;" horiz-adv-x="574" 
d="M292 549q101 0 151.5 -44.5t50.5 -139.5v-365h-75l-21 75h-4q-35 -44 -73.5 -64.5t-106.5 -20.5q-73 0 -121 39.5t-48 123.5q0 83 62.5 125.5t190.5 46.5l92 3v30q0 59 -27 83.5t-76 24.5q-41 0 -79 -12t-73 -29l-34 77q38 20 87.5 33.5t103.5 13.5zM389 259l-72 -2
q-92 -4 -127.5 -31t-35.5 -74q0 -42 25 -61t65 -19q62 0 103.5 35t41.5 105v47zM343 766q16 -34 40.5 -77t45.5 -71v-12h-59q-22 18 -51 46.5t-53 57t-35 46.5v10h112zM162 766q16 -34 40 -77t45 -71v-12h-58q-23 18 -51 46.5t-53 57t-35 46.5v10h112z" />
    <glyph glyph-name="uni0202" unicode="&#x202;" horiz-adv-x="654" 
d="M540 0l-76 206h-276l-76 -206h-112l271 717h112l270 -717h-113zM434 300l-72 201q-4 11 -11 33t-14 46t-11 39q-8 -31 -18 -66t-16 -52l-72 -201h214zM328 924q78 0 119 -39t45 -104h-63q-4 41 -31 51.5t-72 10.5q-38 0 -68 -11.5t-35 -50.5h-64q5 64 49.5 103.5
t119.5 39.5z" />
    <glyph glyph-name="uni0203" unicode="&#x203;" horiz-adv-x="574" 
d="M292 549q101 0 151.5 -44.5t50.5 -139.5v-365h-75l-21 75h-4q-35 -44 -73.5 -64.5t-106.5 -20.5q-73 0 -121 39.5t-48 123.5q0 83 62.5 125.5t190.5 46.5l92 3v30q0 59 -27 83.5t-76 24.5q-41 0 -79 -12t-73 -29l-34 77q38 20 87.5 33.5t103.5 13.5zM389 259l-72 -2
q-92 -4 -127.5 -31t-35.5 -74q0 -42 25 -61t65 -19q62 0 103.5 35t41.5 105v47zM289 749q78 0 119 -39t45 -104h-63q-4 41 -31 51.5t-72 10.5q-38 0 -68 -11.5t-35 -50.5h-64q5 64 49.5 103.5t119.5 39.5z" />
    <glyph glyph-name="uni0204" unicode="&#x204;" horiz-adv-x="557" 
d="M497 0h-402v714h402v-92h-294v-204h276v-91h-276v-234h294v-93zM360 941q16 -34 40.5 -77t45.5 -71v-12h-59q-22 18 -51 46.5t-53 57t-35 46.5v10h112zM179 941q16 -34 40 -77t45 -71v-12h-58q-23 18 -51 46.5t-53 57t-35 46.5v10h112z" />
    <glyph glyph-name="uni0205" unicode="&#x205;" horiz-adv-x="572" 
d="M295 549q106 0 167 -65.5t61 -178.5v-58h-362q2 -83 43.5 -127t116.5 -44q52 0 92.5 9.5t83.5 28.5v-88q-41 -19 -82 -27.5t-98 -8.5q-78 0 -138 31t-93.5 92t-33.5 152t30.5 154t85 96.5t127.5 33.5zM295 467q-57 0 -91.5 -37t-40.5 -105h254q-1 63 -30.5 102.5
t-91.5 39.5zM344 766q16 -34 40.5 -77t45.5 -71v-12h-59q-22 18 -51 46.5t-53 57t-35 46.5v10h112zM163 766q16 -34 40 -77t45 -71v-12h-58q-23 18 -51 46.5t-53 57t-35 46.5v10h112z" />
    <glyph glyph-name="uni0206" unicode="&#x206;" horiz-adv-x="557" 
d="M497 0h-402v714h402v-92h-294v-204h276v-91h-276v-234h294v-93zM306 924q78 0 119 -39t45 -104h-63q-4 41 -31 51.5t-72 10.5q-38 0 -68 -11.5t-35 -50.5h-64q5 64 49.5 103.5t119.5 39.5z" />
    <glyph glyph-name="uni0207" unicode="&#x207;" horiz-adv-x="572" 
d="M295 549q106 0 167 -65.5t61 -178.5v-58h-362q2 -83 43.5 -127t116.5 -44q52 0 92.5 9.5t83.5 28.5v-88q-41 -19 -82 -27.5t-98 -8.5q-78 0 -138 31t-93.5 92t-33.5 152t30.5 154t85 96.5t127.5 33.5zM295 467q-57 0 -91.5 -37t-40.5 -105h254q-1 63 -30.5 102.5
t-91.5 39.5zM290 749q78 0 119 -39t45 -104h-63q-4 41 -31 51.5t-72 10.5q-38 0 -68 -11.5t-35 -50.5h-64q5 64 49.5 103.5t119.5 39.5z" />
    <glyph glyph-name="uni0208" unicode="&#x208;" horiz-adv-x="354" 
d="M315 0h-277v62l85 25v539l-85 26v62h277v-62l-84 -26v-539l84 -25v-62zM234 941q16 -34 40.5 -77t45.5 -71v-12h-59q-22 18 -51 46.5t-53 57t-35 46.5v10h112zM53 941q16 -34 40 -77t45 -71v-12h-58q-23 18 -51 46.5t-53 57t-35 46.5v10h112z" />
    <glyph glyph-name="uni0209" unicode="&#x209;" horiz-adv-x="272" 
d="M189 0h-106v539h106v-539zM192 766q16 -34 40.5 -77t45.5 -71v-12h-59q-22 18 -51 46.5t-53 57t-35 46.5v10h112zM11 766q16 -34 40 -77t45 -71v-12h-58q-23 18 -51 46.5t-53 57t-35 46.5v10h112z" />
    <glyph glyph-name="uni020A" unicode="&#x20a;" horiz-adv-x="354" 
d="M315 0h-277v62l85 25v539l-85 26v62h277v-62l-84 -26v-539l84 -25v-62zM179 924q78 0 119 -39t45 -104h-63q-4 41 -31 51.5t-72 10.5q-38 0 -68 -11.5t-35 -50.5h-64q5 64 49.5 103.5t119.5 39.5z" />
    <glyph glyph-name="uni020B" unicode="&#x20b;" horiz-adv-x="272" 
d="M189 0h-106v539h106v-539zM138 749q78 0 119 -39t45 -104h-63q-4 41 -31 51.5t-72 10.5q-38 0 -68 -11.5t-35 -50.5h-64q5 64 49.5 103.5t119.5 39.5z" />
    <glyph glyph-name="uni020C" unicode="&#x20c;" horiz-adv-x="785" 
d="M725 358q0 -111 -37 -193.5t-111 -128.5t-184 -46q-113 0 -187 46t-110 129t-36 194q0 110 36 192.5t110 128t188 45.5q110 0 183.5 -45.5t110.5 -128t37 -193.5zM174 358q0 -128 53 -202t166 -74q114 0 166 74t52 202t-52 201t-165 73q-114 0 -167 -73t-53 -201z
M449 941q16 -34 40.5 -77t45.5 -71v-12h-59q-22 18 -51 46.5t-53 57t-35 46.5v10h112zM268 941q16 -34 40 -77t45 -71v-12h-58q-23 18 -51 46.5t-53 57t-35 46.5v10h112z" />
    <glyph glyph-name="uni020D" unicode="&#x20d;" horiz-adv-x="609" 
d="M558 270q0 -134 -69 -207t-186 -73q-73 0 -129.5 32.5t-89 95t-32.5 152.5q0 134 68 206.5t186 72.5q74 0 130.5 -32.5t89 -94.5t32.5 -152zM161 270q0 -91 34.5 -142t109.5 -51t109.5 51t34.5 142q0 92 -34.5 141.5t-110.5 49.5q-75 0 -109 -49.5t-34 -141.5zM361 766
q16 -34 40.5 -77t45.5 -71v-12h-59q-22 18 -51 46.5t-53 57t-35 46.5v10h112zM180 766q16 -34 40 -77t45 -71v-12h-58q-23 18 -51 46.5t-53 57t-35 46.5v10h112z" />
    <glyph glyph-name="uni020E" unicode="&#x20e;" horiz-adv-x="785" 
d="M725 358q0 -111 -37 -193.5t-111 -128.5t-184 -46q-113 0 -187 46t-110 129t-36 194q0 110 36 192.5t110 128t188 45.5q110 0 183.5 -45.5t110.5 -128t37 -193.5zM174 358q0 -128 53 -202t166 -74q114 0 166 74t52 202t-52 201t-165 73q-114 0 -167 -73t-53 -201z
M395 924q78 0 119 -39t45 -104h-63q-4 41 -31 51.5t-72 10.5q-38 0 -68 -11.5t-35 -50.5h-64q5 64 49.5 103.5t119.5 39.5z" />
    <glyph glyph-name="uni020F" unicode="&#x20f;" horiz-adv-x="609" 
d="M558 270q0 -134 -69 -207t-186 -73q-73 0 -129.5 32.5t-89 95t-32.5 152.5q0 134 68 206.5t186 72.5q74 0 130.5 -32.5t89 -94.5t32.5 -152zM161 270q0 -91 34.5 -142t109.5 -51t109.5 51t34.5 142q0 92 -34.5 141.5t-110.5 49.5q-75 0 -109 -49.5t-34 -141.5zM307 749
q78 0 119 -39t45 -104h-63q-4 41 -31 51.5t-72 10.5q-38 0 -68 -11.5t-35 -50.5h-64q5 64 49.5 103.5t119.5 39.5z" />
    <glyph glyph-name="uni0210" unicode="&#x210;" horiz-adv-x="633" 
d="M295 714q137 0 202.5 -51t65.5 -155q0 -55 -20 -92.5t-52.5 -61.5t-67.5 -37l200 -317h-124l-172 289h-124v-289h-108v714h200zM288 622h-85v-243h90q83 0 121 31.5t38 93.5q0 64 -40 91t-124 27zM375 941q16 -34 40.5 -77t45.5 -71v-12h-59q-22 18 -51 46.5t-53 57
t-35 46.5v10h112zM194 941q16 -34 40 -77t45 -71v-12h-58q-23 18 -51 46.5t-53 57t-35 46.5v10h112z" />
    <glyph glyph-name="uni0211" unicode="&#x211;" horiz-adv-x="425" 
d="M349 549q32 0 59 -5l-11 -99q-26 7 -54 7q-41 0 -76 -20t-56.5 -57.5t-21.5 -90.5v-284h-106v539h84l14 -96h4q25 43 67 74.5t97 31.5zM300 766q16 -34 40.5 -77t45.5 -71v-12h-59q-22 18 -51 46.5t-53 57t-35 46.5v10h112zM119 766q16 -34 40 -77t45 -71v-12h-58
q-23 18 -51 46.5t-53 57t-35 46.5v10h112z" />
    <glyph glyph-name="uni0212" unicode="&#x212;" horiz-adv-x="633" 
d="M295 714q137 0 202.5 -51t65.5 -155q0 -55 -20 -92.5t-52.5 -61.5t-67.5 -37l200 -317h-124l-172 289h-124v-289h-108v714h200zM288 622h-85v-243h90q83 0 121 31.5t38 93.5q0 64 -40 91t-124 27zM321 924q78 0 119 -39t45 -104h-63q-4 41 -31 51.5t-72 10.5
q-38 0 -68 -11.5t-35 -50.5h-64q5 64 49.5 103.5t119.5 39.5z" />
    <glyph glyph-name="uni0213" unicode="&#x213;" horiz-adv-x="425" 
d="M349 549q32 0 59 -5l-11 -99q-26 7 -54 7q-41 0 -76 -20t-56.5 -57.5t-21.5 -90.5v-284h-106v539h84l14 -96h4q25 43 67 74.5t97 31.5zM246 749q78 0 119 -39t45 -104h-63q-4 41 -31 51.5t-72 10.5q-38 0 -68 -11.5t-35 -50.5h-64q5 64 49.5 103.5t119.5 39.5z" />
    <glyph glyph-name="uni0214" unicode="&#x214;" horiz-adv-x="738" 
d="M649 714v-462q0 -74 -30.5 -133.5t-93.5 -94t-159 -34.5q-136 0 -206.5 72.5t-70.5 191.5v460h108v-455q0 -177 174 -177q90 0 130.5 48t40.5 130v454h107zM426 941q16 -34 40.5 -77t45.5 -71v-12h-59q-22 18 -51 46.5t-53 57t-35 46.5v10h112zM245 941q16 -34 40 -77
t45 -71v-12h-58q-23 18 -51 46.5t-53 57t-35 46.5v10h112z" />
    <glyph glyph-name="uni0215" unicode="&#x215;" horiz-adv-x="630" 
d="M547 539v-539h-85l-15 71h-5q-26 -42 -72 -61.5t-97 -19.5q-95 0 -145 46.5t-50 149.5v353h107v-337q0 -63 26.5 -94t82.5 -31q83 0 115 48.5t32 140.5v273h106zM371 766q16 -34 40.5 -77t45.5 -71v-12h-59q-22 18 -51 46.5t-53 57t-35 46.5v10h112zM190 766
q16 -34 40 -77t45 -71v-12h-58q-23 18 -51 46.5t-53 57t-35 46.5v10h112z" />
    <glyph glyph-name="uni0216" unicode="&#x216;" horiz-adv-x="738" 
d="M649 714v-462q0 -74 -30.5 -133.5t-93.5 -94t-159 -34.5q-136 0 -206.5 72.5t-70.5 191.5v460h108v-455q0 -177 174 -177q90 0 130.5 48t40.5 130v454h107zM372 924q78 0 119 -39t45 -104h-63q-4 41 -31 51.5t-72 10.5q-38 0 -68 -11.5t-35 -50.5h-64q5 64 49.5 103.5
t119.5 39.5z" />
    <glyph glyph-name="uni0217" unicode="&#x217;" horiz-adv-x="630" 
d="M547 539v-539h-85l-15 71h-5q-26 -42 -72 -61.5t-97 -19.5q-95 0 -145 46.5t-50 149.5v353h107v-337q0 -63 26.5 -94t82.5 -31q83 0 115 48.5t32 140.5v273h106zM317 749q78 0 119 -39t45 -104h-63q-4 41 -31 51.5t-72 10.5q-38 0 -68 -11.5t-35 -50.5h-64
q5 64 49.5 103.5t119.5 39.5z" />
    <glyph glyph-name="uni0218" unicode="&#x218;" horiz-adv-x="550" 
d="M505 193q0 -95 -69 -149t-189 -54q-59 0 -110 9.5t-87 27.5v102q40 -18 94 -32.5t110 -14.5q72 0 108 28t36 75q0 33 -16 55.5t-51.5 42t-92.5 41.5q-52 20 -93 47t-64 67t-23 98q0 88 64 138t168 50q58 0 107.5 -12t94.5 -31l-34 -89q-41 17 -83.5 28t-87.5 11
q-59 0 -90 -26t-31 -68q0 -33 15 -55.5t48 -41t87 -39.5q60 -24 102.5 -50.5t64.5 -64t22 -93.5zM330 -61v-9q-9 -29 -31 -72.5t-49 -78.5h-59v12q7 17 14.5 44t14 55t8.5 49h102z" />
    <glyph glyph-name="uni0219" unicode="&#x219;" horiz-adv-x="484" 
d="M441 152q0 -80 -57.5 -121t-161.5 -41q-57 0 -97.5 8t-74.5 25v93q35 -17 82.5 -30.5t92.5 -13.5q60 0 86.5 19t26.5 51q0 18 -10 32.5t-37.5 30t-80.5 35.5q-52 20 -87.5 41t-54.5 50t-19 73q0 70 56.5 107.5t149.5 37.5q49 0 92.5 -10t84.5 -28l-35 -81
q-35 15 -72 25.5t-75 10.5q-98 0 -98 -57q0 -19 11.5 -33t40 -28t79.5 -34q49 -19 84.5 -39.5t54.5 -49.5t19 -73zM312 -61v-9q-9 -29 -31 -72.5t-49 -78.5h-59v12q7 17 14.5 44t14 55t8.5 49h102z" />
    <glyph glyph-name="uni021A" unicode="&#x21a;" horiz-adv-x="563" 
d="M335 0h-108v621h-214v93h536v-93h-214v-621zM351 -61v-9q-9 -29 -31 -72.5t-49 -78.5h-59v12q7 17 14.5 44t14 55t8.5 49h102z" />
    <glyph glyph-name="uni021B" unicode="&#x21b;" horiz-adv-x="383" 
d="M277 76q45 0 81 13v-80q-17 -8 -46 -13.5t-58 -5.5q-44 0 -80.5 15t-58.5 52t-22 103v298h-75v48l79 40l37 114h65v-121h154v-81h-154v-296q0 -44 21.5 -65t56.5 -21zM291 -61v-9q-9 -29 -31 -72.5t-49 -78.5h-59v12q7 17 14.5 44t14 55t8.5 49h102z" />
    <glyph glyph-name="uni021C" unicode="&#x21c;" horiz-adv-x="591" 
d="M43 -180v98q114 28 189 57.5t118.5 62t61.5 69t18 78.5q0 57 -28.5 90.5t-76.5 57.5q-37 -13 -77 -24t-82 -21l-19 82q91 23 150 44.5t88 50t29 71.5q0 48 -33.5 74t-93.5 26q-58 0 -106.5 -15.5t-92.5 -44.5l-50 73q57 40 121 57.5t133 17.5q62 0 115 -18.5t84.5 -59
t31.5 -107.5q0 -55 -29.5 -95t-79.5 -69q34 -17 62.5 -42t46 -61t17.5 -87q0 -93 -51.5 -159.5t-161 -116t-284.5 -89.5z" />
    <glyph glyph-name="uni021D" unicode="&#x21d;" horiz-adv-x="499" 
d="M27 -240v91q161 34 240.5 84.5t79.5 131.5q0 47 -20 75.5t-57 48.5q-29 -12 -62.5 -22t-70.5 -19l-20 78q85 22 131.5 44t64.5 47.5t18 57.5q0 43 -27.5 64.5t-73.5 21.5q-43 0 -81 -10t-74 -28l-34 77q44 25 92 36t98 11q57 0 103.5 -17.5t74 -54.5t27.5 -97
q0 -47 -23 -83.5t-64 -63.5q44 -22 74 -61t30 -105q0 -90 -54 -148.5t-150 -95.5t-222 -63z" />
    <glyph glyph-name="uni021E" unicode="&#x21e;" horiz-adv-x="748" 
d="M652 0h-108v326h-341v-326h-108v714h108v-296h341v296h108v-714zM317 781q-14 22 -36 49t-46 53t-42 45v13h72q26 -17 54 -40t54 -50q26 27 55 50.5t55 39.5h73v-13q-19 -19 -43 -44.5t-46.5 -53t-35.5 -49.5h-114z" />
    <glyph glyph-name="uni021F" unicode="&#x21f;" horiz-adv-x="630" 
d="M189 760v-203q0 -25 -2 -50t-4 -41h7q26 41 69.5 61.5t94.5 20.5q95 0 145.5 -47t50.5 -150v-351h-105v336q0 126 -111 126q-83 0 -114 -50t-31 -141v-271h-106v760h106zM80 827q-14 22 -36 49t-46 53t-42 45v13h72q26 -17 54 -40t54 -50q26 27 55 50.5t55 39.5h73v-13
q-19 -19 -43 -44.5t-46.5 -53t-35.5 -49.5h-114z" />
    <glyph glyph-name="uni0220" unicode="&#x220;" horiz-adv-x="747" 
d="M416 725q111 0 176.5 -61t65.5 -195v-709h-108v698q0 87 -37 131t-119 44q-104 0 -147.5 -59.5t-43.5 -163.5v-410h-108v715h84l18 -92h4q34 47 93 74.5t122 27.5z" />
    <glyph glyph-name="uni0221" unicode="&#x221;" horiz-adv-x="864" 
d="M575 -105l-91 5q7 78 24 137q-18 13 -27 27t-13 25h-5q-25 -47 -67 -73t-121 -26q-102 0 -162.5 69.5t-60.5 208.5t60 210t158 71q61 0 100 -23t63 -56h6q-1 6 -3 22t-3.5 34t-1.5 32v202h106v-548q0 -48 13 -77q34 57 81 79.5t96 21.5q63 -1 96.5 -31t33.5 -75
q0 -35 -19 -64.5t-62.5 -47.5t-116.5 -18q-40 0 -70 6q-5 -24 -8.5 -52t-5.5 -59zM293 77q78 0 109.5 43t32.5 131v16q0 95 -30.5 145t-112.5 50q-65 0 -98 -52t-33 -144q0 -91 33 -140t99 -49zM668 78q52 0 74 12.5t22 33.5q0 12 -12.5 22t-35.5 10q-34 0 -59 -19t-42 -53
q23 -6 53 -6z" />
    <glyph glyph-name="uni0222" unicode="&#x222;" horiz-adv-x="699" 
d="M348 -10q-88 0 -153.5 29.5t-101.5 85t-36 132.5q0 78 37.5 128.5t108.5 74.5q-59 26 -85 75t-26 117v82h108v-82q0 -67 36 -108.5t113 -41.5q79 0 114.5 41.5t35.5 108.5v82h108v-82q0 -69 -26.5 -118t-85.5 -75q69 -23 108.5 -73.5t39.5 -128.5q0 -115 -77.5 -181
t-217.5 -66zM349 82q94 0 137 41t43 114t-43 113t-137 40t-136.5 -40t-42.5 -113t43 -114t136 -41z" />
    <glyph glyph-name="uni0223" unicode="&#x223;" horiz-adv-x="606" 
d="M301 -10q-73 0 -129.5 29t-89.5 85.5t-33 137.5t33.5 133t97.5 76q-52 19 -75.5 64.5t-23.5 124.5v120h106v-118q0 -77 27.5 -112.5t88.5 -35.5t88 35.5t27 112.5v118h106v-120q0 -80 -24 -125t-76 -65q62 -24 97.5 -75t35.5 -133q0 -121 -69.5 -186.5t-186.5 -65.5z
M303 77q74 0 109.5 43.5t35.5 122.5q0 78 -35.5 121t-110.5 43t-109.5 -43t-34.5 -121q0 -79 35 -122.5t110 -43.5z" />
    <glyph glyph-name="uni0224" unicode="&#x224;" horiz-adv-x="574" 
d="M539 0h-505v77l366 544h-355v93h485v-77l-366 -544h375v-93zM407 -210q-20 0 -39 4t-30 8v86q10 -4 23 -6.5t29 -2.5q23 0 37.5 13.5t14.5 47.5v60h-10v93h108v-156q0 -67 -32 -107t-101 -40z" />
    <glyph glyph-name="uni0225" unicode="&#x225;" horiz-adv-x="475" 
d="M431 539v-75l-272 -382h280v-147q0 -142 -124 -142q-20 0 -37.5 3.5t-28.5 8.5v82q9 -3 21.5 -6t27.5 -3q23 0 36 12.5t13 41.5v68h-312v67l278 390h-261v82h379z" />
    <glyph glyph-name="uni0226" unicode="&#x226;" horiz-adv-x="654" 
d="M540 0l-76 206h-276l-76 -206h-112l271 717h112l270 -717h-113zM434 300l-72 201q-4 11 -11 33t-14 46t-11 39q-8 -31 -18 -66t-16 -52l-72 -201h214zM329 919q24 0 41.5 -14t17.5 -47q0 -32 -17.5 -46.5t-41.5 -14.5q-25 0 -43 14.5t-18 46.5q0 33 18 47t43 14z" />
    <glyph glyph-name="uni0227" unicode="&#x227;" horiz-adv-x="574" 
d="M292 549q101 0 151.5 -44.5t50.5 -139.5v-365h-75l-21 75h-4q-35 -44 -73.5 -64.5t-106.5 -20.5q-73 0 -121 39.5t-48 123.5q0 83 62.5 125.5t190.5 46.5l92 3v30q0 59 -27 83.5t-76 24.5q-41 0 -79 -12t-73 -29l-34 77q38 20 87.5 33.5t103.5 13.5zM389 259l-72 -2
q-92 -4 -127.5 -31t-35.5 -74q0 -42 25 -61t65 -19q62 0 103.5 35t41.5 105v47zM290 744q24 0 41.5 -14t17.5 -47q0 -32 -17.5 -46.5t-41.5 -14.5q-25 0 -43 14.5t-18 46.5q0 33 18 47t43 14z" />
    <glyph glyph-name="uni0228" unicode="&#x228;" horiz-adv-x="557" 
d="M497 0h-402v714h402v-92h-294v-204h276v-91h-276v-234h294v-93zM407 -134q0 -50 -36 -78t-113 -28q-17 0 -31.5 2t-24.5 4v63q11 -2 27 -4t31 -2q29 0 45.5 8.5t16.5 31.5q0 24 -23.5 36.5t-64.5 17.5l42 83h68l-22 -46q35 -9 60 -29.5t25 -58.5z" />
    <glyph glyph-name="uni0229" unicode="&#x229;" horiz-adv-x="572" 
d="M295 549q106 0 167 -65.5t61 -178.5v-58h-362q2 -83 43.5 -127t116.5 -44q52 0 92.5 9.5t83.5 28.5v-88q-41 -19 -82 -27.5t-98 -8.5q-78 0 -138 31t-93.5 92t-33.5 152t30.5 154t85 96.5t127.5 33.5zM295 467q-57 0 -91.5 -37t-40.5 -105h254q-1 63 -30.5 102.5
t-91.5 39.5zM405 -134q0 -50 -36 -78t-113 -28q-17 0 -31.5 2t-24.5 4v63q11 -2 27 -4t31 -2q29 0 45.5 8.5t16.5 31.5q0 24 -23.5 36.5t-64.5 17.5l42 83h68l-22 -46q35 -9 60 -29.5t25 -58.5z" />
    <glyph glyph-name="uni022A" unicode="&#x22a;" horiz-adv-x="785" 
d="M725 358q0 -111 -37 -193.5t-111 -128.5t-184 -46q-113 0 -187 46t-110 129t-36 194q0 110 36 192.5t110 128t188 45.5q110 0 183.5 -45.5t110.5 -128t37 -193.5zM174 358q0 -128 53 -202t166 -74q114 0 166 74t52 202t-52 201t-165 73q-114 0 -167 -73t-53 -201z
M546 1017v-78h-307v78h307zM298 881q21 0 36 -13t15 -40q0 -28 -15 -40.5t-36 -12.5q-22 0 -37 12.5t-15 40.5q0 27 15 40t37 13zM487 881q22 0 37 -13t15 -40q0 -28 -15 -40.5t-37 -12.5q-21 0 -36 12.5t-15 40.5q0 27 15 40t36 13z" />
    <glyph glyph-name="uni022B" unicode="&#x22b;" horiz-adv-x="609" 
d="M558 270q0 -134 -69 -207t-186 -73q-73 0 -129.5 32.5t-89 95t-32.5 152.5q0 134 68 206.5t186 72.5q74 0 130.5 -32.5t89 -94.5t32.5 -152zM161 270q0 -91 34.5 -142t109.5 -51t109.5 51t34.5 142q0 92 -34.5 141.5t-110.5 49.5q-75 0 -109 -49.5t-34 -141.5zM458 842
v-78h-307v78h307zM210 706q21 0 36 -13t15 -40q0 -28 -15 -40.5t-36 -12.5q-22 0 -37 12.5t-15 40.5q0 27 15 40t37 13zM399 706q22 0 37 -13t15 -40q0 -28 -15 -40.5t-37 -12.5q-21 0 -36 12.5t-15 40.5q0 27 15 40t36 13z" />
    <glyph glyph-name="uni022C" unicode="&#x22c;" horiz-adv-x="785" 
d="M725 358q0 -111 -37 -193.5t-111 -128.5t-184 -46q-113 0 -187 46t-110 129t-36 194q0 110 36 192.5t110 128t188 45.5q110 0 183.5 -45.5t110.5 -128t37 -193.5zM174 358q0 -128 53 -202t166 -74q114 0 166 74t52 202t-52 201t-165 73q-114 0 -167 -73t-53 -201z
M239 939v78h307v-78h-307zM224 780q5 52 29.5 83.5t69.5 31.5q28 0 53 -12t47 -23.5t41 -11.5q21 0 30 12.5t16 34.5h53q-5 -51 -29.5 -82.5t-70.5 -31.5q-26 0 -50.5 12t-47 23.5t-42.5 11.5q-21 0 -30.5 -12.5t-15.5 -35.5h-53z" />
    <glyph glyph-name="uni022D" unicode="&#x22d;" horiz-adv-x="609" 
d="M558 270q0 -134 -69 -207t-186 -73q-73 0 -129.5 32.5t-89 95t-32.5 152.5q0 134 68 206.5t186 72.5q74 0 130.5 -32.5t89 -94.5t32.5 -152zM161 270q0 -91 34.5 -142t109.5 -51t109.5 51t34.5 142q0 92 -34.5 141.5t-110.5 49.5q-75 0 -109 -49.5t-34 -141.5zM151 764
v78h307v-78h-307zM136 605q5 52 29.5 83.5t69.5 31.5q28 0 53 -12t47 -23.5t41 -11.5q21 0 30 12.5t16 34.5h53q-5 -51 -29.5 -82.5t-70.5 -31.5q-26 0 -50.5 12t-47 23.5t-42.5 11.5q-21 0 -30.5 -12.5t-15.5 -35.5h-53z" />
    <glyph glyph-name="uni022E" unicode="&#x22e;" horiz-adv-x="785" 
d="M725 358q0 -111 -37 -193.5t-111 -128.5t-184 -46q-113 0 -187 46t-110 129t-36 194q0 110 36 192.5t110 128t188 45.5q110 0 183.5 -45.5t110.5 -128t37 -193.5zM174 358q0 -128 53 -202t166 -74q114 0 166 74t52 202t-52 201t-165 73q-114 0 -167 -73t-53 -201z
M396 919q24 0 41.5 -14t17.5 -47q0 -32 -17.5 -46.5t-41.5 -14.5q-25 0 -43 14.5t-18 46.5q0 33 18 47t43 14z" />
    <glyph glyph-name="uni022F" unicode="&#x22f;" horiz-adv-x="609" 
d="M558 270q0 -134 -69 -207t-186 -73q-73 0 -129.5 32.5t-89 95t-32.5 152.5q0 134 68 206.5t186 72.5q74 0 130.5 -32.5t89 -94.5t32.5 -152zM161 270q0 -91 34.5 -142t109.5 -51t109.5 51t34.5 142q0 92 -34.5 141.5t-110.5 49.5q-75 0 -109 -49.5t-34 -141.5zM308 744
q24 0 41.5 -14t17.5 -47q0 -32 -17.5 -46.5t-41.5 -14.5q-25 0 -43 14.5t-18 46.5q0 33 18 47t43 14z" />
    <glyph glyph-name="uni0230" unicode="&#x230;" horiz-adv-x="785" 
d="M725 358q0 -111 -37 -193.5t-111 -128.5t-184 -46q-113 0 -187 46t-110 129t-36 194q0 110 36 192.5t110 128t188 45.5q110 0 183.5 -45.5t110.5 -128t37 -193.5zM174 358q0 -128 53 -202t166 -74q114 0 166 74t52 202t-52 201t-165 73q-114 0 -167 -73t-53 -201z
M546 1007v-78h-307v78h307zM394 883q23 0 39 -14t16 -44q0 -29 -16 -43t-39 -14q-24 0 -40 14t-16 43q0 30 16 44t40 14z" />
    <glyph glyph-name="uni0231" unicode="&#x231;" horiz-adv-x="609" 
d="M558 270q0 -134 -69 -207t-186 -73q-73 0 -129.5 32.5t-89 95t-32.5 152.5q0 134 68 206.5t186 72.5q74 0 130.5 -32.5t89 -94.5t32.5 -152zM161 270q0 -91 34.5 -142t109.5 -51t109.5 51t34.5 142q0 92 -34.5 141.5t-110.5 49.5q-75 0 -109 -49.5t-34 -141.5zM458 842
v-77h-307v77h307zM304 719q23 0 39 -14t16 -44q0 -29 -16 -43t-39 -14t-39 14t-16 43q0 30 16 44t39 14z" />
    <glyph glyph-name="uni0232" unicode="&#x232;" horiz-adv-x="583" 
d="M292 380l175 334h116l-238 -437v-277h-107v273l-238 441h117zM445 861v-80h-307v80h307z" />
    <glyph glyph-name="uni0233" unicode="&#x233;" horiz-adv-x="527" 
d="M1 539h114l112 -306q13 -35 23 -67t14 -64h4q5 26 15.5 61t23.5 71l106 305h114l-231 -612q-29 -78 -77.5 -122.5t-126.5 -44.5q-25 0 -43 2.5t-31 5.5v84q10 -2 26 -4t33 -2q46 0 74 26.5t44 69.5l22 58zM417 686v-80h-307v80h307z" />
    <glyph glyph-name="uni0234" unicode="&#x234;" horiz-adv-x="397" 
d="M84 -32l-68 32q34 84 70 132q-2 16 -2.5 35.5t-0.5 41.5v551h106v-539q31 14 70 14q65 0 98 -32.5t33 -86.5q0 -55 -36 -90.5t-105 -35.5q-46 0 -78.5 15t-51.5 41q-9 -16 -17.5 -36t-17.5 -42zM252 64q26 0 39 14t13 35q0 24 -14.5 36t-39.5 12q-32 0 -61 -24
q2 -33 16.5 -53t46.5 -20z" />
    <glyph glyph-name="uni0235" unicode="&#x235;" horiz-adv-x="752" 
d="M440 -32l-68 32q16 41 34 74t37 58q-3 15 -3.5 32.5t-0.5 36.5v135q0 126 -108 126q-81 0 -111.5 -49t-30.5 -141v-272h-106v539h84l15 -72h6q26 42 71 62t95 20q92 0 141 -47t49 -151v-130q31 14 71 14q64 0 97 -34.5t33 -87.5q0 -57 -36 -90t-105 -33q-44 0 -77 14.5
t-53 40.5q-9 -17 -17 -36t-17 -41zM608 64q27 0 39 14t12 35q0 48 -54 48q-33 0 -61 -24q2 -33 17 -53t47 -20z" />
    <glyph glyph-name="uni0236" unicode="&#x236;" horiz-adv-x="407" 
d="M94 -32l-68 32q34 84 70 132q-2 17 -2.5 37t-0.5 42v247h-75v48l79 40l37 114h65v-121h154v-81h-154v-237q31 14 70 14q64 0 97.5 -34.5t33.5 -87.5q0 -57 -36.5 -90t-104.5 -33q-90 0 -131 55q-18 -32 -34 -77zM262 64q27 0 39.5 14t12.5 35q0 24 -14.5 36t-39.5 12
q-32 0 -61 -24q1 -33 16 -53t47 -20z" />
    <glyph glyph-name="uni0237" unicode="&#x237;" horiz-adv-x="272" 
d="M26 -240q-26 0 -47.5 3.5t-36.5 8.5v85q16 -5 32 -7.5t36 -2.5q32 0 52.5 17.5t20.5 66.5v608h106v-613q0 -75 -38.5 -120.5t-124.5 -45.5z" />
    <glyph glyph-name="uni0238" unicode="&#x238;" horiz-adv-x="969" 
d="M293 -10q-113 0 -177 70t-64 209q0 138 60 209t157 71q61 0 100 -23t62 -57h6q-1 16 -3.5 44t-2.5 62v185h106v-183q0 -33 -1.5 -62t-3.5 -47h5q23 34 62 57t101 23q98 0 157.5 -70t59.5 -209t-66 -209t-178 -70q-133 0 -190 115q-29 -59 -78 -87t-112 -28zM297 77
q67 0 101 50.5t34 144.5q0 95 -30.5 142.5t-110.5 47.5q-64 0 -97 -52t-33 -143q0 -93 33.5 -141.5t102.5 -48.5zM673 77q135 0 135 193q0 192 -133 192q-77 0 -107.5 -46t-30.5 -144t33 -146.5t103 -48.5z" />
    <glyph glyph-name="uni0239" unicode="&#x239;" horiz-adv-x="969" 
d="M676 549q112 0 176.5 -69.5t64.5 -209.5q0 -138 -59.5 -209t-157.5 -71q-62 0 -100.5 23t-62.5 57h-6q2 -16 4 -44t2 -62v-204h-106v202q0 33 2 62t4 47h-6q-22 -34 -61.5 -57t-100.5 -23q-97 0 -157 70t-60 208q0 139 66 209.5t177 70.5q133 0 191 -115q28 58 77 86.5
t113 28.5zM296 462q-135 0 -135 -193q0 -192 132 -192q78 0 108 46.5t30 143.5t-32.5 146t-102.5 49zM672 462q-68 0 -101.5 -50.5t-33.5 -144.5q0 -95 30.5 -142.5t110.5 -47.5q64 0 97 51.5t33 143.5q0 93 -33.5 141.5t-102.5 48.5z" />
    <glyph glyph-name="uni023A" unicode="&#x23a;" horiz-adv-x="654" 
d="M540 0l-76 206h-144l-98 -281h-76l98 281h-56l-76 -206h-112l271 717h112l20 -53l33 96h76l-70 -201l211 -559h-113zM220 300h56l78 225q-7 22 -15.5 49.5t-12.5 44.5q-8 -31 -18 -66t-16 -52zM434 300l-42 116l-40 -116h82z" />
    <glyph glyph-name="uni023B" unicode="&#x23b;" horiz-adv-x="633" 
d="M562 760l-20 -57q32 -10 59 -23l-40 -90q-12 5 -24.5 10.5t-26.5 10.5l-180 -520q32 -8 69 -8q46 0 88.5 8.5t86.5 22.5v-93q-42 -16 -86 -23.5t-102 -7.5q-47 0 -88 9l-26 -74h-76l34 97q-86 40 -128 127t-42 208q0 108 39.5 190.5t115.5 129.5t186 47q36 0 71 -5l14 41
h76zM400 631q-106 0 -166.5 -73.5t-60.5 -201.5q0 -81 22.5 -140.5t68.5 -93.5l176 506q-20 3 -40 3z" />
    <glyph glyph-name="uni023C" unicode="&#x23c;" horiz-adv-x="490" 
d="M300 -10q-43 0 -79 9l-74 -207h-76l84 236q-48 31 -75.5 90t-27.5 148q0 100 33 162t91 91.5t132 29.5q17 0 33 -1l76 212h75l-80 -225q26 -7 46 -17l-32 -86q-11 4 -22.5 8t-23.5 7l-128 -360q23 -8 51 -8q44 0 79 10t64 26v-92q-29 -17 -63 -25t-83 -8zM161 267
q0 -87 32 -134l116 326h-2q-146 0 -146 -192z" />
    <glyph glyph-name="uni023D" unicode="&#x23d;" horiz-adv-x="536" 
d="M95 0v320h-81v87h81v307h108v-307h154v-87h-154v-227h305v-93h-413z" />
    <glyph glyph-name="uni023E" unicode="&#x23e;" horiz-adv-x="563" 
d="M335 0h-108v114l-91 -189h-73l164 340v356h-214v93h431l22 46h73l-22 -46h32v-93h-77l-137 -284v-337zM335 621v-132l64 132h-64z" />
    <glyph glyph-name="uni023F" unicode="&#x23f;" horiz-adv-x="484" 
d="M355 -240q-55 0 -90 17.5t-56.5 52t-36.5 86.5q-10 37 -28 58t-50 32q-24 7 -44 18v92q35 -17 82.5 -30.5t92.5 -13.5q60 0 86.5 19t26.5 51q0 18 -10 32.5t-37.5 30t-80.5 35.5q-52 20 -87.5 41t-54.5 50t-19 73q0 70 56.5 107.5t149.5 37.5q49 0 92.5 -10t84.5 -28
l-35 -81q-35 15 -72 25.5t-75 10.5q-98 0 -98 -57q0 -19 11.5 -33t40 -28t79.5 -34q49 -19 84.5 -39.5t54.5 -49.5t19 -73q0 -76 -52.5 -117t-148.5 -44q18 -28 29 -64q14 -43 38.5 -61.5t62.5 -18.5q17 0 36.5 3.5t32.5 8.5v-85q-13 -6 -36.5 -10t-47.5 -4z" />
    <glyph glyph-name="uni0240" unicode="&#x240;" horiz-adv-x="475" 
d="M389 -240q-61 0 -99.5 18.5t-60.5 53.5t-36 84q-13 43 -37 63.5t-79 20.5h-42v67l278 390h-261v82h379v-75l-276 -386q58 -11 88.5 -49t46.5 -94q15 -47 41 -67.5t71 -20.5q20 0 35.5 2.5t30.5 7.5v-85q-14 -5 -34 -8.5t-45 -3.5z" />
    <glyph glyph-name="uni0241" unicode="&#x241;" horiz-adv-x="457" 
d="M200 724q105 0 165 -53.5t60 -142.5q0 -78 -46.5 -145t-147.5 -114v-269h-107v323q95 31 142 85t47 116q0 49 -30 79t-90 30q-38 0 -81 -14.5t-71 -34.5l-39 83q40 25 91 41t107 16z" />
    <glyph glyph-name="uni0242" unicode="&#x242;" horiz-adv-x="452" 
d="M200 549q105 0 160.5 -53.5t55.5 -142.5q0 -73 -43 -140.5t-143 -115.5v-97h-106v148q95 31 139.5 84.5t44.5 116.5q0 54 -29.5 83.5t-86.5 29.5q-38 0 -77 -14.5t-67 -34.5l-39 78q40 26 87.5 42t103.5 16z" />
    <glyph glyph-name="uni0243" unicode="&#x243;" horiz-adv-x="656" 
d="M95 0v171h-81v83h81v460h209q136 0 206.5 -40t70.5 -138q0 -62 -33.5 -104t-95.5 -53v-5q42 -8 76.5 -26.5t54.5 -53t20 -90.5q0 -98 -68 -151t-184 -53h-256zM203 416h119q84 0 115.5 27t31.5 80t-38.5 76.5t-120.5 23.5h-107v-207zM203 90h131q86 0 120.5 34t34.5 90
q0 51 -35.5 82.5t-126.5 31.5h-124v-74h138v-83h-138v-81z" />
    <glyph glyph-name="uni0244" unicode="&#x244;" horiz-adv-x="738" 
d="M7 347v92h82v275h108v-275h345v275h107v-275h82v-92h-82v-95q0 -74 -30.5 -133.5t-93.5 -94t-159 -34.5q-136 0 -206.5 72.5t-70.5 191.5v93h-82zM197 259q0 -177 174 -177q90 0 130.5 48t40.5 130v87h-345v-88z" />
    <glyph glyph-name="uni0245" unicode="&#x245;" horiz-adv-x="620" 
d="M367 714l253 -714h-112l-151 444q-13 39 -27 84t-21 79q-7 -34 -20 -79.5t-26 -83.5l-151 -444h-112l252 714h115z" />
    <glyph glyph-name="uni0246" unicode="&#x246;" horiz-adv-x="557" 
d="M497 0h-224l-19 -75h-74l19 75h-104v714h285l12 46h74l-12 -46h43v-92h-66l-52 -204h100v-91h-123l-59 -234h200v-93zM203 418h102l52 204h-154v-204zM203 93h20l59 234h-79v-234z" />
    <glyph glyph-name="uni0247" unicode="&#x247;" horiz-adv-x="572" 
d="M295 549q23 0 44 -3l74 214h76l-82 -236q55 -28 85.5 -84.5t30.5 -134.5v-58h-212l-55 -161q29 -10 65 -10q52 0 92.5 9.5t83.5 28.5v-88q-41 -19 -82 -27.5t-98 -8.5q-49 0 -90 12l-73 -210h-76l83 239q-51 33 -80 92t-29 142q0 91 30.5 154t85 96.5t127.5 33.5z
M295 467q-57 0 -91.5 -37t-40.5 -105h99l49 141q-7 1 -16 1zM417 325q0 36 -10 65t-30 48l-39 -113h79zM161 247q2 -73 34 -116l40 116h-74z" />
    <glyph glyph-name="uni0248" unicode="&#x248;" horiz-adv-x="290" 
d="M2 -196q-26 0 -45.5 3.5t-33.5 9.5v90q16 -4 34 -7t38 -3q25 0 47 10t35.5 35.5t13.5 73.5v292h-84v92h84v314h108v-314h84v-92h-84v-287q0 -113 -54.5 -165t-142.5 -52z" />
    <glyph glyph-name="uni0249" unicode="&#x249;" horiz-adv-x="272" 
d="M76 683q0 33 18 47t43 14q24 0 42 -14t18 -47q0 -32 -18 -46.5t-42 -14.5q-25 0 -43 14.5t-18 46.5zM26 -240q-26 0 -47.5 3.5t-36.5 8.5v85q16 -5 32 -7.5t36 -2.5q32 0 52.5 17.5t20.5 66.5v312h-76v78h76v218h106v-218h76v-78h-76v-317q0 -75 -38.5 -120.5
t-124.5 -45.5z" />
    <glyph glyph-name="uni024A" unicode="&#x24a;" horiz-adv-x="769" 
d="M354 724q73 0 127.5 -27t82.5 -70h4l15 87h91v-788q0 -42 16 -58.5t44 -16.5q14 0 26 2.5t22 7.5v-87q-11 -6 -28 -10t-37 -4q-71 0 -111 38.5t-40 124.5v82q0 23 1 43t2 42h-6q-29 -45 -82 -72.5t-131 -27.5q-90 0 -155 44.5t-100 127t-35 196.5t35 196t101 126t158 44z
M365 632q-90 0 -141 -73t-51 -203q0 -131 51 -202.5t142 -71.5q78 0 121.5 27t61 76t17.5 117v118q0 64 -17.5 111.5t-61 74t-122.5 26.5z" />
    <glyph glyph-name="uni024B" unicode="&#x24b;" horiz-adv-x="620" 
d="M270 549q62 0 101 -23.5t63 -58.5h4l13 72h86v-608q0 -49 13 -67t38 -18q16 0 29 3t22 8v-81q-24 -16 -76 -16q-61 0 -96.5 38.5t-35.5 131.5v54q0 20 1.5 44.5t4.5 43.5h-6q-23 -34 -62.5 -58t-101.5 -24q-96 0 -155.5 70t-59.5 208q0 139 60.5 210t157.5 71zM292 462
q-66 0 -98.5 -52t-32.5 -144q0 -91 32.5 -140.5t100.5 -49.5q76 0 108 42.5t33 130.5v18q0 96 -31 145.5t-112 49.5z" />
    <glyph glyph-name="uni024C" unicode="&#x24c;" horiz-adv-x="633" 
d="M295 714q137 0 202.5 -51t65.5 -155q0 -55 -20 -92.5t-52.5 -61.5t-67.5 -37l200 -317h-124l-172 289h-124v-289h-108v289h-85v90h85v335h200zM288 622h-85v-243h90q83 0 121 31.5t38 93.5q0 64 -40 91t-124 27z" />
    <glyph glyph-name="uni024D" unicode="&#x24d;" horiz-adv-x="425" 
d="M310 319v-79h-121v-240h-106v240h-76v79h76v220h84l14 -96h4q25 43 67 74.5t97 31.5q32 0 59 -5l-11 -99q-26 7 -54 7q-54 0 -97 -35t-54 -98h118z" />
    <glyph glyph-name="uni024E" unicode="&#x24e;" horiz-adv-x="583" 
d="M576 596v-84h-103l-128 -235v-277h-107v273l-129 239h-102v84h57l-64 118h117l62 -118h226l62 118h116l-64 -118h57zM292 380l69 132h-138z" />
    <glyph glyph-name="uni024F" unicode="&#x24f;" horiz-adv-x="527" 
d="M1 539h114l63 -172h175l60 172h114l-65 -172h55v-79h-85l-136 -361q-29 -78 -77.5 -122.5t-126.5 -44.5q-25 0 -43 2.5t-31 5.5v84q10 -2 26 -4t33 -2q46 0 74 26.5t44 69.5l22 58l-115 288h-92v79h60zM264 102h4q5 26 15.5 61t23.5 71l19 54h-119l20 -55q13 -35 23 -67
t14 -64z" />
    <glyph glyph-name="uni0250" unicode="&#x250;" horiz-adv-x="574" 
d="M282 -10q-101 0 -151.5 44.5t-50.5 139.5v365h75l21 -75h4q35 44 73.5 64.5t106.5 20.5q73 0 121 -39.5t48 -123.5q0 -83 -62.5 -125.5t-190.5 -46.5l-92 -3v-30q0 -59 27 -83.5t76 -24.5q41 0 79 12t73 29l34 -77q-38 -20 -87.5 -33.5t-103.5 -13.5zM185 280l72 2
q92 4 127.5 31t35.5 74q0 42 -25 61t-65 19q-62 0 -103.5 -35t-41.5 -105v-47z" />
    <glyph glyph-name="uni0251" unicode="&#x251;" horiz-adv-x="620" 
d="M268 -10q-98 0 -157 70t-59 208q0 139 60 210t158 71q61 0 100 -23t63 -56h4l14 69h86v-539h-83l-18 72h-5q-23 -34 -62 -58t-101 -24zM293 76q78 0 110 43.5t32 131.5v16q0 95 -30.5 145t-112.5 50q-65 0 -98 -52t-33 -144t33 -141t99 -49z" />
    <glyph glyph-name="uni0252" unicode="&#x252;" horiz-adv-x="620" 
d="M352 549q98 0 157 -70t59 -208q0 -139 -60 -210t-158 -71q-61 0 -100 23t-63 56h-4l-14 -69h-86v539h83l18 -72h5q23 34 62 58t101 24zM327 463q-78 0 -110 -43.5t-32 -131.5v-16q0 -95 30.5 -145t112.5 -50q65 0 98 52t33 144t-33 141t-99 49z" />
    <glyph glyph-name="uni0253" unicode="&#x253;" horiz-adv-x="620" 
d="M220 765q21 0 39.5 -4.5t29.5 -9.5v-85q-7 3 -21 6.5t-31 3.5q-23 0 -35 -13t-13 -44v-42q0 -31 -1.5 -60t-3.5 -49h5q23 34 62 57t101 23q97 0 156.5 -70t59.5 -208q0 -139 -60 -209.5t-157 -70.5q-62 0 -100.5 22.5t-61.5 53.5h-8l-20 -66h-78v616q0 76 35 112.5
t102 36.5zM327 462q-77 0 -107 -46t-31 -142q0 -97 29.5 -147t110.5 -50q65 0 97.5 50t32.5 144q0 191 -132 191z" />
    <glyph glyph-name="uni0254" unicode="&#x254;" horiz-adv-x="490" 
d="M194 549q74 0 128.5 -28t85 -88.5t30.5 -155.5q0 -98 -33 -161.5t-90.5 -94.5t-131.5 -31q-47 0 -80.5 8t-62.5 25v92q30 -16 64 -26t77 -10q73 0 110.5 50.5t37.5 144.5q0 186 -147 186q-28 0 -60 -7.5t-58 -20.5l-32 86q27 13 70 22t92 9z" />
    <glyph glyph-name="uni0255" unicode="&#x255;" horiz-adv-x="537" 
d="M317 549q46 0 84.5 -9.5t64.5 -21.5l-33 -86q-26 10 -57.5 18.5t-60.5 8.5q-149 0 -149 -192q0 -20 2 -39t6 -36q35 34 78 52.5t90 18.5q73 0 114 -35t41 -92q0 -52 -27 -84t-68.5 -47t-87.5 -15q-100 0 -161 45q-10 -19 -19 -39.5t-17 -45.5l-69 31q10 31 23 59t28 53
q-42 67 -42 173q0 100 33.5 162t92 91.5t134.5 29.5zM335 186q-72 0 -127 -67q37 -45 109 -45q39 0 64.5 17t25.5 45q0 20 -16.5 35t-55.5 15z" />
    <glyph glyph-name="uni0256" unicode="&#x256;" horiz-adv-x="620" 
d="M569 -240q-63 0 -100.5 38.5t-37.5 131.5v55q0 19 2.5 44t3.5 41h-6q-23 -34 -62 -57t-100 -23q-97 0 -157 70t-60 208q0 139 60 210t158 71q61 0 100 -23t63 -56h6q-1 6 -3 22t-3.5 34t-1.5 32v202h106v-829q0 -49 14.5 -67t41.5 -18q18 0 32.5 3t24.5 8v-81
q-26 -16 -81 -16zM293 77q78 0 109.5 43t32.5 131v16q0 95 -30.5 145t-112.5 50q-65 0 -98 -52t-33 -144q0 -91 33 -140t99 -49z" />
    <glyph glyph-name="uni0257" unicode="&#x257;" horiz-adv-x="620" 
d="M268 -10q-98 0 -157 70t-59 208q0 139 60 210t158 71q61 0 100 -23t63 -56h6q-1 6 -3 21.5t-3.5 34t-1.5 32.5v58q0 150 137 150q22 0 41 -5t30 -9v-85q-7 3 -21.5 6.5t-31.5 3.5q-22 0 -35.5 -13.5t-13.5 -45.5v-618h-83l-18 72h-5q-23 -34 -62 -58t-101 -24zM293 77
q78 0 109.5 43t32.5 131v16q0 95 -30.5 145t-112.5 50q-65 0 -98 -52t-33 -144q0 -91 33 -140t99 -49z" />
    <glyph glyph-name="uni0258" unicode="&#x258;" horiz-adv-x="572" 
d="M277 549q-106 0 -167 -65.5t-61 -178.5v-58h362q-2 -83 -43.5 -127t-116.5 -44q-52 0 -92.5 9.5t-83.5 28.5v-88q41 -19 82 -27.5t98 -8.5q78 0 138 31t93.5 92t33.5 152t-30.5 154t-85 96.5t-127.5 33.5zM277 467q57 0 91.5 -37t40.5 -105h-254q1 63 30.5 102.5
t91.5 39.5z" />
    <glyph glyph-name="uni0259" unicode="&#x259;" horiz-adv-x="572" 
d="M255 549q79 0 138.5 -31t93 -92.5t33.5 -152.5q0 -90 -30.5 -153.5t-85 -96.5t-127.5 -33q-106 0 -167 66t-61 178v58h362q-2 82 -43.5 126.5t-116.5 44.5q-52 0 -92.5 -9.5t-83.5 -28.5v88q41 19 82 27.5t98 8.5zM409 214h-254q1 -63 30.5 -102.5t91.5 -39.5
q57 0 91.5 37t40.5 105z" />
    <glyph glyph-name="uni025A" unicode="&#x25a;" horiz-adv-x="800" 
d="M279 -10q-108 0 -169 66t-61 183l361 99q-27 125 -157 125q-52 0 -93.5 -9.5t-84.5 -28.5v88q41 19 82.5 27.5t99.5 8.5q96 0 164 -46.5t91 -136.5l109 30l16 -58q13 -45 27 -62.5t36 -17.5q20 0 40 7.5t37 19.5l23 -73q-24 -16 -54 -27t-62 -11q-44 0 -76.5 27.5
t-52.5 95.5l-32 -9q0 -90 -26 -157t-80 -104t-138 -37zM279 72q55 0 84.5 27t40.5 70t11 91l-258 -70q5 -50 34 -84t88 -34z" />
    <glyph glyph-name="uni025B" unicode="&#x25b;" horiz-adv-x="504" 
d="M371 321v-81h-75q-77 0 -113 -21.5t-36 -63.5q0 -43 37.5 -61.5t101.5 -18.5q57 0 102.5 13t79.5 29v-90q-33 -17 -79.5 -27t-109.5 -10q-122 0 -179.5 44.5t-57.5 112.5q0 60 35.5 89t87.5 42v5q-47 13 -74.5 44t-27.5 80q0 47 28 78.5t77 47.5t111 16q58 0 103.5 -10.5
t86.5 -28.5l-36 -81q-35 15 -70.5 25.5t-83.5 10.5q-117 0 -117 -69q0 -40 39 -57.5t109 -17.5h61z" />
    <glyph glyph-name="uni025C" unicode="&#x25c;" horiz-adv-x="509" 
d="M241 549q91 0 149.5 -36t58.5 -106q0 -49 -28 -78t-75 -42v-4q32 -9 59.5 -24.5t44 -41t16.5 -66.5q0 -45 -25.5 -81.5t-79 -58t-136.5 -21.5q-60 0 -109 9t-82 26v92q34 -16 82 -29t103 -13q60 0 101.5 18t41.5 64q0 83 -153 83h-68v81h57q70 0 111.5 17t41.5 58
q0 69 -119 69q-43 0 -80 -8.5t-77 -25.5l-35 80q44 18 93.5 28t107.5 10z" />
    <glyph glyph-name="uni025D" unicode="&#x25d;" horiz-adv-x="729" 
d="M241 549q74 0 128 -24.5t72 -71.5l109 29l16 -57q13 -45 27 -62.5t36 -17.5q20 0 40 8t37 19l23 -73q-24 -17 -54 -27.5t-62 -10.5q-43 0 -76 27.5t-53 95.5l-39 -11q-9 -34 -35 -55t-64 -31v-4q32 -9 59.5 -24.5t44 -41t16.5 -66.5q0 -45 -25.5 -81.5t-79 -58
t-136.5 -21.5q-60 0 -109 9t-82 26v92q34 -16 82 -29t103 -13q60 0 101.5 18t41.5 64q0 83 -153 83h-68v81h57q70 0 111.5 17t41.5 58q0 69 -119 69q-43 0 -80 -8.5t-77 -25.5l-35 80q44 18 93.5 28t107.5 10z" />
    <glyph glyph-name="uni025E" unicode="&#x25e;" horiz-adv-x="609" 
d="M335 549q103 0 158.5 -39.5t55.5 -108.5q0 -51 -28 -78t-76 -40v-4q31 -5 58.5 -18.5t45 -39t17.5 -64.5q0 -71 -62 -119t-180 -48q-130 0 -201 73t-71 206q0 132 75 206t208 74zM333 464q-172 0 -172 -195q0 -103 44.5 -148.5t126.5 -45.5q57 0 93.5 21.5t36.5 65.5
q0 40 -36 57t-111 17h-36v81h25q70 0 108 15.5t38 59.5q0 32 -28 52t-89 20z" />
    <glyph glyph-name="uni025F" unicode="&#x25f;" horiz-adv-x="272" 
d="M26 -240q-26 0 -47.5 3.5t-36.5 8.5v85q16 -5 32 -7.5t36 -2.5q32 0 52.5 17.5t20.5 66.5v312h-76v78h76v218h106v-218h76v-78h-76v-317q0 -75 -38.5 -120.5t-124.5 -45.5z" />
    <glyph glyph-name="uni0260" unicode="&#x260;" horiz-adv-x="620" 
d="M568 766q22 0 41 -5t30 -9v-85q-7 3 -21.5 6.5t-31.5 3.5q-22 0 -35.5 -13.5t-13.5 -45.5v-625q0 -115 -61.5 -174t-188.5 -59q-59 0 -107 8t-89 25v93q41 -21 93 -31.5t109 -10.5q66 0 102 37.5t36 105.5v18q0 9 0.5 23t1.5 26.5t1 16.5h-3q-28 -42 -69 -61.5t-94 -19.5
q-102 0 -159.5 73.5t-57.5 204.5q0 130 57.5 205.5t159.5 75.5q108 0 165 -81h6q-2 20 -5 46t-3 48v54q0 150 137 150zM291 461q-63 0 -97 -49.5t-34 -144.5q0 -94 33.5 -143t99.5 -49q73 0 107.5 40.5t34.5 132.5v20q0 104 -35 148.5t-109 44.5z" />
    <glyph glyph-name="uni0261" unicode="&#x261;" horiz-adv-x="620" 
d="M269 549q52 0 94 -20t71 -61h5l12 71h86v-546q0 -233 -249 -233q-58 0 -107 8t-90 25v93q42 -21 93.5 -31.5t109.5 -10.5q65 0 101.5 37.5t36.5 105.5v18q0 13 1 34t2 32h-4q-28 -42 -68.5 -61.5t-93.5 -19.5q-102 0 -159.5 73.5t-57.5 204.5q0 130 57.5 205.5
t159.5 75.5zM291 461q-63 0 -96.5 -49.5t-33.5 -144.5q0 -94 33.5 -143t98.5 -49q74 0 108.5 40.5t34.5 132.5v20q0 104 -35 148.5t-110 44.5z" />
    <glyph glyph-name="uni0262" unicode="&#x262;" horiz-adv-x="581" 
d="M328 549q53 0 96.5 -9t80.5 -29l-36 -87q-31 16 -66 25.5t-69 9.5q-82 0 -127.5 -47.5t-45.5 -143.5q0 -90 36.5 -139.5t111.5 -49.5q31 0 53 3t47 9v131h-112v79h216v-272q-47 -18 -97.5 -28.5t-110.5 -10.5q-117 0 -185 69.5t-68 208.5q0 93 35 155.5t97.5 94
t143.5 31.5z" />
    <glyph glyph-name="uni0263" unicode="&#x263;" horiz-adv-x="526" 
d="M261 -239q-57 0 -90 37t-33 93q0 49 18.5 96.5t45.5 100.5l-202 451h112l101 -238q12 -29 26.5 -68.5t20.5 -69.5h4q7 29 21.5 68.5t27.5 69.5l101 238h112l-206 -454q30 -59 47 -105.5t17 -88.5q0 -55 -33.5 -92.5t-89.5 -37.5zM261 -161q15 0 25.5 12.5t10.5 40.5
q0 21 -9 53.5t-27 64.5q-19 -32 -27.5 -64t-8.5 -52q0 -29 10.5 -42t25.5 -13z" />
    <glyph glyph-name="uni0264" unicode="&#x264;" horiz-adv-x="526" 
d="M476 549q29 0 51 -10v-81q-6 2 -14.5 3.5t-15.5 1.5q-17 0 -31 -10t-36 -41l-109 -147q33 -45 49 -79t16 -77q0 -53 -33.5 -86t-90.5 -33q-56 0 -89 33t-33 87q0 44 15.5 78t46.5 76l-111 151q-19 25 -33 36t-31 12q-8 1 -15.5 -1t-13.5 -4v80q10 4 23.5 7.5t28.5 3.5
q34 0 58 -16.5t51 -53.5l54 -74q13 -18 25.5 -37.5t22.5 -37.5h4q10 16 23 37t26 38l54 75q23 33 47 51t61 18zM263 201q-17 -23 -26.5 -44t-9.5 -43t10 -34t26 -12t26 12t10 34q0 24 -11 46t-25 41z" />
    <glyph glyph-name="uni0265" unicode="&#x265;" horiz-adv-x="630" 
d="M441 -221v203q0 25 2 50t4 41h-7q-26 -41 -69.5 -61.5t-94.5 -20.5q-95 0 -145.5 47t-50.5 150v351h105v-336q0 -126 111 -126q83 0 114 50t31 141v271h106v-760h-106z" />
    <glyph glyph-name="uni0266" unicode="&#x266;" horiz-adv-x="630" 
d="M83 0v616q0 76 35.5 112.5t102.5 36.5q20 0 38.5 -4.5t29.5 -9.5v-85q-7 3 -21 6.5t-31 3.5q-23 0 -35.5 -13t-12.5 -44v-72q0 -24 -2 -47.5t-4 -36.5h7q26 41 69.5 61.5t94.5 20.5q95 0 145.5 -46.5t50.5 -150.5v-348h-105v333q0 126 -111 126q-83 0 -114 -49.5
t-31 -141.5v-268h-106z" />
    <glyph glyph-name="uni0267" unicode="&#x267;" horiz-adv-x="630" 
d="M221 765q20 0 38.5 -4.5t29.5 -9.5v-85q-7 3 -21 6.5t-31 3.5q-23 0 -35.5 -13t-12.5 -44v-69q0 -25 -2 -47.5t-4 -36.5h7q26 41 69 61.5t96 20.5q95 0 145 -47t50 -150v-439q0 -70 -33 -111t-104 -41q-20 0 -40 4t-33 9v86q10 -4 24 -7t30 -3q23 0 37 14t14 51v425
q0 123 -111 123q-83 0 -114 -50t-31 -141v-271h-106v616q0 76 35.5 112.5t102.5 36.5z" />
    <glyph glyph-name="uni0268" unicode="&#x268;" horiz-adv-x="272" 
d="M137 744q24 0 42 -14t18 -47q0 -32 -18 -46.5t-42 -14.5q-25 0 -43 14.5t-18 46.5q0 33 18 47t43 14zM265 321v-78h-76v-243h-106v243h-76v78h76v218h106v-218h76z" />
    <glyph glyph-name="iotaLatin" unicode="&#x269;" horiz-adv-x="364" 
d="M186 539v-377q0 -86 74 -86q22 0 45.5 4t39.5 9v-80q-17 -8 -45.5 -13.5t-58.5 -5.5q-46 0 -82 15t-57 52t-21 104v378h105z" />
    <glyph glyph-name="uni026A" unicode="&#x26a;" horiz-adv-x="332" 
d="M301 539v-58l-82 -25v-374l82 -24v-58h-270v58l82 24v374l-82 25v58h270z" />
    <glyph glyph-name="uni026B" unicode="&#x26b;" horiz-adv-x="395" 
d="M144 0v363q-8 3 -16 5t-15 2q-23 0 -34.5 -14t-17.5 -42h-57q4 64 34.5 99.5t79.5 35.5q7 0 13.5 -1.5t12.5 -2.5v315h106v-359q8 -3 16 -5.5t16 -2.5q22 0 34 14.5t19 42.5h56q-5 -63 -34.5 -99t-78.5 -36q-7 0 -14 1.5t-14 2.5v-319h-106z" />
    <glyph glyph-name="uni026C" unicode="&#x26c;" horiz-adv-x="366" 
d="M151 0v296h-40q-64 0 -92.5 29.5t-28.5 75.5q0 43 25.5 74.5t83.5 31.5q31 0 52 -18v271h106v-391h102v-73h-102v-296h-106zM117 369h34v12q0 24 -10 38.5t-33 14.5q-19 0 -27 -9.5t-8 -22.5q0 -18 12.5 -25.5t31.5 -7.5z" />
    <glyph glyph-name="uni026D" unicode="&#x26d;" horiz-adv-x="271" 
d="M239 -240q-73 0 -114.5 38.5t-41.5 131.5v830h105v-829q0 -85 70 -85q17 0 34 3t30 8v-81q-32 -16 -83 -16z" />
    <glyph glyph-name="uni026E" unicode="&#x26e;" horiz-adv-x="687" 
d="M377 -240q-59 0 -108 9.5t-86 26.5v94q37 -18 88 -30.5t106 -12.5q81 0 124.5 42.5t43.5 112.5q0 75 -51 112.5t-149 37.5h-58v75l212 226h-310v-453h-106v760h106v-221h437v-74l-218 -231q118 -10 181 -69.5t63 -163.5q0 -71 -32.5 -125t-94 -85t-148.5 -31z" />
    <glyph glyph-name="uni026F" unicode="&#x26f;" horiz-adv-x="949" 
d="M262 -10q-91 0 -137 47t-46 151v351h106v-337q0 -125 101 -125q72 0 103 44.5t31 127.5v290h105v-337q0 -125 102 -125q76 0 104.5 49t28.5 141v272h106v-539h-84l-15 72h-6q-25 -42 -67.5 -62t-90.5 -20q-124 0 -164 87h-8q-26 -44 -72 -65.5t-97 -21.5z" />
    <glyph glyph-name="uni0270" unicode="&#x270;" horiz-adv-x="949" 
d="M760 -240v233q0 16 2 40.5t4 38.5h-7q-25 -42 -66.5 -62t-89.5 -20q-124 0 -165 87h-7q-26 -44 -72 -65.5t-97 -21.5q-92 0 -137.5 47t-45.5 151v351h106v-337q0 -125 101 -125q72 0 103 44.5t31 127.5v290h105v-337q0 -125 102 -125q76 0 104.5 49.5t28.5 140.5v272h106
v-779h-106z" />
    <glyph glyph-name="uni0271" unicode="&#x271;" horiz-adv-x="949" 
d="M687 549q91 0 137 -47t46 -151v-439q0 -70 -33 -111t-105 -41q-20 0 -40 4t-32 9v86q9 -4 23.5 -7t30.5 -3q22 0 36 14t14 51v423q0 125 -101 125q-72 0 -103 -44.5t-31 -127.5v-290h-105v337q0 125 -102 125q-76 0 -104.5 -49t-28.5 -141v-272h-106v539h84l15 -72h6
q25 42 67.5 62t90.5 20q124 0 164 -87h8q26 44 72 65.5t97 21.5z" />
    <glyph glyph-name="uni0272" unicode="&#x272;" horiz-adv-x="630" 
d="M356 549q94 0 144 -47t50 -151v-351h-105v336q0 126 -111 126q-82 0 -113.5 -49t-31.5 -141v-341q0 -91 -39 -131t-105 -40q-22 0 -42 4t-32 12v81q10 -5 24 -8t29 -3q28 0 43.5 18t15.5 67v608h84l15 -72h6q26 42 71.5 62t96.5 20z" />
    <glyph glyph-name="uni0273" unicode="&#x273;" horiz-adv-x="630" 
d="M550 -69q0 -49 15 -67t44 -18q14 0 28.5 3t25.5 8v-81q-13 -8 -34 -12t-43 -4q-64 0 -102.5 38.5t-38.5 131.5v406q0 126 -111 126q-82 0 -113.5 -49t-31.5 -141v-272h-106v539h84l15 -72h6q26 42 71.5 62t96.5 20q94 0 144 -47t50 -151v-420z" />
    <glyph glyph-name="uni0274" unicode="&#x274;" horiz-adv-x="658" 
d="M83 0v539h129l270 -418q-2 15 -3.5 42.5t-3 54t-1.5 39.5v282h101v-539h-130l-267 417q1 -15 2.5 -42t2.5 -55t1 -45v-275h-101z" />
    <glyph glyph-name="uni0275" unicode="&#x275;" horiz-adv-x="609" 
d="M558 270q0 -134 -69 -207t-186 -73q-73 0 -129.5 32.5t-89 95t-32.5 152.5q0 134 68 206.5t186 72.5q74 0 130.5 -32.5t89 -94.5t32.5 -152zM304 461q-67 0 -100.5 -36.5t-41.5 -108.5h285q-7 72 -42 108.5t-101 36.5zM305 77q68 0 102.5 40t39.5 117h-285q5 -77 40 -117
t103 -40z" />
    <glyph glyph-name="uni0276" unicode="&#x276;" horiz-adv-x="866" 
d="M305 549q85 0 144 -54v44h363v-85h-261v-132h245v-84h-245v-153h261v-85h-363v44q-59 -54 -147 -54q-72 0 -128.5 32.5t-89 95t-32.5 152.5q0 134 67.5 206.5t185.5 72.5zM304 461q-66 0 -104.5 -49.5t-38.5 -141.5q0 -91 34.5 -142t109.5 -51t109.5 51t34.5 142
q0 92 -34.5 141.5t-110.5 49.5z" />
    <glyph glyph-name="omegaclosed" unicode="&#x277;" horiz-adv-x="796" 
d="M400 549q110 0 187 -39.5t116.5 -111.5t39.5 -169q0 -108 -51 -173.5t-146 -65.5q-58 0 -93.5 24.5t-52.5 69.5h-5q-17 -45 -52 -69.5t-93 -24.5q-96 0 -146.5 65.5t-50.5 173.5q0 97 39.5 168.5t116.5 111.5t191 40zM399 462q-122 0 -182.5 -63t-60.5 -168
q0 -76 27 -115.5t74 -39.5q49 0 70 35t21 92v121h100v-121q0 -61 22.5 -94t67.5 -33q48 0 75 39.5t27 114.5q0 105 -59.5 168.5t-181.5 63.5z" />
    <glyph glyph-name="uni0278" unicode="&#x278;" horiz-adv-x="751" 
d="M426 760v-215q126 -11 199.5 -83.5t73.5 -192.5q0 -119 -71.5 -192t-201.5 -84v-233h-101v233q-84 7 -145.5 42.5t-95 95t-33.5 138.5q0 121 71.5 193.5t204.5 82.5v215h99zM327 461q-84 -9 -125 -59t-41 -133t40.5 -133t125.5 -59v384zM426 460v-383q83 10 123.5 59.5
t40.5 132.5t-41 132t-123 59z" />
    <glyph glyph-name="uni0279" unicode="&#x279;" horiz-adv-x="425" 
d="M76 -10q-32 0 -59 5l11 99q26 -7 54 -7q41 0 76 20t56.5 57.5t21.5 90.5v284h106v-539h-84l-14 96h-4q-25 -43 -67 -74.5t-97 -31.5z" />
    <glyph glyph-name="uni027A" unicode="&#x27a;" horiz-adv-x="425" 
d="M76 -10q-32 0 -59 5l11 99q26 -7 54 -7q40 0 75.5 20t57 57.5t21.5 90.5v505h106v-760h-84l-13 96h-5q-26 -44 -67 -75t-97 -31z" />
    <glyph glyph-name="uni027B" unicode="&#x27b;" horiz-adv-x="425" 
d="M372 -240q-62 0 -99 38.5t-37 131.5v73q0 23 2 49t4 42h-4q-26 -43 -66 -73.5t-96 -30.5q-32 0 -59 5l11 99q26 -7 54 -7q40 0 75.5 20t57 57.5t21.5 90.5v284h106v-608q0 -49 14 -67t41 -18q18 0 32.5 3t23.5 8v-81q-11 -8 -33 -12t-48 -4z" />
    <glyph glyph-name="uni027C" unicode="&#x27c;" horiz-adv-x="425" 
d="M349 549q32 0 59 -5l-11 -99q-26 7 -54 7q-41 0 -76 -20t-56.5 -57.5t-21.5 -90.5v-524h-106v779h84l14 -96h4q25 43 67 74.5t97 31.5z" />
    <glyph glyph-name="uni027D" unicode="&#x27d;" horiz-adv-x="425" 
d="M349 549q32 0 59 -5l-11 -99q-26 7 -54 7q-41 0 -76 -20t-56.5 -57.5t-21.5 -90.5v-353q0 -85 69 -85q17 0 31.5 3t27.5 8v-81q-15 -8 -33.5 -12t-44.5 -4q-73 0 -114.5 38.5t-41.5 131.5v609h84l14 -96h4q25 43 67 74.5t97 31.5z" />
    <glyph glyph-name="uni027E" unicode="&#x27e;" horiz-adv-x="361" 
d="M248 550q25 0 49.5 -5t44.5 -11l-12 -89q-14 4 -31.5 8.5t-42.5 4.5q-71 0 -71 -88v-370h-105v373q0 100 45 138.5t123 38.5z" />
    <glyph glyph-name="uni027F" unicode="&#x27f;" horiz-adv-x="361" 
d="M114 550q77 0 122 -38.5t45 -138.5v-613h-105v610q0 44 -17 66t-54 22q-25 0 -42.5 -4.5t-30.5 -8.5l-13 89q20 6 45 11t50 5z" />
    <glyph glyph-name="uni0280" unicode="&#x280;" horiz-adv-x="573" 
d="M85 0v539h245q90 0 144 -41t54 -119q0 -46 -17 -76.5t-45 -49t-60 -27.5l155 -226h-120l-136 210h-114v-210h-106zM191 291h114q56 0 88 21.5t32 64.5q0 34 -24.5 57t-79.5 23h-130v-166z" />
    <glyph glyph-name="uni0281" unicode="&#x281;" horiz-adv-x="573" 
d="M85 539v-539h245q90 0 144 41t54 119q0 46 -17 76.5t-45 49t-60 27.5l155 226h-120l-136 -210h-114v210h-106zM191 248h114q56 0 88 -21.5t32 -64.5q0 -34 -24.5 -57t-79.5 -23h-130v166z" />
    <glyph glyph-name="uni0282" unicode="&#x282;" horiz-adv-x="484" 
d="M441 152q0 -80 -57.5 -121t-160.5 -41q-43 0 -74 6v-69q0 -45 17 -64.5t51 -19.5q16 0 30 2.5t27 7.5v-78q-14 -7 -32 -11t-43 -4q-69 0 -109 37t-40 129v190q35 -17 82.5 -30.5t92.5 -13.5q60 0 86.5 19t26.5 51q0 18 -10 32.5t-37.5 30t-80.5 35.5q-52 20 -87.5 41
t-54.5 50t-19 73q0 70 56.5 107.5t149.5 37.5q49 0 92.5 -10t84.5 -28l-35 -81q-35 15 -72 25.5t-75 10.5q-98 0 -98 -57q0 -19 11.5 -33t40 -28t79.5 -34q49 -19 84.5 -39.5t54.5 -49.5t19 -73z" />
    <glyph glyph-name="uni0283" unicode="&#x283;" horiz-adv-x="272" 
d="M227 766q24 0 43.5 -5t30.5 -11v-81q-8 4 -23 7.5t-29 3.5q-29 0 -44.5 -17.5t-15.5 -68.5v-663q0 -91 -39 -131t-105 -40q-22 0 -42 4t-32 12v81q10 -5 24 -8t29 -3q28 0 43.5 18t15.5 67v666q0 64 18.5 101t51 52.5t74.5 15.5z" />
    <glyph glyph-name="uni0284" unicode="&#x284;" horiz-adv-x="272" 
d="M45 -240q-22 0 -42 4t-32 12v81q10 -5 24 -8t29 -3q28 0 43.5 18t15.5 67v317h-76v83h76v266q0 64 18.5 101t51 52.5t74.5 15.5q24 0 43.5 -5t30.5 -11v-81q-8 4 -23 7.5t-29 3.5q-29 0 -44.5 -17.5t-15.5 -68.5v-263h76v-83h-76v-317q0 -91 -39 -131t-105 -40z" />
    <glyph glyph-name="uni0285" unicode="&#x285;" horiz-adv-x="272" 
d="M226 -240q-65 0 -104 39t-39 131v453q0 43 -14 61.5t-40 18.5q-13 0 -26.5 -3.5t-21.5 -7.5v81q11 6 30 11t41 5q60 0 98.5 -35.5t38.5 -126.5v-456q0 -49 15.5 -67t43.5 -18q14 0 28.5 3t24.5 8v-81q-12 -8 -32.5 -12t-42.5 -4z" />
    <glyph glyph-name="uni0286" unicode="&#x286;" horiz-adv-x="272" 
d="M39 -240q-67 0 -105 33.5t-38 84.5q0 54 34 88t110 34h43v597q0 64 18.5 101t51 52.5t74.5 15.5q24 0 43.5 -5t30.5 -11v-81q-8 4 -23 7.5t-29 3.5q-29 0 -44.5 -17.5t-15.5 -68.5v-594h73v-73h-73q-4 -91 -44.5 -129t-105.5 -38zM29 -165q25 0 39.5 16.5t14.5 55.5v20
h-38q-28 0 -46 -11.5t-18 -36.5q0 -18 10.5 -31t37.5 -13z" />
    <glyph glyph-name="uni0287" unicode="&#x287;" horiz-adv-x="383" 
d="M106 463q-45 0 -81 -13v80q17 8 46 13.5t58 5.5q44 0 80.5 -15t58.5 -52t22 -103v-298h75v-48l-79 -40l-37 -114h-65v121h-154v81h154v296q0 44 -21.5 65t-56.5 21z" />
    <glyph glyph-name="uni0288" unicode="&#x288;" horiz-adv-x="383" 
d="M277 -154q45 0 81 13v-80q-17 -8 -46 -13.5t-58 -5.5q-44 0 -80.5 15t-58.5 52t-22 103v528h-75v48l79 40l37 114h65v-121h154v-81h-154v-526q0 -44 21.5 -65t56.5 -21z" />
    <glyph glyph-name="uni0289" unicode="&#x289;" horiz-adv-x="630" 
d="M7 249v79h71v211h107v-211h256v211h106v-211h75v-79h-75v-249h-85l-15 71h-5q-26 -42 -72 -61.5t-97 -19.5q-95 0 -145 46.5t-50 149.5v63h-71zM185 202q0 -63 26.5 -94t82.5 -31q79 0 111.5 44t35.5 128h-256v-47z" />
    <glyph glyph-name="uni028A" unicode="&#x28a;" horiz-adv-x="618" 
d="M308 -10q-76 0 -133.5 30t-90 86t-32.5 132t28 128.5t76 87.5h-127v85h243v-81q-50 -25 -82.5 -79.5t-32.5 -133.5q0 -78 37.5 -123.5t114.5 -45.5t115 45.5t38 124.5q0 72 -34 130t-83 82v81h244v-85h-126q49 -38 76 -91t27 -123q0 -116 -69.5 -183t-188.5 -67z" />
    <glyph glyph-name="uni028B" unicode="&#x28b;" horiz-adv-x="630" 
d="M399 549q76 0 115 -38.5t39 -129.5v-144q0 -117 -56 -182t-181 -65q-128 0 -182.5 63.5t-54.5 183.5v302h106v-301q0 -89 32 -125t101 -36q66 0 97.5 36.5t31.5 124.5v139q0 47 -15 65t-49 18q-29 0 -56 -9v86q15 6 36 9t36 3z" />
    <glyph glyph-name="uni028C" unicode="&#x28c;" horiz-adv-x="526" 
d="M322 539l204 -539h-112l-112 315q-10 32 -21 70t-15 63h-4q-4 -25 -16 -63.5t-22 -69.5l-112 -315h-112l205 539h117z" />
    <glyph glyph-name="uni028D" unicode="&#x28d;" horiz-adv-x="807" 
d="M283 538l77 -269q7 -26 16 -59.5t16 -64t11 -47.5h4q3 17 10 47.5t15.5 64t16.5 60.5l80 268h118l149 -539h-108l-70 273q-11 42 -20.5 89.5t-13.5 76.5h-4q-3 -17 -8.5 -45.5t-12 -56.5t-12.5 -46l-86 -291h-116l-84 291q-6 20 -13 47.5t-12.5 54.5t-7.5 45h-4
q-2 -16 -7 -44t-12.5 -60t-14.5 -61l-72 -273h-107l151 539h121z" />
    <glyph glyph-name="uni028E" unicode="&#x28e;" horiz-adv-x="527" 
d="M526 0h-114l-112 306q-13 35 -23 67t-14 64h-4q-5 -26 -15.5 -61t-23.5 -71l-106 -305h-114l231 612q29 78 77.5 122.5t126.5 44.5q25 0 43 -2.5t31 -5.5v-84q-10 2 -26 4t-33 2q-46 0 -74 -26.5t-44 -69.5l-22 -58z" />
    <glyph glyph-name="uni028F" unicode="&#x28f;" horiz-adv-x="502" 
d="M502 539l-197 -323v-216h-106v216l-199 323h120l132 -232l131 232h119z" />
    <glyph glyph-name="uni0290" unicode="&#x290;" horiz-adv-x="475" 
d="M474 -240q-38 0 -67 15t-46 51t-17 98v76h-309v67l278 390h-261v82h379v-75l-272 -382h280v-155q0 -51 14.5 -67.5t43.5 -16.5q13 0 27.5 3t23.5 7v-78q-27 -15 -74 -15z" />
    <glyph glyph-name="uni0291" unicode="&#x291;" horiz-adv-x="552" 
d="M243 -87l-70 28q6 16 12 30.5t12 28.5h-162v67l278 390h-261v82h381v-73l-275 -384h76q42 81 86 120t106 39q53 0 86 -31.5t33 -78.5q0 -64 -42 -97.5t-133 -33.5h-91q-9 -20 -18 -41t-18 -46zM320 82h57q43 0 60 13.5t17 34.5q0 14 -10 25t-29 11q-26 0 -48.5 -20.5
t-46.5 -63.5z" />
    <glyph glyph-name="uni0292" unicode="&#x292;" horiz-adv-x="522" 
d="M461 539v-74l-218 -231q111 -10 177.5 -69.5t66.5 -163.5q0 -71 -32.5 -125t-94 -85t-148.5 -31q-59 0 -108 9.5t-86 26.5v94q38 -18 88.5 -30.5t105.5 -12.5q81 0 124.5 42.5t43.5 112.5q0 75 -51 112.5t-149 37.5h-58v75l213 226h-301v86h427z" />
    <glyph glyph-name="uni0293" unicode="&#x293;" horiz-adv-x="522" 
d="M188 -240q-50 0 -96.5 15t-76 47t-29.5 85q0 57 45 91.5t122 34.5q61 0 115 -20.5t105 -58.5q7 22 7 49q0 77 -52.5 116t-149.5 39h-56v72l213 223h-301v86h427v-74l-218 -227q73 -6 127.5 -35t85.5 -79t31 -119q0 -37 -9.5 -67t-24.5 -54q15 -14 32 -31.5t33 -35.5
l-61 -57q-14 17 -30 33.5t-30 30.5q-37 -30 -89 -47t-120 -17zM182 -156q42 0 79.5 11.5t62.5 32.5q-86 68 -170 68q-41 0 -59.5 -15t-18.5 -35q0 -28 30 -45t76 -17z" />
    <glyph glyph-name="uni0294" unicode="&#x294;" horiz-adv-x="442" 
d="M200 765q105 0 160.5 -53.5t55.5 -142.5q0 -73 -43 -140.5t-143 -115.5v-313h-106v364q95 31 140 84.5t45 116.5q0 54 -29.5 83.5t-86.5 29.5q-38 0 -77.5 -14.5t-67.5 -34.5l-39 79q40 26 87.5 41.5t103.5 15.5z" />
    <glyph glyph-name="uni0295" unicode="&#x295;" horiz-adv-x="442" 
d="M242 765q-105 0 -160.5 -53.5t-55.5 -142.5q0 -73 43 -140.5t143 -115.5v-313h106v364q-95 31 -140 84.5t-45 116.5q0 54 29.5 83.5t86.5 29.5q38 0 77.5 -14.5t67.5 -34.5l39 79q-40 26 -87.5 41.5t-103.5 15.5z" />
    </font>
</defs>
</svg>
