<?xml version="1.0" standalone="no"?><!-- Generator: Gravit.io --><svg xmlns="http://www.w3.org/2000/svg" xmlns:xlink="http://www.w3.org/1999/xlink" style="isolation:isolate" viewBox="0 0 250 250" width="250" height="250"><defs><clipPath id="_clipPath_3i7MpoDR4VDbpDPMXofxOgHGfdyMFk54"><rect width="250" height="250"/></clipPath></defs><g clip-path="url(#_clipPath_3i7MpoDR4VDbpDPMXofxOgHGfdyMFk54)"><rect width="250" height="250" style="fill:rgb(0,0,0)" fill-opacity="0"/><defs><filter id="zXYOgPw6ZkEtc592Q4cHUwwVTqb7NS9Z" x="-200%" y="-200%" width="400%" height="400%" filterUnits="objectBoundingBox" color-interpolation-filters="sRGB"><feOffset xmlns="http://www.w3.org/2000/svg" in="SourceGraphic" dx="0" dy="3"/><feGaussianBlur xmlns="http://www.w3.org/2000/svg" stdDeviation="2.146804531419514" result="pf_100_offsetBlur"/><feComposite xmlns="http://www.w3.org/2000/svg" in="SourceGraphic" in2="pf_100_offsetBlur" result="pf_100_inverse" operator="out"/><feFlood xmlns="http://www.w3.org/2000/svg" flood-color="#FFFFFF" flood-opacity="0.5" result="pf_100_color"/><feComposite xmlns="http://www.w3.org/2000/svg" in="pf_100_color" in2="pf_100_inverse" operator="in" result="pf_100_shadow"/><feComposite xmlns="http://www.w3.org/2000/svg" in="pf_100_shadow" in2="SourceGraphic" operator="over" result="_out_9QikyfyvmbLqL6TQmTeLGtQUwhfbo5Xj"/><feOffset xmlns="http://www.w3.org/2000/svg" in="_out_9QikyfyvmbLqL6TQmTeLGtQUwhfbo5Xj" dx="0" dy="-3"/><feGaussianBlur xmlns="http://www.w3.org/2000/svg" stdDeviation="2.146804531419514" result="pf_101_offsetBlur"/><feComposite xmlns="http://www.w3.org/2000/svg" in="_out_9QikyfyvmbLqL6TQmTeLGtQUwhfbo5Xj" in2="pf_101_offsetBlur" result="pf_101_inverse" operator="out"/><feFlood xmlns="http://www.w3.org/2000/svg" flood-color="#000000" flood-opacity="0.5" result="pf_101_color"/><feComposite xmlns="http://www.w3.org/2000/svg" in="pf_101_color" in2="pf_101_inverse" operator="in" result="pf_101_shadow"/><feComposite xmlns="http://www.w3.org/2000/svg" in="pf_101_shadow" in2="_out_9QikyfyvmbLqL6TQmTeLGtQUwhfbo5Xj" operator="over" result="_out_ZlenbM59Nxs0pJE1uAKGnYSDAIS1hnDX"/><feMerge><feMergeNode in="_out_ZlenbM59Nxs0pJE1uAKGnYSDAIS1hnDX"/></feMerge></filter></defs><g filter="url(#zXYOgPw6ZkEtc592Q4cHUwwVTqb7NS9Z)"><path d="M 15 0 L 235 0 C 243.279 0 250 6.721 250 15 L 250 235 C 250 243.279 243.279 250 235 250 L 15 250 C 6.721 250 0 243.279 0 235 L 0 15 C 0 6.721 6.721 0 15 0 Z" style="stroke:none;fill:#243742;stroke-miterlimit:10;"/></g><defs><filter id="kPJ4MSpmSusop79ZW6eDUCPXxNQVLyNp" x="-200%" y="-200%" width="400%" height="400%" filterUnits="objectBoundingBox" color-interpolation-filters="sRGB"><feGaussianBlur xmlns="http://www.w3.org/2000/svg" in="SourceGraphic" stdDeviation="2.146804531419514"/><feOffset xmlns="http://www.w3.org/2000/svg" dx="-5" dy="5" result="pf_100_offsetBlur"/><feFlood xmlns="http://www.w3.org/2000/svg" flood-color="#000000" flood-opacity="0.65"/><feComposite xmlns="http://www.w3.org/2000/svg" in2="pf_100_offsetBlur" operator="in" result="pf_100_dropShadow"/><feBlend xmlns="http://www.w3.org/2000/svg" in="SourceGraphic" in2="pf_100_dropShadow" mode="normal"/></filter></defs><g filter="url(#kPJ4MSpmSusop79ZW6eDUCPXxNQVLyNp)"><path d=" M 177.25 115.5 L 170.125 115.5 L 170.125 94.125 C 170.125 69.247 149.878 49 125 49 C 100.122 49 79.875 69.247 79.875 94.125 L 79.875 115.5 L 72.75 115.5 C 64.883 115.5 58.5 121.883 58.5 129.75 L 58.5 186.75 C 58.5 194.617 64.883 201 72.75 201 L 177.25 201 C 185.117 201 191.5 194.617 191.5 186.75 L 191.5 129.75 C 191.5 121.883 185.117 115.5 177.25 115.5 Z  M 146.375 115.5 L 103.625 115.5 L 103.625 94.125 C 103.625 82.339 113.214 72.75 125 72.75 C 136.786 72.75 146.375 82.339 146.375 94.125 L 146.375 115.5 Z " id="lock" fill="rgb(255,255,255)"/></g></g></svg>