<?xml version="1.0" standalone="no"?><!-- Generator: Gravit.io --><svg xmlns="http://www.w3.org/2000/svg" xmlns:xlink="http://www.w3.org/1999/xlink" style="isolation:isolate" viewBox="0 0 250 250" width="250" height="250"><defs><clipPath id="_clipPath_bVTFFzgdQtqBVauFVa4gl8SuMnZSELw9"><rect width="250" height="250"/></clipPath></defs><g clip-path="url(#_clipPath_bVTFFzgdQtqBVauFVa4gl8SuMnZSELw9)"><rect width="250" height="250" style="fill:rgb(0,0,0)" fill-opacity="0"/><defs><filter id="cQFGrgQAP8MwrgRZtV5OiRvwK1oSmzpI" x="-200%" y="-200%" width="400%" height="400%" filterUnits="objectBoundingBox" color-interpolation-filters="sRGB"><feOffset xmlns="http://www.w3.org/2000/svg" in="SourceGraphic" dx="0" dy="3"/><feGaussianBlur xmlns="http://www.w3.org/2000/svg" stdDeviation="2.146804531419514" result="pf_100_offsetBlur"/><feComposite xmlns="http://www.w3.org/2000/svg" in="SourceGraphic" in2="pf_100_offsetBlur" result="pf_100_inverse" operator="out"/><feFlood xmlns="http://www.w3.org/2000/svg" flood-color="#FFFFFF" flood-opacity="0.5" result="pf_100_color"/><feComposite xmlns="http://www.w3.org/2000/svg" in="pf_100_color" in2="pf_100_inverse" operator="in" result="pf_100_shadow"/><feComposite xmlns="http://www.w3.org/2000/svg" in="pf_100_shadow" in2="SourceGraphic" operator="over" result="_out_A5ouivfeYKRMLswAromsWzoB0ajdzu2m"/><feOffset xmlns="http://www.w3.org/2000/svg" in="_out_A5ouivfeYKRMLswAromsWzoB0ajdzu2m" dx="0" dy="-3"/><feGaussianBlur xmlns="http://www.w3.org/2000/svg" stdDeviation="2.146804531419514" result="pf_101_offsetBlur"/><feComposite xmlns="http://www.w3.org/2000/svg" in="_out_A5ouivfeYKRMLswAromsWzoB0ajdzu2m" in2="pf_101_offsetBlur" result="pf_101_inverse" operator="out"/><feFlood xmlns="http://www.w3.org/2000/svg" flood-color="#000000" flood-opacity="0.5" result="pf_101_color"/><feComposite xmlns="http://www.w3.org/2000/svg" in="pf_101_color" in2="pf_101_inverse" operator="in" result="pf_101_shadow"/><feComposite xmlns="http://www.w3.org/2000/svg" in="pf_101_shadow" in2="_out_A5ouivfeYKRMLswAromsWzoB0ajdzu2m" operator="over" result="_out_zUzdzOlaNabpJMcDZbhcwXYlGZAiAXfF"/><feMerge><feMergeNode in="_out_zUzdzOlaNabpJMcDZbhcwXYlGZAiAXfF"/></feMerge></filter></defs><g filter="url(#cQFGrgQAP8MwrgRZtV5OiRvwK1oSmzpI)"><path d="M 15 0 L 235 0 C 243.279 0 250 6.721 250 15 L 250 235 C 250 243.279 243.279 250 235 250 L 15 250 C 6.721 250 0 243.279 0 235 L 0 15 C 0 6.721 6.721 0 15 0 Z" style="stroke:none;fill:#243742;stroke-miterlimit:10;"/></g><defs><filter id="JwqxAGncfVu5hBmKteCL2oeKx0DFLaFk" x="-200%" y="-200%" width="400%" height="400%" filterUnits="objectBoundingBox" color-interpolation-filters="sRGB"><feGaussianBlur xmlns="http://www.w3.org/2000/svg" in="SourceGraphic" stdDeviation="2.146804531419514"/><feOffset xmlns="http://www.w3.org/2000/svg" dx="-5" dy="5" result="pf_100_offsetBlur"/><feFlood xmlns="http://www.w3.org/2000/svg" flood-color="#000000" flood-opacity="0.65"/><feComposite xmlns="http://www.w3.org/2000/svg" in2="pf_100_offsetBlur" operator="in" result="pf_100_dropShadow"/><feBlend xmlns="http://www.w3.org/2000/svg" in="SourceGraphic" in2="pf_100_dropShadow" mode="normal"/></filter></defs><g filter="url(#JwqxAGncfVu5hBmKteCL2oeKx0DFLaFk)"><path d=" M 125 113.319 Q 146.628 113.319 165.427 109.395 Q 184.226 105.471 195.085 97.806 L 195.085 113.319 Q 195.085 119.616 185.686 125 Q 176.286 130.384 160.134 133.532 Q 143.981 136.681 125 136.681 Q 106.019 136.681 89.866 133.532 Q 73.714 130.384 64.314 125 Q 54.915 119.616 54.915 113.319 L 54.915 97.806 Q 65.774 105.471 84.573 109.395 Q 103.372 113.319 125 113.319 Z  M 125 183.404 Q 146.628 183.404 165.427 179.48 Q 184.226 175.556 195.085 167.891 L 195.085 183.404 Q 195.085 189.701 185.686 195.085 Q 176.286 200.469 160.134 203.618 Q 143.981 206.766 125 206.766 Q 106.019 206.766 89.866 203.618 Q 73.714 200.469 64.314 195.085 Q 54.915 189.701 54.915 183.404 L 54.915 167.891 Q 65.774 175.556 84.573 179.48 Q 103.372 183.404 125 183.404 Z  M 125 148.362 Q 146.628 148.362 165.427 144.438 Q 184.226 140.514 195.085 132.848 L 195.085 148.362 Q 195.085 154.658 185.686 160.043 Q 176.286 165.427 160.134 168.575 Q 143.981 171.723 125 171.723 Q 106.019 171.723 89.866 168.575 Q 73.714 165.427 64.314 160.043 Q 54.915 154.658 54.915 148.362 L 54.915 132.848 Q 65.774 140.514 84.573 144.438 Q 103.372 148.362 125 148.362 Z  M 125 43.234 Q 143.981 43.234 160.134 46.382 Q 176.286 49.531 185.686 54.915 Q 195.085 60.299 195.085 66.596 L 195.085 78.277 Q 195.085 84.573 185.686 89.957 Q 176.286 95.342 160.134 98.49 Q 143.981 101.638 125 101.638 Q 106.019 101.638 89.866 98.49 Q 73.714 95.342 64.314 89.957 Q 54.915 84.573 54.915 78.277 L 54.915 66.596 Q 54.915 60.299 64.314 54.915 Q 73.714 49.531 89.866 46.382 Q 106.019 43.234 125 43.234 Z " id="Download" fill="rgb(255,255,255)"/></g></g></svg>