<?xml version="1.0" standalone="no"?><!-- Generator: Gravit.io --><svg xmlns="http://www.w3.org/2000/svg" xmlns:xlink="http://www.w3.org/1999/xlink" style="isolation:isolate" viewBox="0 0 250 250" width="250" height="250"><defs><clipPath id="_clipPath_AH3yfG1rsrc2Mehie6O0u1AKdEOpauqK"><rect width="250" height="250"/></clipPath></defs><g clip-path="url(#_clipPath_AH3yfG1rsrc2Mehie6O0u1AKdEOpauqK)"><rect width="250" height="250" style="fill:rgb(0,0,0)" fill-opacity="0"/><defs><filter id="xEOz7uRfWL5Iw9XgBTFOjnvHQQe1rx2B" x="-200%" y="-200%" width="400%" height="400%" filterUnits="objectBoundingBox" color-interpolation-filters="sRGB"><feOffset xmlns="http://www.w3.org/2000/svg" in="SourceGraphic" dx="0" dy="3"/><feGaussianBlur xmlns="http://www.w3.org/2000/svg" stdDeviation="2.146804531419514" result="pf_100_offsetBlur"/><feComposite xmlns="http://www.w3.org/2000/svg" in="SourceGraphic" in2="pf_100_offsetBlur" result="pf_100_inverse" operator="out"/><feFlood xmlns="http://www.w3.org/2000/svg" flood-color="#FFFFFF" flood-opacity="0.5" result="pf_100_color"/><feComposite xmlns="http://www.w3.org/2000/svg" in="pf_100_color" in2="pf_100_inverse" operator="in" result="pf_100_shadow"/><feComposite xmlns="http://www.w3.org/2000/svg" in="pf_100_shadow" in2="SourceGraphic" operator="over" result="_out_GbGvfzcRxsZMIJ2zVe2vgDboH5Lkjpaz"/><feOffset xmlns="http://www.w3.org/2000/svg" in="_out_GbGvfzcRxsZMIJ2zVe2vgDboH5Lkjpaz" dx="0" dy="-3"/><feGaussianBlur xmlns="http://www.w3.org/2000/svg" stdDeviation="2.146804531419514" result="pf_101_offsetBlur"/><feComposite xmlns="http://www.w3.org/2000/svg" in="_out_GbGvfzcRxsZMIJ2zVe2vgDboH5Lkjpaz" in2="pf_101_offsetBlur" result="pf_101_inverse" operator="out"/><feFlood xmlns="http://www.w3.org/2000/svg" flood-color="#000000" flood-opacity="0.5" result="pf_101_color"/><feComposite xmlns="http://www.w3.org/2000/svg" in="pf_101_color" in2="pf_101_inverse" operator="in" result="pf_101_shadow"/><feComposite xmlns="http://www.w3.org/2000/svg" in="pf_101_shadow" in2="_out_GbGvfzcRxsZMIJ2zVe2vgDboH5Lkjpaz" operator="over" result="_out_S3POGlsvdeRfVzoZD6RH43VM6zgrALSV"/><feMerge><feMergeNode in="_out_S3POGlsvdeRfVzoZD6RH43VM6zgrALSV"/></feMerge></filter></defs><g filter="url(#xEOz7uRfWL5Iw9XgBTFOjnvHQQe1rx2B)"><path d="M 15 0 L 235 0 C 243.279 0 250 6.721 250 15 L 250 235 C 250 243.279 243.279 250 235 250 L 15 250 C 6.721 250 0 243.279 0 235 L 0 15 C 0 6.721 6.721 0 15 0 Z" style="stroke:none;fill:#243742;stroke-miterlimit:10;"/></g><path d=" M 135.221 86.672 L 135.221 43.234 L 71.341 43.234 C 67.093 43.234 63.676 46.652 63.676 50.9 L 63.676 199.1 C 63.676 203.348 67.093 206.766 71.341 206.766 L 178.659 206.766 C 182.907 206.766 186.324 203.348 186.324 199.1 L 186.324 94.338 L 142.886 94.338 C 138.67 94.338 135.221 90.888 135.221 86.672 Z  M 156.039 155.665 L 135.221 155.665 L 135.221 181.217 C 135.221 184.041 132.934 186.328 130.11 186.328 L 119.89 186.328 C 117.066 186.328 114.779 184.041 114.779 181.217 L 114.779 155.665 L 93.961 155.665 C 89.4 155.665 87.123 150.143 90.361 146.927 L 121.158 116.36 C 123.282 114.249 126.712 114.249 128.836 116.36 L 159.632 146.927 C 162.874 150.143 160.6 155.665 156.039 155.665 Z  M 184.089 76.771 L 152.82 45.47 C 151.382 44.033 149.434 43.234 147.39 43.234 L 145.441 43.234 L 145.441 84.117 L 186.324 84.117 L 186.324 82.169 C 186.324 80.157 185.526 78.208 184.089 76.771 Z " fill="rgb(255,255,255)"/></g></svg>