<svg xmlns="http://www.w3.org/2000/svg" xmlns:xlink="http://www.w3.org/1999/xlink" version="1.1" x="0px" y="0px" viewBox="0 0 100 125" enable-background="new 0 0 100 100" xml:space="preserve"><rect x="24.469" y="28.037" fill="#000000" width="51.159" height="5.592"/><rect x="24.469" y="16.401" fill="#000000" width="51.159" height="5.592"/><rect x="24.469" y="39.672" fill="#000000" width="51.159" height="5.592"/><rect x="24.469" y="51.309" fill="#000000" width="24.345" height="5.592"/><path fill="#000000" d="M80.018,5.03H19.982c-3.724,0-6.745,3.019-6.745,6.745v73.077c0,3.727,3.021,6.744,6.745,6.744h33.784v-4.66  H22.829c-2.485,0-4.498-2.014-4.498-4.496V14.187c0-2.483,2.013-4.496,4.498-4.496h54.342c2.483,0,4.498,2.013,4.498,4.496v68.252  c0,2.482-2.015,4.496-4.498,4.496h-1.819v4.66h4.666c3.726,0,6.746-3.019,6.746-6.744V11.775C86.764,8.049,83.742,5.03,80.018,5.03z  "/><path fill="#000000" d="M75.308,69.185l5.763-2.743l-5.723-2.822l3.619-5.255l-6.369,0.417l0.51-6.362l-5.309,3.543l-2.741-5.763  l-2.823,5.722l-5.256-3.616l0.416,6.366l-6.36-0.506l3.544,5.306l-5.764,2.742l5.723,2.822l-3.619,5.256l6.367-0.415l-0.508,6.359  l5.309-3.545l2.742,5.765l2.822-5.723l5.255,3.618l-0.414-6.366l6.36,0.509L75.308,69.185z M73.956,63.635L64.892,74.36  c-0.456,0.546-1.134,0.862-1.847,0.867c-0.004,0-0.01,0-0.016,0c-0.707,0-1.379-0.308-1.843-0.838l-4.05-4.647  c-0.886-1.019-0.78-2.561,0.235-3.446c1.019-0.887,2.562-0.781,3.448,0.237l2.178,2.5l7.228-8.55  c0.868-1.03,2.411-1.162,3.441-0.289C74.696,61.065,74.826,62.605,73.956,63.635z"/><polygon fill="#000000" points="72.905,94.957 64.818,88.149 56.777,94.957 56.777,81.658 61.884,79.125 64.818,84.539   67.877,79.141 72.905,81.658 "/><text x="0" y="115" fill="#000000" font-size="5px" font-weight="bold" font-family="'Helvetica Neue', Helvetica, Arial-Unicode, Arial, Sans-serif">Created by Anton Noskov</text><text x="0" y="120" fill="#000000" font-size="5px" font-weight="bold" font-family="'Helvetica Neue', Helvetica, Arial-Unicode, Arial, Sans-serif">from the Noun Project</text></svg>
