<?xml version="1.0" standalone="no"?><!-- Generator: Gravit.io --><svg xmlns="http://www.w3.org/2000/svg" xmlns:xlink="http://www.w3.org/1999/xlink" style="isolation:isolate" viewBox="0 0 250 250" width="250" height="250"><defs><clipPath id="_clipPath_tELVa41ZYECwYP9XwTl9HSxzgfxFrQQm"><rect width="250" height="250"/></clipPath></defs><g clip-path="url(#_clipPath_tELVa41ZYECwYP9XwTl9HSxzgfxFrQQm)"><rect width="250" height="250" style="fill:rgb(0,0,0)" fill-opacity="0"/><defs><filter id="05BJPecPyo3dYoJGg4Onaw6rJ9WSVtcq" x="-200%" y="-200%" width="400%" height="400%" filterUnits="objectBoundingBox" color-interpolation-filters="sRGB"><feOffset xmlns="http://www.w3.org/2000/svg" in="SourceGraphic" dx="0" dy="3"/><feGaussianBlur xmlns="http://www.w3.org/2000/svg" stdDeviation="2.146804531419514" result="pf_100_offsetBlur"/><feComposite xmlns="http://www.w3.org/2000/svg" in="SourceGraphic" in2="pf_100_offsetBlur" result="pf_100_inverse" operator="out"/><feFlood xmlns="http://www.w3.org/2000/svg" flood-color="#FFFFFF" flood-opacity="0.5" result="pf_100_color"/><feComposite xmlns="http://www.w3.org/2000/svg" in="pf_100_color" in2="pf_100_inverse" operator="in" result="pf_100_shadow"/><feComposite xmlns="http://www.w3.org/2000/svg" in="pf_100_shadow" in2="SourceGraphic" operator="over" result="_out_szdD6ggEacO0PquwGcMG80ISAAZSupUB"/><feOffset xmlns="http://www.w3.org/2000/svg" in="_out_szdD6ggEacO0PquwGcMG80ISAAZSupUB" dx="0" dy="-3"/><feGaussianBlur xmlns="http://www.w3.org/2000/svg" stdDeviation="2.146804531419514" result="pf_101_offsetBlur"/><feComposite xmlns="http://www.w3.org/2000/svg" in="_out_szdD6ggEacO0PquwGcMG80ISAAZSupUB" in2="pf_101_offsetBlur" result="pf_101_inverse" operator="out"/><feFlood xmlns="http://www.w3.org/2000/svg" flood-color="#000000" flood-opacity="0.5" result="pf_101_color"/><feComposite xmlns="http://www.w3.org/2000/svg" in="pf_101_color" in2="pf_101_inverse" operator="in" result="pf_101_shadow"/><feComposite xmlns="http://www.w3.org/2000/svg" in="pf_101_shadow" in2="_out_szdD6ggEacO0PquwGcMG80ISAAZSupUB" operator="over" result="_out_N3L2iw2kknZl0VmTkXX0ZT4uDvPMNYmB"/><feMerge><feMergeNode in="_out_N3L2iw2kknZl0VmTkXX0ZT4uDvPMNYmB"/></feMerge></filter></defs><g filter="url(#05BJPecPyo3dYoJGg4Onaw6rJ9WSVtcq)"><path d="M 15 0 L 235 0 C 243.279 0 250 6.721 250 15 L 250 235 C 250 243.279 243.279 250 235 250 L 15 250 C 6.721 250 0 243.279 0 235 L 0 15 C 0 6.721 6.721 0 15 0 Z" style="stroke:none;fill:#747474;stroke-miterlimit:10;"/></g><g filter="url(#iYZGQXmLzDZFBE4MIcFYHCoFmlR1a5rr)"><path d=" M 91.627 144.473 L 105.527 158.373 L 100.772 163.128 L 95.651 163.128 L 95.651 154.349 L 86.872 154.349 L 86.872 149.228 L 91.627 144.473 L 91.627 144.473 L 91.627 144.473 Z  M 104.429 171.906 L 154.174 122.161 L 127.839 95.826 L 78.094 145.571 L 78.094 171.906 L 104.429 171.906 L 104.429 171.906 Z  M 160.027 116.309 L 168.44 107.896 Q 171 105.336 171 101.678 Q 171 98.02 168.44 95.46 L 154.54 81.56 Q 151.98 79 148.322 79 Q 144.664 79 142.104 81.56 L 133.691 89.973 L 160.027 116.309 Z " fill="rgb(255,255,255)"/><path d=" M 85 43 L 175.981 43 C 180.01 43 184.04 43.843 187.789 45.343 C 191.537 46.936 195.005 49.185 197.91 52.09 C 200.815 54.995 203.064 58.463 204.657 62.211 C 206.157 65.96 207 69.99 207 74.019 L 207 74.019 L 207 138 L 206.063 138 L 206.063 74.019 L 206.063 74.019 C 206.063 70.083 205.313 66.241 203.814 62.586 C 202.221 58.931 200.065 55.558 197.254 52.746 C 194.442 49.935 191.069 47.779 187.414 46.186 C 183.759 44.687 179.917 43.937 175.981 43.937 L 85 43.937 L 85 43 Z  M 43 85 L 43 175.981 C 43 180.01 43.843 184.04 45.343 187.789 C 46.936 191.537 49.185 195.005 52.09 197.91 C 54.995 200.815 58.463 203.064 62.211 204.657 C 65.96 206.157 69.99 207 74.019 207 L 138 207 L 138 206.063 L 74.019 206.063 C 70.083 206.063 66.241 205.313 62.586 203.814 C 58.931 202.221 55.558 200.065 52.746 197.254 C 49.935 194.442 47.779 191.069 46.186 187.414 C 44.687 183.759 43.937 179.917 43.937 175.981 L 43.937 85 L 43 85 Z " fill-rule="evenodd" fill="rgb(255,255,255)" vector-effect="non-scaling-stroke" stroke-width="9.371" stroke="rgb(255,255,255)" stroke-linejoin="miter" stroke-linecap="square" stroke-miterlimit="3"/><path d=" M 69 53.409 L 69 47.185 C 69 46.101 68.128 45.229 67.045 45.229 L 55.818 45.229 L 55.818 34.002 C 55.818 32.919 54.946 32.047 53.862 32.047 L 47.638 32.047 C 46.554 32.047 45.682 32.919 45.682 34.002 L 45.682 45.229 L 34.455 45.229 C 33.372 45.229 32.5 46.101 32.5 47.185 L 32.5 53.409 C 32.5 54.493 33.372 55.365 34.455 55.365 L 45.682 55.365 L 45.682 66.592 C 45.682 67.675 46.554 68.547 47.638 68.547 L 53.862 68.547 C 54.946 68.547 55.818 67.675 55.818 66.592 L 55.818 55.365 L 67.045 55.365 C 68.128 55.365 69 54.493 69 53.409 Z " fill="rgb(255,255,255)"/><g><path d=" M 175.111 210.559 C 176.314 210.209 177.474 209.722 178.562 209.106 L 180.774 210.86 C 181.497 211.433 182.528 211.368 183.18 210.724 L 186.201 207.703 C 186.852 207.051 186.909 206.021 186.337 205.297 L 184.597 203.1 C 185.249 201.969 185.757 200.766 186.115 199.513 L 188.943 199.184 C 189.859 199.076 190.546 198.303 190.546 197.387 L 190.546 193.113 C 190.546 192.197 189.859 191.423 188.943 191.316 L 186.215 191.001 C 185.864 189.655 185.342 188.367 184.661 187.157 L 186.344 185.03 C 186.917 184.307 186.852 183.276 186.208 182.625 L 183.187 179.604 C 182.535 178.952 181.504 178.895 180.781 179.468 L 178.684 181.122 C 177.495 180.434 176.228 179.897 174.904 179.54 L 174.61 176.991 C 174.503 176.074 173.73 175.387 172.813 175.387 L 168.539 175.387 C 167.623 175.387 166.85 176.075 166.743 176.991 L 166.449 179.504 C 165.139 179.847 163.886 180.363 162.712 181.021 L 160.758 179.475 C 160.035 178.902 159.004 178.967 158.352 179.611 L 155.338 182.625 C 154.687 183.276 154.63 184.307 155.202 185.03 L 156.706 186.928 C 155.983 188.159 155.431 189.476 155.059 190.858 L 152.604 191.144 C 151.687 191.252 151 192.025 151 192.941 L 151 197.215 C 151 198.131 151.687 198.904 152.604 199.012 L 155.059 199.298 C 155.439 200.716 156.011 202.069 156.763 203.329 L 155.202 205.297 C 154.63 206.02 154.694 207.051 155.338 207.703 L 158.359 210.724 C 159.011 211.375 160.042 211.433 160.765 210.86 L 162.848 209.213 C 164.036 209.872 165.304 210.373 166.621 210.702 L 166.922 213.337 C 167.029 214.253 167.802 214.941 168.718 214.941 L 172.992 214.941 C 173.909 214.941 174.682 214.253 174.789 213.337 L 175.111 210.559 Z  M 162.361 195.074 C 162.361 190.525 166.066 186.82 170.616 186.82 C 175.165 186.82 178.87 190.525 178.87 195.074 C 178.87 199.624 175.165 203.329 170.616 203.329 C 166.066 203.329 162.361 199.624 162.361 195.074 Z " fill-rule="evenodd" fill="rgb(255,255,255)"/><path d=" M 206.754 198.965 C 207.557 198.731 208.331 198.406 209.058 197.995 L 210.534 199.166 C 211.017 199.548 211.705 199.505 212.14 199.075 L 214.157 197.059 C 214.592 196.624 214.63 195.936 214.247 195.453 L 213.086 193.986 C 213.521 193.231 213.86 192.428 214.099 191.592 L 215.987 191.372 C 216.599 191.3 217.057 190.784 217.057 190.173 L 217.057 187.32 C 217.057 186.708 216.599 186.192 215.987 186.12 L 214.166 185.91 C 213.932 185.011 213.583 184.151 213.129 183.344 L 214.252 181.924 C 214.635 181.442 214.592 180.754 214.161 180.319 L 212.145 178.302 C 211.71 177.867 211.022 177.829 210.539 178.211 L 209.139 179.315 C 208.346 178.856 207.5 178.498 206.616 178.259 L 206.42 176.558 C 206.348 175.946 205.832 175.487 205.22 175.487 L 202.367 175.487 C 201.756 175.487 201.24 175.946 201.168 176.558 L 200.972 178.235 C 200.097 178.465 199.261 178.809 198.477 179.248 L 197.173 178.216 C 196.69 177.834 196.002 177.877 195.567 178.307 L 193.555 180.319 C 193.12 180.753 193.082 181.442 193.464 181.924 L 194.468 183.191 C 193.985 184.013 193.617 184.892 193.369 185.814 L 191.73 186.005 C 191.118 186.077 190.659 186.593 190.659 187.205 L 190.659 190.058 C 190.659 190.669 191.118 191.186 191.73 191.257 L 193.369 191.448 C 193.622 192.395 194.004 193.298 194.506 194.139 L 193.464 195.453 C 193.082 195.936 193.125 196.624 193.555 197.059 L 195.572 199.075 C 196.007 199.51 196.695 199.548 197.178 199.166 L 198.568 198.067 C 199.362 198.507 200.207 198.841 201.087 199.061 L 201.287 200.82 C 201.359 201.431 201.875 201.89 202.487 201.89 L 205.34 201.89 C 205.951 201.89 206.468 201.431 206.539 200.82 L 206.754 198.965 Z  M 198.243 188.629 C 198.243 185.592 200.716 183.119 203.753 183.119 C 206.79 183.119 209.263 185.592 209.263 188.629 C 209.263 191.666 206.79 194.139 203.753 194.139 C 200.716 194.139 198.243 191.666 198.243 188.629 Z " fill-rule="evenodd" fill="rgb(255,255,255)"/><path d=" M 192.793 176.545 C 193.735 176.126 194.627 175.6 195.447 174.977 L 197.446 176.162 C 198.1 176.549 198.934 176.382 199.394 175.784 L 201.523 172.983 C 201.982 172.379 201.914 171.532 201.367 171.006 L 199.703 169.406 C 200.109 168.41 200.39 167.373 200.543 166.311 L 202.814 165.728 C 203.55 165.539 204.024 164.832 203.923 164.084 L 203.448 160.597 C 203.346 159.849 202.7 159.295 201.94 159.309 L 199.68 159.355 C 199.244 158.296 198.674 157.302 197.985 156.391 L 199.122 154.469 C 199.509 153.816 199.342 152.982 198.744 152.522 L 195.943 150.392 C 195.339 149.933 194.492 150.001 193.965 150.548 L 192.438 152.131 C 191.392 151.702 190.298 151.405 189.178 151.26 L 188.655 149.213 C 188.466 148.477 187.759 148.002 187.011 148.104 L 183.524 148.579 C 182.777 148.68 182.222 149.327 182.236 150.087 L 182.276 152.169 C 181.245 152.595 180.28 153.155 179.395 153.823 L 177.629 152.778 C 176.975 152.391 176.142 152.558 175.682 153.156 L 173.557 155.95 C 173.098 156.554 173.166 157.401 173.713 157.928 L 175.151 159.309 C 174.698 160.394 174.394 161.53 174.244 162.698 L 172.272 163.205 C 171.536 163.394 171.062 164.101 171.163 164.849 L 171.638 168.336 C 171.74 169.083 172.386 169.638 173.146 169.624 L 175.181 169.585 C 175.648 170.699 176.266 171.739 177.019 172.684 L 175.964 174.464 C 175.577 175.117 175.744 175.951 176.342 176.411 L 179.143 178.54 C 179.747 178.999 180.594 178.932 181.121 178.384 L 182.637 176.809 C 183.68 177.215 184.77 177.483 185.881 177.605 L 186.419 179.721 C 186.608 180.457 187.315 180.932 188.063 180.83 L 191.55 180.355 C 192.298 180.254 192.852 179.607 192.838 178.848 L 192.793 176.545 Z  M 181.129 165.265 C 180.658 161.806 183.091 158.606 186.55 158.135 C 190.009 157.664 193.21 160.098 193.68 163.557 C 194.151 167.015 191.718 170.216 188.259 170.687 C 184.8 171.157 181.6 168.724 181.129 165.265 Z " fill-rule="evenodd" fill="rgb(255,255,255)"/></g></g><defs><filter id="iYZGQXmLzDZFBE4MIcFYHCoFmlR1a5rr" x="-200%" y="-200%" width="400%" height="400%" filterUnits="objectBoundingBox" color-interpolation-filters="sRGB"><feGaussianBlur xmlns="http://www.w3.org/2000/svg" in="SourceGraphic" stdDeviation="2.146804531419514"/><feOffset xmlns="http://www.w3.org/2000/svg" dx="-5" dy="5" result="pf_100_offsetBlur"/><feFlood xmlns="http://www.w3.org/2000/svg" flood-color="#000000" flood-opacity="0.65"/><feComposite xmlns="http://www.w3.org/2000/svg" in2="pf_100_offsetBlur" operator="in" result="pf_100_dropShadow"/><feBlend xmlns="http://www.w3.org/2000/svg" in="SourceGraphic" in2="pf_100_dropShadow" mode="normal"/></filter></defs></g></svg>