<?xml version="1.0" standalone="no"?><!-- Generator: Gravit.io --><svg xmlns="http://www.w3.org/2000/svg" xmlns:xlink="http://www.w3.org/1999/xlink" style="isolation:isolate" viewBox="0 0 250 250" width="250" height="250"><defs><clipPath id="_clipPath_4mlwgYrqD3IsQZsavbFn79xyDx5ADf3Z"><rect width="250" height="250"/></clipPath></defs><g clip-path="url(#_clipPath_4mlwgYrqD3IsQZsavbFn79xyDx5ADf3Z)"><rect width="250" height="250" style="fill:rgb(0,0,0)" fill-opacity="0"/><defs><filter id="QtXs0xgjRxmKzy4annsxwI2XWPBJoalb" x="-200%" y="-200%" width="400%" height="400%" filterUnits="objectBoundingBox" color-interpolation-filters="sRGB"><feOffset xmlns="http://www.w3.org/2000/svg" in="SourceGraphic" dx="0" dy="3"/><feGaussianBlur xmlns="http://www.w3.org/2000/svg" stdDeviation="2.146804531419514" result="pf_100_offsetBlur"/><feComposite xmlns="http://www.w3.org/2000/svg" in="SourceGraphic" in2="pf_100_offsetBlur" result="pf_100_inverse" operator="out"/><feFlood xmlns="http://www.w3.org/2000/svg" flood-color="#FFFFFF" flood-opacity="0.5" result="pf_100_color"/><feComposite xmlns="http://www.w3.org/2000/svg" in="pf_100_color" in2="pf_100_inverse" operator="in" result="pf_100_shadow"/><feComposite xmlns="http://www.w3.org/2000/svg" in="pf_100_shadow" in2="SourceGraphic" operator="over" result="_out_A3Ikj06RrP4GOwe07DWLZALMARwc4JdR"/><feOffset xmlns="http://www.w3.org/2000/svg" in="_out_A3Ikj06RrP4GOwe07DWLZALMARwc4JdR" dx="0" dy="-3"/><feGaussianBlur xmlns="http://www.w3.org/2000/svg" stdDeviation="2.146804531419514" result="pf_101_offsetBlur"/><feComposite xmlns="http://www.w3.org/2000/svg" in="_out_A3Ikj06RrP4GOwe07DWLZALMARwc4JdR" in2="pf_101_offsetBlur" result="pf_101_inverse" operator="out"/><feFlood xmlns="http://www.w3.org/2000/svg" flood-color="#000000" flood-opacity="0.5" result="pf_101_color"/><feComposite xmlns="http://www.w3.org/2000/svg" in="pf_101_color" in2="pf_101_inverse" operator="in" result="pf_101_shadow"/><feComposite xmlns="http://www.w3.org/2000/svg" in="pf_101_shadow" in2="_out_A3Ikj06RrP4GOwe07DWLZALMARwc4JdR" operator="over" result="_out_WxrIX6bcba89JklnU1lRNn6ZrZ2ccQRd"/><feMerge><feMergeNode in="_out_WxrIX6bcba89JklnU1lRNn6ZrZ2ccQRd"/></feMerge></filter></defs><g filter="url(#QtXs0xgjRxmKzy4annsxwI2XWPBJoalb)"><path d="M 15 0 L 235 0 C 243.279 0 250 6.721 250 15 L 250 235 C 250 243.279 243.279 250 235 250 L 15 250 C 6.721 250 0 243.279 0 235 L 0 15 C 0 6.721 6.721 0 15 0 Z" style="stroke:none;fill:#243742;stroke-miterlimit:10;"/></g><defs><filter id="nALB1fSQGZdFRRKgQEuU3hY3RCTqMdvE" x="-200%" y="-200%" width="400%" height="400%" filterUnits="objectBoundingBox" color-interpolation-filters="sRGB"><feGaussianBlur xmlns="http://www.w3.org/2000/svg" in="SourceGraphic" stdDeviation="2.146804531419514"/><feOffset xmlns="http://www.w3.org/2000/svg" dx="-5" dy="5" result="pf_100_offsetBlur"/><feFlood xmlns="http://www.w3.org/2000/svg" flood-color="#000000" flood-opacity="0.5"/><feComposite xmlns="http://www.w3.org/2000/svg" in2="pf_100_offsetBlur" operator="in" result="pf_100_dropShadow"/><feBlend xmlns="http://www.w3.org/2000/svg" in="SourceGraphic" in2="pf_100_dropShadow" mode="normal"/></filter></defs><g filter="url(#nALB1fSQGZdFRRKgQEuU3hY3RCTqMdvE)"><path d=" M 196.545 66.596 L 196.545 81.197 C 196.545 94.064 164.499 104.559 125 104.559 C 85.501 104.559 53.455 94.064 53.455 81.197 L 53.455 66.596 C 53.455 53.729 85.501 43.234 125 43.234 C 164.499 43.234 196.545 53.729 196.545 66.596 Z  M 196.545 99.448 L 196.545 132.3 C 196.545 145.168 164.499 155.662 125 155.662 C 85.501 155.662 53.455 145.168 53.455 132.3 L 53.455 99.448 C 68.826 110.034 96.959 114.962 125 114.962 C 153.041 114.962 181.174 110.034 196.545 99.448 Z  M 196.545 150.552 L 196.545 183.404 C 196.545 196.271 164.499 206.766 125 206.766 C 85.501 206.766 53.455 196.271 53.455 183.404 L 53.455 150.552 C 68.826 161.138 96.959 166.066 125 166.066 C 153.041 166.066 181.174 161.138 196.545 150.552 Z " fill="rgb(255,255,255)"/></g></g></svg>