<svg xmlns="http://www.w3.org/2000/svg" xmlns:xlink="http://www.w3.org/1999/xlink" width="70" height="70"
     viewBox="0 0 70 70">
    <defs>
        <path id="a" d="M4 0h61c4 0 5 1 5 5v60c0 4-1 5-5 5H4c-3 0-4-1-4-5V5c0-4 1-5 4-5z"/>
        <linearGradient id="c" x1="98.162%" x2="0%" y1="1.838%" y2="100%">
            <stop offset="0%" stop-color="#299057"/>
            <stop offset="50.799%" stop-color="#247b4b"/>
            <stop offset="100%" stop-color="#1e6c41"/>
        </linearGradient>
    </defs>
    <g fill="none" fill-rule="evenodd">
        <mask id="b" fill="#fff">
            <use xlink:href="#a"/>
        </mask>
        <g mask="url(#b)">
            <path fill="url(#c)" d="M0 0H70V70H0z"/>
            <path fill="#FFF" fill-opacity=".383" d="M4 1h61c2.667 0 4.333.667 5 2V0H0v3c.667-1.333 2-2 4-2z"/>
            <path fill="#000" fill-opacity=".383" d="M4 69h61c2.667 0 4.333-1 5-3v4H0v-4c.667 2 2 3 4 3z"/>
    <g id="svg_6" opacity="0.3">
   <rect transform="rotate(45 13.260807037353503,54.92864227294921) " id="svg_3" height="53.04516" width="49.37127" y="28.40606" x="-11.42483" stroke-width="1.5" fill="#393939"/>
   <rect id="svg_4" height="26.13202" width="35.87171" y="22.51154" x="16.97542" stroke-width="1.5" fill="#393939"/>
   <rect transform="rotate(45 29.76154327392579,57.46826171875) " id="svg_5" height="44.46914" width="25.41374" y="35.23369" x="17.05467" stroke-width="1.5" fill="#393939"/>
  </g>
   <path stroke="null" fill="#000000" stroke-width="0.83299" id="svg_1" d="m26.1834,56.85563l-11.67266,-2.33929l0,-17.34805l0,-17.34806l11.67266,-2.35858c6.41997,-1.29722 12.06383,-2.36934 12.54192,-2.3825c0.74734,-0.02055 0.86924,0.4637 0.86924,3.45306l0,3.47697l7.94735,0l7.94735,0l0,15.39799l0,15.39799l-7.94735,0l-7.94735,0l0,3.22861c0,2.75658 -0.12708,3.22368 -0.86924,3.19488c-0.47809,-0.01855 -6.12195,-1.08641 -12.54192,-2.37302zm17.88155,-8.76921c0,-1.72928 -0.01187,-1.73848 -2.2352,-1.73848c-2.22337,0 -2.23519,0.00918 -2.23519,1.73848c0,1.72928 0.01181,1.73849 2.23519,1.73849c2.22337,0 2.2352,-0.00918 2.2352,-1.73849zm8.44406,0l0,-1.73848l-3.47697,0l-3.47696,0l0,1.73848l0,1.73849l3.47696,0l3.47697,0l0,-1.73849zm-20.8618,-3.56152c0,-0.18311 -0.70739,-1.86762 -1.57197,-3.74335l-1.57197,-3.41043l1.5732,-3.58312c0.86526,-1.97072 1.57264,-3.75075 1.57196,-3.95565c-0.00077,-0.20489 -0.52638,-0.37253 -1.16824,-0.37253c-0.96369,0 -1.37326,0.51925 -2.35077,2.98026c-0.65107,1.63914 -1.31444,2.98025 -1.47418,2.98025c-0.15973,0 -0.67794,-1.22935 -1.15157,-2.7319c-0.78893,-2.50278 -0.98456,-2.7319 -2.33257,-2.7319l-1.47141,0l0.80025,1.86266c2.60121,6.05456 2.57837,5.80144 0.81337,9.01195c-0.88016,1.60101 -1.60029,3.05021 -1.60029,3.22044c0,0.17024 0.52059,0.30952 1.15687,0.30952c0.902,0 1.41313,-0.54713 2.3201,-2.48354c0.63977,-1.36596 1.30741,-2.48355 1.48363,-2.48355c0.17622,0 0.82994,1.22936 1.45271,2.7319c0.92842,2.23997 1.34737,2.7319 2.3266,2.7319c0.65685,0 1.19428,-0.14981 1.19428,-0.33291zm12.41774,-1.90228c0,-1.72928 -0.01187,-1.73849 -2.2352,-1.73849c-2.22337,0 -2.23519,0.0092 -2.23519,1.73849c0,1.72929 0.01181,1.73848 2.23519,1.73848c2.22337,0 2.2352,-0.0092 2.2352,-1.73848zm8.44406,0l0,-1.73849l-3.47697,0l-3.47696,0l0,1.73849l0,1.73848l3.47696,0l3.47697,0l0,-1.73848zm-8.44406,-5.4638c0,-1.72929 -0.01187,-1.73849 -2.2352,-1.73849c-2.22337,0 -2.23519,0.00919 -2.23519,1.73849c0,1.72928 0.01181,1.73848 2.23519,1.73848c2.22337,0 2.2352,-0.0092 2.2352,-1.73848zm8.44406,0l0,-1.73849l-3.47697,0l-3.47696,0l0,1.73849l0,1.73848l3.47696,0l3.47697,0l0,-1.73848zm-8.44406,-4.9671c0,-1.72928 -0.01187,-1.73848 -2.2352,-1.73848c-2.22337,0 -2.23519,0.00919 -2.23519,1.73848c0,1.72929 0.01181,1.73848 2.23519,1.73848c2.22337,0 2.2352,-0.00919 2.2352,-1.73848zm8.44406,0l0,-1.73848l-3.47697,0l-3.47696,0l0,1.73848l0,1.73848l3.47696,0l3.47697,0l0,-1.73848zm-8.44406,-5.4638c0,-1.72929 -0.01187,-1.73849 -2.2352,-1.73849c-2.22337,0 -2.23519,0.0092 -2.23519,1.73849c0,1.72928 0.01181,1.73848 2.23519,1.73848c2.22337,0 2.2352,-0.0092 2.2352,-1.73848zm8.44406,0l0,-1.73849l-3.47697,0l-3.47696,0l0,1.73849l0,1.73848l3.47696,0l3.47697,0l0,-1.73848z" opacity="0.3"/>
            <path stroke="null" fill="#ffffff" stroke-width="0.83299" id="path6241-5-3" d="m26.1834,54.70143l-11.67267,-2.33929l0,-17.34806l0,-17.34806l11.67267,-2.35858c6.41997,-1.29722 12.06383,-2.36934 12.54192,-2.38249c0.74734,-0.02055 0.86924,0.46369 0.86924,3.45306l0,3.47697l7.94735,0l7.94735,0l0,15.39799l0,15.39799l-7.94735,0l-7.94735,0l0,3.22861c0,2.75658 -0.12708,3.22368 -0.86924,3.19487c-0.47808,-0.01854 -6.12195,-1.08641 -12.54192,-2.37301zm17.88155,-8.76921c0,-1.72928 -0.01187,-1.73849 -2.2352,-1.73849c-2.22337,0 -2.23519,0.00918 -2.23519,1.73849c0,1.72928 0.01181,1.73849 2.23519,1.73849c2.22337,0 2.2352,-0.00918 2.2352,-1.73849zm8.44406,0l0,-1.73849l-3.47697,0l-3.47697,0l0,1.73849l0,1.73849l3.47697,0l3.47697,0l0,-1.73849zm-20.8618,-3.56153c0,-0.18311 -0.70738,-1.86761 -1.57197,-3.74335l-1.57197,-3.41043l1.5732,-3.58312c0.86526,-1.97071 1.57264,-3.75075 1.57197,-3.95564c-0.00078,-0.20489 -0.52638,-0.37253 -1.16825,-0.37253c-0.96368,0 -1.37326,0.51925 -2.35077,2.98025c-0.65106,1.63914 -1.31444,2.98025 -1.47418,2.98025c-0.15973,0 -0.67794,-1.22935 -1.15157,-2.7319c-0.78893,-2.50278 -0.98456,-2.7319 -2.33257,-2.7319l-1.47142,0l0.80025,1.86267c2.60121,6.05456 2.57837,5.80143 0.81338,9.01194c-0.88016,1.60102 -1.60029,3.05022 -1.60029,3.22045c0,0.17023 0.52059,0.30951 1.15687,0.30951c0.902,0 1.41313,-0.54713 2.3201,-2.48354c0.63978,-1.36595 1.30742,-2.48355 1.48363,-2.48355c0.17622,0 0.82994,1.22936 1.45271,2.7319c0.92842,2.23997 1.34737,2.7319 2.3266,2.7319c0.65685,0 1.19428,-0.14981 1.19428,-0.33291zm12.41774,-1.90228c0,-1.72928 -0.01187,-1.73849 -2.2352,-1.73849c-2.22337,0 -2.23519,0.00919 -2.23519,1.73849c0,1.72928 0.01181,1.73848 2.23519,1.73848c2.22337,0 2.2352,-0.0092 2.2352,-1.73848zm8.44406,0l0,-1.73849l-3.47697,0l-3.47697,0l0,1.73849l0,1.73848l3.47697,0l3.47697,0l0,-1.73848zm-8.44406,-5.4638c0,-1.72928 -0.01187,-1.73849 -2.2352,-1.73849c-2.22337,0 -2.23519,0.00919 -2.23519,1.73849c0,1.72928 0.01181,1.73848 2.23519,1.73848c2.22337,0 2.2352,-0.00919 2.2352,-1.73848zm8.44406,0l0,-1.73849l-3.47697,0l-3.47697,0l0,1.73849l0,1.73848l3.47697,0l3.47697,0l0,-1.73848zm-8.44406,-4.96709c0,-1.72928 -0.01187,-1.73849 -2.2352,-1.73849c-2.22337,0 -2.23519,0.00919 -2.23519,1.73849c0,1.72928 0.01181,1.73848 2.23519,1.73848c2.22337,0 2.2352,-0.00919 2.2352,-1.73848zm8.44406,0l0,-1.73849l-3.47697,0l-3.47697,0l0,1.73849l0,1.73848l3.47697,0l3.47697,0l0,-1.73848zm-8.44406,-5.4638c0,-1.72928 -0.01187,-1.73849 -2.2352,-1.73849c-2.22337,0 -2.23519,0.00919 -2.23519,1.73849c0,1.72928 0.01181,1.73848 2.23519,1.73848c2.22337,0 2.2352,-0.00919 2.2352,-1.73848zm8.44406,0l0,-1.73849l-3.47697,0l-3.47697,0l0,1.73849l0,1.73848l3.47697,0l3.47697,0l0,-1.73848z"/>
        </g>
    </g>
</svg>
